<svg width="40" height="40" viewBox="0 0 40 40" fill="none" xmlns="http://www.w3.org/2000/svg">
<rect width="40" height="40" rx="20" fill="#263D54"/>
<path d="M16.16 20.4367V18.5572C16.16 17.8128 15.9947 17.1494 15.6641 16.5672C15.3334 15.9775 14.8759 15.5169 14.2915 15.1852C13.7071 14.8461 13.0382 14.6766 12.2846 14.6766H12.1577V12.6866C12.1577 11.8832 12.4076 11.2346 12.9074 10.7407C13.4149 10.2469 14.0762 10 14.8913 10H26.1139C26.929 10 27.5864 10.2469 28.0862 10.7407C28.586 11.2346 28.8359 11.8832 28.8359 12.6866V14.6766H28.6975C27.944 14.6766 27.2788 14.8461 26.7021 15.1852C26.1254 15.5169 25.6718 15.9775 25.3411 16.5672C25.0105 17.1494 24.8452 17.8128 24.8452 18.5572V20.4367H16.16ZM8.83594 25.0249V18.5572C8.83594 17.7759 9.082 17.1458 9.57412 16.6667C10.0739 16.1802 10.7237 15.937 11.5234 15.937H11.9963C12.796 15.937 13.4419 16.1802 13.934 16.6667C14.4338 17.1458 14.6837 17.7759 14.6837 18.5572V21.8408H26.31V18.5572C26.31 17.7759 26.556 17.1458 27.0482 16.6667C27.548 16.1802 28.1977 15.937 28.9974 15.937H29.4703C30.27 15.937 30.9198 16.1802 31.4196 16.6667C31.9194 17.1458 32.1693 17.7759 32.1693 18.5572V25.0249C32.1693 25.8062 31.9194 26.44 31.4196 26.9265C30.9198 27.4056 30.27 27.6451 29.4703 27.6451H11.5234C10.7237 27.6451 10.0739 27.4056 9.57412 26.9265C9.082 26.44 8.83594 25.8062 8.83594 25.0249ZM13.0228 30C12.7075 30 12.4499 29.9079 12.25 29.7236C12.0578 29.5393 11.9617 29.2924 11.9617 28.9829V26.5395H14.8567V28.9829C14.8567 29.2924 14.7567 29.5393 14.5568 29.7236C14.3646 29.9079 14.107 30 13.784 30H13.0228ZM27.0712 30C26.7175 30 26.4292 29.8968 26.2062 29.6904C25.9909 29.4841 25.8832 29.2114 25.8832 28.8723V26.3295H28.9974V28.8723C28.9974 29.2114 28.8898 29.4841 28.6745 29.6904C28.4592 29.8968 28.1708 30 27.8094 30H27.0712Z" fill="white"/>
</svg>
