<svg width="36" height="40" viewBox="0 0 36 40" fill="none" xmlns="http://www.w3.org/2000/svg">
<path d="M12.4167 20.5677V18.1244C12.4167 17.1566 12.2042 16.2943 11.779 15.5373C11.3539 14.7708 10.7657 14.1719 10.0143 13.7407C9.26298 13.3 8.40287 13.0796 7.43401 13.0796H7.27088V10.4925C7.27088 9.44813 7.59219 8.60494 8.2348 7.96296C8.8873 7.32099 9.73752 7 10.7855 7H25.2145C26.2625 7 27.1078 7.32099 27.7504 7.96296C28.393 8.60494 28.7143 9.44813 28.7143 10.4925V13.0796H28.5363C27.5675 13.0796 26.7123 13.3 25.9708 13.7407C25.2294 14.1719 24.6461 14.7708 24.221 15.5373C23.7958 16.2943 23.5833 17.1566 23.5833 18.1244V20.5677H12.4167ZM3 26.5323V18.1244C3 17.1087 3.31636 16.2895 3.94909 15.6667C4.5917 15.0343 5.42709 14.7181 6.45526 14.7181H7.06327C8.09145 14.7181 8.9219 15.0343 9.55462 15.6667C10.1972 16.2895 10.5185 17.1087 10.5185 18.1244V22.393H25.4666V18.1244C25.4666 17.1087 25.783 16.2895 26.4157 15.6667C27.0583 15.0343 27.8937 14.7181 28.9219 14.7181H29.5299C30.5581 14.7181 31.3935 15.0343 32.0361 15.6667C32.6787 16.2895 33 17.1087 33 18.1244V26.5323C33 27.548 32.6787 28.372 32.0361 29.0044C31.3935 29.6272 30.5581 29.9386 29.5299 29.9386H6.45526C5.42709 29.9386 4.5917 29.6272 3.94909 29.0044C3.31636 28.372 3 27.548 3 26.5323ZM8.38309 33C7.97776 33 7.64656 32.8802 7.38952 32.6407C7.14236 32.4011 7.01878 32.0802 7.01878 31.6777V28.5014H10.741V31.6777C10.741 32.0802 10.6125 32.4011 10.3554 32.6407C10.1083 32.8802 9.77706 33 9.36184 33H8.38309ZM26.4454 33C25.9906 33 25.6199 32.8659 25.3332 32.5976C25.0564 32.3293 24.9179 31.9748 24.9179 31.534V28.2283H28.9219V31.534C28.9219 31.9748 28.7835 32.3293 28.5067 32.5976C28.2299 32.8659 27.8591 33 27.3945 33H26.4454Z" fill="#1D70B8"/>
</svg>
