<svg width="30" height="40" viewBox="0 0 30 40" fill="none" xmlns="http://www.w3.org/2000/svg">
<path d="M9.78893 20.524V18.2687C9.78893 17.3753 9.59054 16.5793 9.19377 15.8806C8.797 15.173 8.24798 14.6202 7.54671 14.2222C6.84544 13.8154 6.04268 13.6119 5.13841 13.6119H4.98616V11.2239C4.98616 10.2598 5.28604 9.48148 5.88581 8.88889C6.49481 8.2963 7.28835 8 8.26644 8H21.7336C22.7116 8 23.5006 8.2963 24.1003 8.88889C24.7001 9.48148 25 10.2598 25 11.2239V13.6119H24.8339C23.9296 13.6119 23.1315 13.8154 22.4394 14.2222C21.7474 14.6202 21.203 15.173 20.8062 15.8806C20.4095 16.5793 20.2111 17.3753 20.2111 18.2687V20.524H9.78893ZM1 26.0299V18.2687C1 17.3311 1.29527 16.5749 1.88581 16C2.48558 15.4163 3.26528 15.1244 4.22491 15.1244H4.79239C5.75202 15.1244 6.5271 15.4163 7.11765 16C7.71742 16.5749 8.0173 17.3311 8.0173 18.2687V22.209H21.9689V18.2687C21.9689 17.3311 22.2641 16.5749 22.8547 16C23.4544 15.4163 24.2341 15.1244 25.1938 15.1244H25.7612C26.7209 15.1244 27.5006 15.4163 28.1003 16C28.7001 16.5749 29 17.3311 29 18.2687V26.0299C29 26.9674 28.7001 27.728 28.1003 28.3118C27.5006 28.8867 26.7209 29.1741 25.7612 29.1741H4.22491C3.26528 29.1741 2.48558 28.8867 1.88581 28.3118C1.29527 27.728 1 26.9674 1 26.0299ZM6.02422 32C5.64591 32 5.33679 31.8894 5.09689 31.6683C4.86621 31.4472 4.75086 31.1509 4.75086 30.7794V27.8474H8.22491V30.7794C8.22491 31.1509 8.10496 31.4472 7.86505 31.6683C7.63437 31.8894 7.32526 32 6.93772 32H6.02422ZM22.8824 32C22.4579 32 22.1119 31.8762 21.8443 31.6285C21.5859 31.3809 21.4567 31.0536 21.4567 30.6468V27.5954H25.1938V30.6468C25.1938 31.0536 25.0646 31.3809 24.8062 31.6285C24.5479 31.8762 24.2018 32 23.7682 32H22.8824Z" fill="#1D70B8"/>
</svg>
