<svg width="41" height="40" viewBox="0 0 41 40" fill="none" xmlns="http://www.w3.org/2000/svg">
<path d="M15.2889 20.524V18.2687C15.2889 17.3753 15.0905 16.5793 14.6938 15.8806C14.297 15.173 13.748 14.6202 13.0467 14.2222C12.3454 13.8154 11.5427 13.6119 10.6384 13.6119H10.4862V11.2239C10.4862 10.2598 10.786 9.48148 11.3858 8.88889C11.9948 8.2963 12.7884 8 13.7664 8H27.2336C28.2116 8 29.0006 8.2963 29.6003 8.88889C30.2001 9.48148 30.5 10.2598 30.5 11.2239V13.6119H30.3339C29.4296 13.6119 28.6315 13.8154 27.9394 14.2222C27.2474 14.6202 26.703 15.173 26.3062 15.8806C25.9095 16.5793 25.7111 17.3753 25.7111 18.2687V20.524H15.2889ZM6.5 26.0299V18.2687C6.5 17.3311 6.79527 16.5749 7.38581 16C7.98558 15.4163 8.76528 15.1244 9.72491 15.1244H10.2924C11.252 15.1244 12.0271 15.4163 12.6176 16C13.2174 16.5749 13.5173 17.3311 13.5173 18.2687V22.209H27.4689V18.2687C27.4689 17.3311 27.7641 16.5749 28.3547 16C28.9544 15.4163 29.7341 15.1244 30.6938 15.1244H31.2612C32.2209 15.1244 33.0006 15.4163 33.6003 16C34.2001 16.5749 34.5 17.3311 34.5 18.2687V26.0299C34.5 26.9674 34.2001 27.728 33.6003 28.3118C33.0006 28.8867 32.2209 29.1741 31.2612 29.1741H9.72491C8.76528 29.1741 7.98558 28.8867 7.38581 28.3118C6.79527 27.728 6.5 26.9674 6.5 26.0299ZM11.5242 32C11.1459 32 10.8368 31.8894 10.5969 31.6683C10.3662 31.4472 10.2509 31.1509 10.2509 30.7794V27.8474H13.7249V30.7794C13.7249 31.1509 13.605 31.4472 13.3651 31.6683C13.1344 31.8894 12.8253 32 12.4377 32H11.5242ZM28.3824 32C27.9579 32 27.6119 31.8762 27.3443 31.6285C27.0859 31.3809 26.9567 31.0536 26.9567 30.6468V27.5954H30.6938V30.6468C30.6938 31.0536 30.5646 31.3809 30.3062 31.6285C30.0479 31.8762 29.7018 32 29.2682 32H28.3824Z" fill="#1D70B8"/>
</svg>
