<svg width="54" height="51" viewBox="0 0 54 51" fill="none" xmlns="http://www.w3.org/2000/svg">
<path d="M37.8969 18.1475C36.3238 18.7933 34.5354 18.0482 33.9061 16.4916C33.2603 14.935 34.0055 13.13 35.5786 12.5008C37.1186 11.8715 38.907 12.6167 39.5528 14.1733C40.1987 15.7299 39.4535 17.5017 37.9135 18.1475" fill="#858686"/>
<path d="M28.1766 29.1761C26.6034 29.8219 24.815 29.0767 24.1858 27.5201C23.5399 25.9635 24.2851 24.1586 25.8583 23.5293C27.3983 22.9001 29.1867 23.6452 29.8325 25.2018C30.4783 26.7584 29.7331 28.5302 28.1931 29.1761" fill="#858686"/>
<path d="M46.0772 23.0325C44.5041 23.6784 42.7157 22.9332 42.0864 21.3766C41.4406 19.82 42.1858 18.015 43.7589 17.3858C45.299 16.7565 47.0874 17.5017 47.7332 19.0583C48.379 20.6149 47.6338 22.3867 46.0938 23.0325" fill="#858686"/>
<path d="M51.4922 31.0804C49.919 31.7262 48.1306 30.981 47.5013 29.441C46.8555 27.8844 47.6007 26.0795 49.1738 25.4502C50.7139 24.8209 52.5023 25.5661 53.1481 27.1227C53.7939 28.6793 53.0487 30.4511 51.5087 31.0969" fill="#858686"/>
<path d="M28.6237 8.67556L32.482 10.6958V4.99939L28.6237 6.22478C28.5243 6.07574 28.3918 5.94327 28.2428 5.82735C28.0938 5.71144 29.7994 0.925781 29.7994 0.925781H24.2354L25.792 5.81079C25.6595 5.92671 25.5271 6.05919 25.4111 6.20822C25.2952 6.35725 21.5528 4.99939 21.5528 4.99939V10.6958L25.4111 8.65901C25.5271 8.8246 25.6595 8.95707 25.8086 9.05643L23.5896 15.7464C23.5896 15.7464 23.5896 15.763 23.5896 15.7795C23.4903 16.1107 23.424 16.475 23.424 16.8393C23.424 18.6443 24.7653 20.1512 26.5041 20.3996H26.5869C26.7359 20.4162 26.8849 20.4327 27.034 20.4327C27.183 20.4327 27.332 20.4327 27.4811 20.3996H27.5639C29.3026 20.1346 30.6439 18.6443 30.6439 16.8393C30.6439 16.475 30.5942 16.1107 30.4783 15.7795C30.4783 15.7795 30.4783 15.763 30.4783 15.7464L28.2594 9.05643C28.4084 8.94051 28.5409 8.80804 28.6568 8.65901" fill="#858686"/>
<path d="M16.0551 18.1475C17.6282 18.7933 19.4167 18.0482 20.0459 16.4916C20.6917 14.935 19.9466 13.13 18.3734 12.5008C16.8334 11.8715 15.045 12.6167 14.3992 14.1733C13.7534 15.7299 14.4985 17.5017 16.0385 18.1475" fill="#858686"/>
<path d="M7.87478 23.0325C9.44792 23.6784 11.2363 22.9332 11.8656 21.3766C12.5114 19.82 11.7662 18.015 10.1931 17.3858C8.65307 16.7565 6.86466 17.5017 6.21884 19.0583C5.57303 20.6149 6.3182 22.3867 7.85822 23.0325" fill="#858686"/>
<path d="M2.45986 31.0804C4.033 31.7262 5.82142 30.981 6.45067 29.441C7.09649 27.8844 6.35132 26.0795 4.77818 25.4502C3.23815 24.8209 1.44974 25.5661 0.803928 27.1227C0.158113 28.6793 0.903284 30.4511 2.44331 31.0969" fill="#858686"/>
<path d="M27.0008 49.2295C34.3201 49.2295 41.2419 49.7262 47.4185 50.6039C49.1738 43.235 51.31 39.0123 53.4958 36.0151L49.356 34.5413C49.77 36.6443 49.8362 37.6213 49.3726 38.9792C48.6936 38.3168 48.0478 37.0749 47.5345 35.2037L45.5308 41.8937C46.7562 41.0491 47.7001 40.5027 48.7764 40.4861C46.8721 44.6094 44.471 45.6692 42.931 45.3711C41.0432 45.0234 40.1655 43.3343 40.4636 41.9102C40.8942 39.89 42.9806 39.3601 43.9411 41.7115C45.7957 37.9194 42.6494 36.7437 40.6292 37.8697C43.7424 34.7566 44.0901 32.0077 41.5896 28.6627C38.0956 31.3453 38.0459 33.9948 39.6191 37.7207C37.5823 35.3858 34.3863 36.6443 35.5455 40.4199C37.0193 38.1347 38.9733 39.5753 38.6586 41.7446C38.3937 43.6324 35.9098 45.1558 32.7966 44.8909C28.3422 44.4935 28.0772 41.4134 27.9613 38.8799C29.0542 38.6811 31.0248 39.6913 32.7138 42.0592L33.3265 34.9718C31.505 36.8762 29.8325 37.2405 27.9944 37.2901C28.6071 35.3693 31.4388 32.2395 31.4388 32.2395H22.5795C22.5795 32.2395 25.3946 35.3858 26.0238 37.2901C24.1858 37.2239 22.5133 36.8762 20.6917 34.9718L21.3044 42.0592C22.9935 39.7078 24.9475 38.6811 26.057 38.8799C25.941 41.43 25.6761 44.4935 21.2216 44.8909C18.1085 45.1558 15.6246 43.6324 15.3596 41.7446C15.045 39.5753 16.999 38.1347 18.4728 40.4199C19.6154 36.6443 16.436 35.3858 14.3992 37.7207C15.9723 33.9948 15.9392 31.3453 12.4286 28.6627C9.91158 32.0077 10.2759 34.7566 13.389 37.8697C11.3688 36.7437 8.20597 37.936 10.0772 41.7115C11.0542 39.3601 13.1241 39.89 13.5546 41.9102C13.8527 43.3343 12.9751 45.0234 11.0873 45.3711C9.54727 45.6526 7.14617 44.5928 5.24184 40.4861C6.3182 40.5192 7.26208 41.0491 8.48747 41.8937L6.48379 35.2037C5.97045 37.0749 5.32464 38.3168 4.6457 38.9792C4.18204 37.6213 4.24828 36.6443 4.6457 34.5413L0.505859 36.0151C2.70826 39.0123 4.84441 43.235 6.58315 50.6039C12.7598 49.7262 19.6816 49.2295 26.9843 49.2295" fill="#858686"/>
</svg>
