<svg width="36" height="40" viewBox="0 0 36 40" fill="none" xmlns="http://www.w3.org/2000/svg">
<path d="M17.1689 23.7238C17.1689 22.9325 17.0894 22.2218 16.9709 21.5609H22.6827C23.5319 21.5609 24.2052 20.8734 24.2052 20.0063C24.2052 19.1391 23.5319 18.4517 22.6827 18.4517H16.2221C16.0198 17.5875 15.8695 16.6992 15.8695 15.6504C15.8695 14.353 16.306 13.3139 17.0791 12.5941C17.8578 11.8692 19.0418 11.4096 20.6356 11.4096C21.6158 11.4096 22.3219 11.5443 22.8671 11.6794C23.0056 11.7137 23.1345 11.7483 23.2588 11.7819L23.2961 11.792C23.4058 11.8216 23.5152 11.8512 23.6185 11.877C23.843 11.9332 24.0896 11.9854 24.3376 11.9854C24.7745 11.9854 25.187 11.8509 25.4863 11.5298C25.7803 11.2144 25.8846 10.8052 25.8846 10.4183C25.8846 10.0126 25.7606 9.63908 25.4933 9.32242C25.2411 9.02357 24.8927 8.81247 24.5026 8.64884L24.496 8.64618C23.3132 8.16585 21.9614 8 20.4517 8C17.9776 8 15.9089 8.73833 14.4529 10.1211C12.9919 11.5085 12.2117 13.4847 12.2117 15.8256C12.2117 16.7142 12.3418 17.5988 12.5199 18.4517H10.6941C9.85609 18.4517 9.15936 19.1278 9.15936 20.0063C9.15936 20.8848 9.8561 21.5609 10.6941 21.5609H13.2817C13.4741 22.3806 13.6091 23.1307 13.6091 23.8239C13.6091 26.3603 12.1218 27.9644 10.426 28.4514L10.4107 28.4562C10.0092 28.583 9.6382 28.7792 9.37307 29.1104C9.09963 29.452 9 29.8596 9 30.2827C9 31.2624 9.7223 32 10.6818 32H25.3059C25.7508 32 26.1771 31.8486 26.4978 31.5424C26.8225 31.2322 27 30.7993 27 30.3203C27 29.8368 26.8234 29.4026 26.4917 29.094C26.1667 28.7916 25.7404 28.653 25.3059 28.653H15.4714C16.5394 27.4805 17.1689 25.6842 17.1689 23.7238Z" fill="#1D70B8"/>
</svg>
