<svg width="41" height="40" viewBox="0 0 41 40" fill="none" xmlns="http://www.w3.org/2000/svg">
<path d="M19.7613 23.6879C19.7613 22.9991 19.6905 22.3804 19.5852 21.805H24.6624C25.4173 21.805 26.0157 21.2065 26.0157 20.4517C26.0157 19.6968 25.4173 19.0984 24.6624 19.0984H18.9197C18.7398 18.3461 18.6063 17.5728 18.6063 16.6598C18.6063 15.5304 18.9943 14.6258 19.6814 13.9993C20.3736 13.3682 21.426 12.9681 22.8427 12.9681C23.7141 12.9681 24.3417 13.0854 24.8263 13.203C24.9494 13.2329 25.064 13.263 25.1745 13.2922L25.2077 13.301C25.3052 13.3268 25.4024 13.3526 25.4942 13.375C25.6938 13.4239 25.913 13.4694 26.1334 13.4694C26.5218 13.4694 26.8884 13.3523 27.1545 13.0728C27.4158 12.7982 27.5085 12.442 27.5085 12.1052C27.5085 11.752 27.3983 11.4269 27.1607 11.1512C26.9365 10.891 26.6268 10.7073 26.28 10.5648L26.2742 10.5625C25.2229 10.1444 24.0212 10 22.6793 10C20.4801 10 18.6412 10.6427 17.347 11.8465C16.0484 13.0542 15.3548 14.7746 15.3548 16.8123C15.3548 17.5859 15.4705 18.3559 15.6288 19.0984H14.0059C13.261 19.0984 12.6417 19.6869 12.6417 20.4517C12.6417 21.2164 13.261 21.805 14.0059 21.805H16.3059C16.477 22.5186 16.597 23.1715 16.597 23.775C16.597 25.983 15.2749 27.3794 13.7676 27.8033L13.754 27.8076C13.3971 27.9179 13.0673 28.0887 12.8316 28.377C12.5886 28.6743 12.5 29.0292 12.5 29.3975C12.5 30.2504 13.142 30.8925 13.995 30.8925H26.9941C27.3896 30.8925 27.7686 30.7607 28.0536 30.4941C28.3422 30.2241 28.5 29.8472 28.5 29.4302C28.5 29.0094 28.343 28.6314 28.0482 28.3627C27.7593 28.0994 27.3803 27.9788 26.9941 27.9788H18.2523C19.2017 26.9581 19.7613 25.3944 19.7613 23.6879Z" fill="#1D70B8"/>
</svg>
