<svg width="40" height="40" viewBox="0 0 40 40" fill="none" xmlns="http://www.w3.org/2000/svg">
<rect width="40" height="40" rx="20" fill="#263D54"/>
<path d="M19.3634 22.7929C19.3634 22.1994 19.3025 21.6664 19.2117 21.1707H23.586C24.2364 21.1707 24.752 20.6551 24.752 20.0047C24.752 19.3543 24.2364 18.8387 23.586 18.8387H18.6383C18.4834 18.1906 18.3683 17.5244 18.3683 16.7378C18.3683 15.7648 18.7026 14.9854 19.2946 14.4456C19.8909 13.9019 20.7977 13.5572 22.0182 13.5572C22.769 13.5572 23.3097 13.6582 23.7272 13.7596C23.8333 13.7853 23.932 13.8112 24.0272 13.8364L24.0558 13.844C24.1398 13.8662 24.2235 13.8884 24.3026 13.9078C24.4746 13.9499 24.6635 13.9891 24.8534 13.9891C25.188 13.9891 25.5038 13.8882 25.7331 13.6474C25.9582 13.4108 26.0381 13.1039 26.0381 12.8137C26.0381 12.5094 25.9431 12.2293 25.7385 11.9918C25.5453 11.7677 25.2784 11.6093 24.9797 11.4866L24.9747 11.4846C24.0689 11.1244 23.0336 11 21.8774 11C19.9827 11 18.3984 11.5537 17.2834 12.5908C16.1646 13.6314 15.567 15.1135 15.567 16.8692C15.567 17.5357 15.6667 18.1991 15.8031 18.8387H14.4048C13.763 18.8387 13.2295 19.3458 13.2295 20.0047C13.2295 20.6636 13.763 21.1707 14.4048 21.1707H16.3865C16.5338 21.7854 16.6372 22.348 16.6372 22.8679C16.6372 24.7702 15.4981 25.9733 14.1995 26.3386L14.1878 26.3422C13.8803 26.4372 13.5962 26.5844 13.3931 26.8328C13.1837 27.089 13.1074 27.3947 13.1074 27.712C13.1074 28.4468 13.6606 29 14.3954 29H25.5949C25.9356 29 26.2621 28.8865 26.5077 28.6568C26.7563 28.4242 26.8923 28.0995 26.8923 27.7402C26.8923 27.3776 26.7571 27.052 26.5031 26.8205C26.2542 26.5937 25.9276 26.4898 25.5949 26.4898H18.0634C18.8813 25.6104 19.3634 24.2632 19.3634 22.7929Z" fill="white"/>
</svg>
