<svg width="30" height="40" viewBox="0 0 30 40" fill="none" xmlns="http://www.w3.org/2000/svg">
<path d="M14.2613 23.6879C14.2613 22.9991 14.1905 22.3804 14.0852 21.805H19.1624C19.9173 21.805 20.5157 21.2065 20.5157 20.4517C20.5157 19.6968 19.9173 19.0984 19.1624 19.0984H13.4197C13.2398 18.3461 13.1063 17.5728 13.1063 16.6598C13.1063 15.5304 13.4943 14.6258 14.1814 13.9993C14.8736 13.3682 15.926 12.9681 17.3427 12.9681C18.2141 12.9681 18.8417 13.0854 19.3263 13.203C19.4494 13.2329 19.564 13.263 19.6745 13.2922L19.7077 13.301C19.8052 13.3268 19.9024 13.3526 19.9942 13.375C20.1938 13.4239 20.413 13.4694 20.6334 13.4694C21.0218 13.4694 21.3884 13.3523 21.6545 13.0728C21.9158 12.7982 22.0085 12.442 22.0085 12.1052C22.0085 11.752 21.8983 11.4269 21.6607 11.1512C21.4365 10.891 21.1268 10.7073 20.78 10.5648L20.7742 10.5625C19.7229 10.1444 18.5212 10 17.1793 10C14.9801 10 13.1412 10.6427 11.847 11.8465C10.5484 13.0542 9.85481 14.7746 9.85481 16.8123C9.85481 17.5859 9.97048 18.3559 10.1288 19.0984H8.50586C7.76097 19.0984 7.14165 19.6869 7.14165 20.4517C7.14165 21.2164 7.76097 21.805 8.50586 21.805H10.8059C10.977 22.5186 11.097 23.1715 11.097 23.775C11.097 25.983 9.77489 27.3794 8.26758 27.8033L8.25396 27.8075C7.89706 27.9179 7.56729 28.0887 7.33162 28.377C7.08856 28.6743 7 29.0292 7 29.3975C7 30.2504 7.64204 30.8925 8.49497 30.8925H21.4941C21.8896 30.8925 22.2686 30.7607 22.5536 30.4941C22.8422 30.2241 23 29.8472 23 29.4302C23 29.0094 22.843 28.6314 22.5482 28.3627C22.2593 28.0994 21.8803 27.9788 21.4941 27.9788H12.7523C13.7017 26.9581 14.2613 25.3944 14.2613 23.6879Z" fill="#1D70B8"/>
</svg>
