<svg width="40" height="40" viewBox="0 0 40 40" fill="none" xmlns="http://www.w3.org/2000/svg">
<rect width="40" height="40" rx="20" fill="#1D70B8"/>
<path d="M14.7308 11C15.7646 11 16.7198 11.1963 17.5966 11.5889C18.4799 11.9815 19.1637 12.5245 19.6479 13.2181C19.7395 13.3555 19.7951 13.4537 19.8147 13.5125C19.8409 13.5714 19.854 13.6663 19.854 13.7972V28.313C19.854 28.4373 19.8147 28.5354 19.7362 28.6074C19.6642 28.6859 19.5726 28.7252 19.4614 28.7252C19.3371 28.7252 19.2226 28.6794 19.1179 28.5878C18.7711 28.2868 18.3851 28.0284 17.9598 27.8124C17.5345 27.6031 17.083 27.4395 16.6053 27.3217C16.1277 27.2105 15.6337 27.1549 15.1233 27.1549C14.3055 27.1549 13.5039 27.289 12.7188 27.5573C11.9336 27.8321 11.2302 28.2345 10.6086 28.7645C10.517 28.843 10.4156 28.9019 10.3044 28.9411C10.1997 28.9804 10.0884 29 9.97067 29C9.72857 29 9.53882 28.9346 9.40142 28.8037C9.26401 28.6794 9.19531 28.5027 9.19531 28.2737V14.4253C9.19531 14.2421 9.19858 14.108 9.20513 14.0229C9.21821 13.9313 9.2542 13.8364 9.31309 13.7383C9.64678 13.1559 10.1015 12.6619 10.6773 12.2563C11.2531 11.8506 11.8911 11.5398 12.5912 11.3239C13.2978 11.108 14.011 11 14.7308 11ZM26.2629 11C26.9827 11 27.6926 11.108 28.3927 11.3239C29.0993 11.5398 29.7406 11.8506 30.3164 12.2563C30.8921 12.6619 31.3469 13.1559 31.6806 13.7383C31.7395 13.8299 31.7722 13.9215 31.7787 14.0131C31.7918 14.1047 31.7984 14.2421 31.7984 14.4253V28.2737C31.7984 28.5027 31.7297 28.6794 31.5923 28.8037C31.4549 28.9346 31.2651 29 31.023 29C30.9052 29 30.7907 28.9804 30.6795 28.9411C30.5748 28.9019 30.4767 28.843 30.3851 28.7645C29.7635 28.2345 29.0601 27.8321 28.2749 27.5573C27.4897 27.289 26.6882 27.1549 25.8703 27.1549C25.36 27.1549 24.866 27.2105 24.3883 27.3217C23.9107 27.4395 23.4592 27.6031 23.0339 27.8124C22.6086 28.0284 22.2226 28.2868 21.8758 28.5878C21.7711 28.6794 21.6566 28.7252 21.5323 28.7252C21.421 28.7252 21.3262 28.6859 21.2477 28.6074C21.1757 28.5354 21.1397 28.4373 21.1397 28.313V13.7972C21.1397 13.6663 21.1495 13.5714 21.1691 13.5125C21.1953 13.4537 21.2542 13.3555 21.3458 13.2181C21.83 12.5245 22.5105 11.9815 23.3872 11.5889C24.2706 11.1963 25.2291 11 26.2629 11Z" fill="white"/>
</svg>
