<svg width="40" height="40" viewBox="0 0 40 40" fill="none" xmlns="http://www.w3.org/2000/svg">
<rect width="40" height="40" rx="20" fill="#1D70B8"/>
<path d="M32.272 20.5C32.272 20.8998 32.1065 21.2657 31.7754 21.5978C31.4443 21.9298 30.9983 22.1975 30.4374 22.4008C29.8833 22.6041 29.2651 22.7057 28.5826 22.7057H24.3661C24.0823 22.7057 23.8661 22.7396 23.7174 22.8074C23.5755 22.8683 23.4201 22.9937 23.2512 23.1834L16.3284 30.6341C16.0987 30.878 15.8351 31 15.5378 31H14.1593C14.0242 31 13.9228 30.9492 13.8553 30.8475C13.7945 30.7459 13.7978 30.6239 13.8654 30.4816L17.4535 22.7159L12.2234 22.1263L10.3584 25.4298C10.2165 25.667 9.9834 25.7856 9.65906 25.7856H9.19281C9.05767 25.7856 8.94617 25.7449 8.85833 25.6636C8.77048 25.5755 8.72656 25.4637 8.72656 25.3282V15.6718C8.72656 15.5295 8.77048 15.4177 8.85833 15.3364C8.94617 15.2483 9.05767 15.2043 9.19281 15.2043H9.65906C9.9834 15.2043 10.2165 15.3262 10.3584 15.5702L12.2234 18.8737L17.4535 18.2841L13.8654 10.5184C13.7978 10.3761 13.7945 10.2541 13.8553 10.1525C13.9228 10.0508 14.0242 10 14.1593 10H15.5378C15.8351 10 16.0987 10.122 16.3284 10.3659L23.2512 17.8064C23.4201 17.9961 23.5755 18.1249 23.7174 18.1926C23.8661 18.2604 24.0823 18.2943 24.3661 18.2943H28.5826C29.2651 18.2943 29.8833 18.3959 30.4374 18.5992C30.9983 18.7957 31.4443 19.0634 31.7754 19.4022C32.1065 19.7343 32.272 20.1002 32.272 20.5Z" fill="white"/>
</svg>
