<svg width="40" height="40" viewBox="0 0 40 40" fill="none" xmlns="http://www.w3.org/2000/svg">
<rect width="40" height="40" rx="20" fill="#1D70B8"/>
<path d="M19.3653 22.7929C19.3653 22.1994 19.3044 21.6664 19.2137 21.1707H23.588C24.2383 21.1707 24.7539 20.6551 24.7539 20.0047C24.7539 19.3543 24.2383 18.8387 23.588 18.8387H18.6403C18.4853 18.1906 18.3703 17.5244 18.3703 16.7378C18.3703 15.7648 18.7045 14.9854 19.2966 14.4456C19.8929 13.9019 20.7996 13.5572 22.0202 13.5572C22.7709 13.5572 23.3116 13.6582 23.7292 13.7596C23.8352 13.7853 23.9339 13.8112 24.0292 13.8364L24.0577 13.844C24.1417 13.8662 24.2255 13.8884 24.3046 13.9078C24.4766 13.9499 24.6654 13.9891 24.8553 13.9891C25.1899 13.9891 25.5058 13.8882 25.735 13.6474C25.9602 13.4108 26.04 13.1039 26.04 12.8137C26.04 12.5094 25.9451 12.2293 25.7404 11.9918C25.5472 11.7677 25.2804 11.6093 24.9816 11.4866L24.9766 11.4846C24.0708 11.1244 23.0356 11 21.8794 11C19.9847 11 18.4004 11.5537 17.2853 12.5908C16.1665 13.6314 15.569 15.1135 15.569 16.8692C15.569 17.5357 15.6686 18.1991 15.805 18.8387H14.4068C13.765 18.8387 13.2314 19.3458 13.2314 20.0047C13.2314 20.6636 13.765 21.1707 14.4068 21.1707H16.3884C16.5358 21.7854 16.6392 22.348 16.6392 22.8679C16.6392 24.7702 15.5001 25.9733 14.2015 26.3386L14.1897 26.3422C13.8822 26.4372 13.5981 26.5844 13.3951 26.8328C13.1857 27.089 13.1094 27.3947 13.1094 27.712C13.1094 28.4468 13.6625 29 14.3974 29H25.5969C25.9376 29 26.2641 28.8865 26.5096 28.6568C26.7583 28.4242 26.8943 28.0995 26.8943 27.7402C26.8943 27.3776 26.759 27.052 26.505 26.8205C26.2561 26.5937 25.9296 26.4898 25.5969 26.4898H18.0653C18.8833 25.6104 19.3653 24.2632 19.3653 22.7929Z" fill="white"/>
</svg>
