<svg width="40" height="40" viewBox="0 0 40 40" fill="none" xmlns="http://www.w3.org/2000/svg">
<rect width="40" height="40" rx="20" fill="#263D54"/>
<path d="M8.99219 22.7091C8.99219 23.9827 9.86701 24.8353 11.1516 24.8353H16.1569V29.8517C16.1569 31.1363 17.0095 32 18.283 32H22.7124C23.986 32 24.8386 31.1363 24.8386 29.8517V24.8353H29.8549C31.1395 24.8353 32.0033 23.9827 32.0033 22.7091V18.2797C32.0033 17.0063 31.1395 16.1536 29.8549 16.1536H24.8386V11.1483C24.8386 9.86375 23.986 9 22.7124 9H18.283C17.0095 9 16.1569 9.86375 16.1569 11.1483V16.1536H11.1405C9.85593 16.1536 8.99219 17.0063 8.99219 18.2797V22.7091Z" fill="white"/>
</svg>
