<?xml version="1.0" encoding="UTF-8"?>
<svg id="Layer_1" xmlns="http://www.w3.org/2000/svg" version="1.1" viewBox="0 0 500 540">
  <!-- Generator: Adobe Illustrator 29.0.0, SVG Export Plug-In . SVG Version: 2.1.0 Build 186)  -->
  <defs>
    <style>
      .st0 {
        fill: none;
      }

      .st1 {
        fill-rule: evenodd;
      }

      .st1, .st2 {
        fill: #fff;
      }

      .st3 {
        fill: #11875a;
      }

      .st4 {
        fill: #d1d1d1;
      }

      .st5 {
        fill: #259aff;
      }
    </style>
  </defs>
  <g id="Layer_11">
    <g id="Outlined_-_dark_mode">
      <g>
        <circle class="st5" cx="250" cy="262" r="244.9"/>
        <rect class="st2" x="39" y="33.9" width="203.6" height="266.5" rx="3.9" ry="3.9"/>
        <rect class="st2" x="39" y="33.9" width="203.6" height="266.5" rx="3.9" ry="3.9"/>
        <path class="st4" d="M238.7,302.5H43c-3.3,0-5.9-2.7-5.9-5.9V37.9c0-3.3,2.7-5.9,5.9-5.9h195.7c3.3,0,5.9,2.7,5.9,5.9v258.7c0,3.3-2.7,5.9-5.9,5.9ZM43,35.9c-1.1,0-1.9.9-1.9,1.9v258.7c0,1.1.9,1.9,1.9,1.9h195.7c1.1,0,1.9-.9,1.9-1.9V37.9c0-1.1-.9-1.9-1.9-1.9H43Z"/>
        <rect class="st4" x="39" y="33.9" width="203.6" height="60.5"/>
        <g>
          <rect class="st4" x="110.8" y="127.3" width="100.8" height="10"/>
          <rect class="st4" x="110.8" y="150.5" width="79.2" height="10"/>
        </g>
        <g>
          <rect class="st4" x="110.8" y="214.5" width="100.8" height="10"/>
          <rect class="st4" x="110.8" y="237.8" width="51.4" height="10"/>
        </g>
        <rect class="st2" x="144.5" y="144.1" width="203.6" height="266.5" rx="3.9" ry="3.9"/>
        <rect class="st2" x="144.5" y="144.1" width="203.6" height="266.5" rx="3.9" ry="3.9"/>
        <path class="st4" d="M344.2,142.1h-195.7c-3.3,0-5.9,2.7-5.9,5.9v258.7c0,3.3,2.7,5.9,5.9,5.9h195.7c3.3,0,5.9-2.7,5.9-5.9V148.1c0-3.3-2.7-5.9-5.9-5.9h0ZM346.1,406.8c0,1.1-.9,1.9-1.9,1.9h-195.7c-1.1,0-1.9-.9-1.9-1.9v-202.1h199.6v202.1h-.1ZM317.1,249.4h-141.6v-10h141.6v10ZM317.1,272.7h-141.6v-10h141.6v10ZM317.1,319.3h-141.6v-10h141.6v10ZM317.1,342.6h-141.6v-10h141.6v10ZM247.7,365.9h-72.2v-10h72.2v10Z"/>
        <rect class="st2" x="250" y="254.4" width="203.6" height="266.5" rx="3.9" ry="3.9"/>
        <rect class="st4" x="281" y="349.6" width="141.6" height="10"/>
        <g>
          <line class="st0" x1="281" y1="377.9" x2="422.6" y2="377.9"/>
          <rect class="st4" x="281" y="372.9" width="141.6" height="10"/>
        </g>
        <rect class="st4" x="281" y="396.2" width="72.2" height="10"/>
        <rect class="st3" x="281" y="439.9" width="54" height="18.2"/>
        <path class="st2" d="M431.1,224.9v13c0,1.1-.9,2-2,2s-2-.9-2-2v-13c0-22.8-18.5-41.3-41.3-41.3h-8.1l6.6,6.6c.8.8.8,2,0,2.8-.4.4-.9.6-1.4.6s-1-.2-1.4-.6l-10-10h0l-1.4-1.4,1.4-1.4h0l10-10c.8-.8,2-.8,2.8,0s.8,2,0,2.8l-6.6,6.6h8.1c25,0,45.3,20.3,45.3,45.3h0ZM280,71.1h-8.1l6.6-6.6c.8-.8.8-2,0-2.8s-2-.8-2.8,0l-10,10h0l-1.4,1.4,1.4,1.4h0l10,10c.4.4.9.6,1.4.6s1-.2,1.4-.6c.8-.8.8-2,0-2.8l-6.6-6.6h8.1c22.8,0,41.3,18.5,41.3,41.3v13c0,1.1.9,2,2,2s2-.9,2-2v-13c0-25-20.3-45.3-45.3-45.3Z"/>
        <path d="M449.6,252.4h-195.7c-3.3,0-5.9,2.7-5.9,5.9v258.7c0,3.3,2.7,5.9,5.9,5.9h195.7c3.3,0,5.9-2.7,5.9-5.9v-258.7c0-3.3-2.7-5.9-5.9-5.9h0ZM449.6,518.9h-195.7c-1.1,0-1.9-.9-1.9-1.9v-202.1h199.6v202.1c0,1.1-.9,1.9-1.9,1.9h-.1Z"/>
        <path class="st1" d="M289.9,271.1l2.5,1.3v-3.6l-2.5.8s-.2-.2-.2-.3l1-3.1h-3.6l1,3.1s-.2.2-.2.3l-2.5-.8v3.6l2.5-1.3c0,.1.2.2.3.3l-1.5,4.3h0c0,.2-.1.5-.1.7,0,1.1.9,2.1,2,2.3h.6c1.1-.2,2-1.1,2-2.3s0-.5-.1-.7h0l-1.5-4.3s.2-.1.2-.2h.1ZM296,277.1c-1,.4-2.2,0-2.6-1.1-.4-1,0-2.1,1.1-2.5,1-.4,2.2,0,2.6,1.1.4,1,0,2.1-1.1,2.5h0ZM289.6,284.2c-1,.4-2.2,0-2.6-1.1-.4-1,0-2.1,1.1-2.5,1-.4,2.2,0,2.6,1.1.4,1,0,2.1-1.1,2.5h0ZM298.7,279.2c.4,1,1.6,1.5,2.6,1.1h0c1-.4,1.5-1.5,1.1-2.5s-1.6-1.5-2.6-1.1-1.5,1.6-1.1,2.5ZM304.9,285.4c-1,.4-2.2,0-2.6-1s0-2.1,1.1-2.5c1-.4,2.2,0,2.6,1.1.4,1,0,2.1-1.1,2.5h0ZM281.7,277.1c1,.4,2.2,0,2.6-1.1.4-1,0-2.1-1.1-2.5-1-.4-2.2,0-2.6,1.1-.4,1,0,2.1,1.1,2.5h0ZM278.9,279.2c-.4,1-1.6,1.5-2.6,1.1h0c-1-.4-1.5-1.5-1.1-2.5s1.6-1.5,2.6-1.1,1.5,1.6,1.1,2.5ZM272.8,285.4c1,.4,2.2,0,2.6-1s0-2.1-1.1-2.5c-1-.4-2.2,0-2.6,1.1-.4,1,0,2.1,1.1,2.5h0ZM302.2,297.8c-4-.6-8.6-.9-13.4-.9h0c-4.8,0-9.3.3-13.3.9-1.1-4.7-2.5-7.4-4-9.3l2.7-.9c-.3,1.3-.3,2,0,2.8.4-.4.9-1.2,1.2-2.4l1.3,4.3c-.8-.5-1.4-.9-2.1-.9,1.2,2.6,2.8,3.3,3.8,3.1,1.2-.2,1.8-1.3,1.6-2.2-.3-1.3-1.6-1.6-2.3-.1-1.2-2.4.8-3.2,2.2-2.4-2-2-2.3-3.7-.6-5.9,2.3,1.7,2.3,3.4,1.3,5.8,1.3-1.5,3.4-.7,2.7,1.7-1-1.5-2.2-.5-2,.8.2,1.2,1.8,2.2,3.8,2,2.9-.3,3.1-2.2,3.2-3.8-.7-.1-2,.5-3.1,2l-.4-4.5c1.2,1.2,2.3,1.4,3.5,1.5-.4-1.2-2.3-3.2-2.3-3.2h5.8s-1.9,2-2.3,3.2c1.2,0,2.3-.3,3.5-1.5l-.4,4.5c-1.1-1.5-2.4-2.2-3.1-2,0,1.6.2,3.6,3.2,3.8,2,.2,3.7-.8,3.8-2,.2-1.4-1.1-2.3-2-.8-.8-2.4,1.3-3.2,2.7-1.7-1-2.4-1-4.1,1.3-5.8,1.6,2.1,1.4,3.9-.6,5.9,1.3-.7,3.4,0,2.2,2.4-.6-1.5-2-1.2-2.3.1-.2.9.4,2,1.6,2.2,1,.2,2.6-.5,3.8-3.1-.7,0-1.3.4-2.1.9l1.3-4.3c.3,1.2.8,2,1.2,2.4.3-.9.3-1.5,0-2.8l2.7.9c-1.4,1.9-2.8,4.6-4,9.3h-.1Z"/>
      </g>
    </g>
  </g>
</svg>