<?xml version="1.0" encoding="UTF-8"?>
<svg id="Layer_1" xmlns="http://www.w3.org/2000/svg" version="1.1" viewBox="0 0 225 225">
  <!-- Generator: Adobe Illustrator 29.0.0, SVG Export Plug-In . SVG Version: 2.1.0 Build 186)  -->
  <defs>
    <style>
      .st0 {
        fill: none;
      }

      .st1 {
        fill-rule: evenodd;
      }

      .st1, .st2 {
        fill: #fff;
      }

      .st3 {
        display: none;
        fill: #259aff;
      }

      .st4 {
        fill: #1d70b8;
      }

      .st5 {
        fill: #11875a;
      }

      .st6 {
        fill: #d1d1d1;
      }
    </style>
  </defs>
  <circle class="st4" cx="113.6" cy="112.6" r="102.4"/>
  <g>
    <circle class="st3" cx="112.5" cy="109.1" r="103.9"/>
    <rect class="st2" x="23" y="12.3" width="86.4" height="113.1" rx="1.7" ry="1.7"/>
    <rect class="st2" x="23" y="12.3" width="86.4" height="113.1" rx="1.7" ry="1.7"/>
    <path class="st6" d="M107.7,126.3H24.6c-1.4,0-2.5-1.1-2.5-2.5V14c0-1.4,1.1-2.5,2.5-2.5h83.1c1.4,0,2.5,1.1,2.5,2.5v109.8c0,1.4-1.1,2.5-2.5,2.5ZM24.6,13.1c-.5,0-.8.4-.8.8v109.8c0,.5.4.8.8.8h83.1c.5,0,.8-.4.8-.8V14c0-.5-.4-.8-.8-.8H24.6Z"/>
    <rect class="st6" x="23" y="12.3" width="86.4" height="25.7"/>
    <g>
      <rect class="st6" x="53.4" y="51.9" width="42.8" height="4.2"/>
      <rect class="st6" x="53.4" y="61.8" width="33.6" height="4.2"/>
    </g>
    <g>
      <rect class="st6" x="53.4" y="88.9" width="42.8" height="4.2"/>
      <rect class="st6" x="53.4" y="98.8" width="21.8" height="4.2"/>
    </g>
    <rect class="st2" x="67.7" y="59.1" width="86.4" height="113.1" rx="1.7" ry="1.7"/>
    <rect class="st2" x="67.7" y="59.1" width="86.4" height="113.1" rx="1.7" ry="1.7"/>
    <path class="st6" d="M152.5,58.2h-83.1c-1.4,0-2.5,1.1-2.5,2.5v109.8c0,1.4,1.1,2.5,2.5,2.5h83.1c1.4,0,2.5-1.1,2.5-2.5V60.8c0-1.4-1.1-2.5-2.5-2.5h0ZM153.3,170.6c0,.5-.4.8-.8.8h-83.1c-.5,0-.8-.4-.8-.8v-85.8h84.7v85.8h0ZM141,103.8h-60.1v-4.2h60.1v4.2ZM141,113.6h-60.1v-4.2h60.1v4.2ZM141,133.4h-60.1v-4.2h60.1v4.2ZM141,143.3h-60.1v-4.2h60.1v4.2ZM111.5,153.2h-30.6v-4.2h30.6v4.2Z"/>
    <rect class="st2" x="112.5" y="105.9" width="86.4" height="113.1" rx="1.7" ry="1.7"/>
    <rect class="st6" x="125.7" y="146.3" width="60.1" height="4.2"/>
    <g>
      <line class="st0" x1="125.7" y1="158.3" x2="185.8" y2="158.3"/>
      <rect class="st6" x="125.7" y="156.2" width="60.1" height="4.2"/>
    </g>
    <rect class="st6" x="125.7" y="166.1" width="30.6" height="4.2"/>
    <rect class="st5" x="125.7" y="184.6" width="22.9" height="7.7"/>
    <path class="st2" d="M189.4,93.4v5.5c0,.5-.4.8-.8.8s-.8-.4-.8-.8v-5.5c0-9.7-7.9-17.5-17.5-17.5h-3.4l2.8,2.8c.3.3.3.8,0,1.2-.2.2-.4.3-.6.3s-.4,0-.6-.3l-4.2-4.2h0l-.6-.6.6-.6h0l4.2-4.2c.3-.3.8-.3,1.2,0s.3.8,0,1.2l-2.8,2.8h3.4c10.6,0,19.2,8.6,19.2,19.2h0ZM125.2,28.1h-3.4l2.8-2.8c.3-.3.3-.8,0-1.2s-.8-.3-1.2,0l-4.2,4.2h0l-.6.6.6.6h0l4.2,4.2c.2.2.4.3.6.3s.4,0,.6-.3c.3-.3.3-.8,0-1.2l-2.8-2.8h3.4c9.7,0,17.5,7.9,17.5,17.5v5.5c0,.5.4.8.8.8s.8-.4.8-.8v-5.5c0-10.6-8.6-19.2-19.2-19.2h0Z"/>
    <path d="M197.2,105h-83.1c-1.4,0-2.5,1.1-2.5,2.5v109.8c0,1.4,1.1,2.5,2.5,2.5h83.1c1.4,0,2.5-1.1,2.5-2.5v-109.8c0-1.4-1.1-2.5-2.5-2.5h0ZM197.2,218.1h-83.1c-.5,0-.8-.4-.8-.8v-85.8h84.7v85.8c0,.5-.4.8-.8.8h0Z"/>
    <path class="st1" d="M129.4,113l1.1.6v-1.5l-1.1.3h0c0,0,.4-1.4.4-1.4h-1.5l.4,1.3h0c0,0-1.1-.2-1.1-.2v1.5l1.1-.6h.1c0,0-.6,1.9-.6,1.9h0v.3c0,.5.4.9.8,1h.3c.5,0,.8-.5.8-1s0-.2,0-.3h0l-.6-1.8h0ZM132,115.5c-.4.2-.9,0-1.1-.5-.2-.4,0-.9.5-1.1.4-.2.9,0,1.1.5.2.4,0,.9-.5,1.1h0ZM129.3,118.5c-.4.2-.9,0-1.1-.5-.2-.4,0-.9.5-1.1.4-.2.9,0,1.1.5.2.4,0,.9-.5,1.1h0ZM133.2,116.4c.2.4.7.6,1.1.5h0c.4-.2.6-.6.5-1.1s-.7-.6-1.1-.5-.6.7-.5,1.1ZM135.8,119c-.4.2-.9,0-1.1-.4s0-.9.5-1.1c.4-.2.9,0,1.1.5.2.4,0,.9-.5,1.1h0ZM126,115.5c.4.2.9,0,1.1-.5.2-.4,0-.9-.5-1.1-.4-.2-.9,0-1.1.5-.2.4,0,.9.5,1.1h0ZM124.8,116.4c-.2.4-.7.6-1.1.5h0c-.4-.2-.6-.6-.5-1.1s.7-.6,1.1-.5.6.7.5,1.1ZM122.2,119c.4.2.9,0,1.1-.4s0-.9-.5-1.1c-.4-.2-.9,0-1.1.5-.2.4,0,.9.5,1.1h0ZM134.7,124.3c-1.7-.3-3.6-.4-5.7-.4h0c-2,0-3.9,0-5.6.4-.5-2-1.1-3.1-1.7-3.9l1.1-.4c0,.6,0,.8,0,1.2.2-.2.4-.5.5-1l.6,1.8c-.3-.2-.6-.4-.9-.4.5,1.1,1.2,1.4,1.6,1.3.5,0,.8-.6.7-.9,0-.6-.7-.7-1,0-.5-1,.3-1.4.9-1-.8-.8-1-1.6-.3-2.5,1,.7,1,1.4.6,2.5.6-.6,1.4-.3,1.1.7-.4-.6-.9-.2-.8.3,0,.5.8.9,1.6.8,1.2,0,1.3-.9,1.4-1.6-.3,0-.8.2-1.3.8l-.2-1.9c.5.5,1,.6,1.5.6-.2-.5-1-1.4-1-1.4h2.5s-.8.8-1,1.4c.5,0,1,0,1.5-.6l-.2,1.9c-.5-.6-1-.9-1.3-.8,0,.7,0,1.5,1.4,1.6.8,0,1.6-.3,1.6-.8s-.5-1-.8-.3c-.3-1,.6-1.4,1.1-.7-.4-1-.4-1.7.6-2.5.7.9.6,1.7-.3,2.5.6-.3,1.4,0,.9,1-.3-.6-.8-.5-1,0,0,.4.2.8.7.9.4,0,1.1-.2,1.6-1.3-.3,0-.6.2-.9.4l.6-1.8c.1.5.3.8.5,1,.1-.4.1-.6,0-1.2l1.1.4c-.6.8-1.2,2-1.7,3.9h0Z"/>
  </g>
</svg>