<svg width="25" height="22" viewBox="0 0 25 22" fill="none" xmlns="http://www.w3.org/2000/svg">
<path d="M13.1571 0.797857C18.5218 0.803642 22.8716 5.14831 22.8661 10.5088C22.8599 15.9059 18.4016 20.2787 12.9989 20.1982C11.4635 20.1753 10.0124 19.7962 8.72645 19.1397C8.52566 19.0372 8.28925 19.0426 8.09656 19.1504C6.64785 19.9615 4.82447 20.1946 3.20203 20.1113V20.1123C3.19853 20.1122 3.19471 20.1115 3.19129 20.1113H3.18934V20.1104C3.14914 20.1083 3.11575 20.1051 3.11024 20.1045L3.10145 20.1035C2.06026 19.9719 1.8131 18.6576 2.59559 18.0928L2.77332 17.957C3.63861 17.2546 4.19615 16.1949 4.22254 15.0059V14.9951L4.22352 14.9844C4.23099 14.8321 4.22485 14.6781 4.20399 14.5215V14.5205C4.18348 14.3644 4.14725 14.202 4.09363 14.0322C4.00023 13.7936 3.91548 13.5506 3.8407 13.3027L3.76551 13.04C3.54322 12.2218 3.42516 11.3607 3.42762 10.4736C3.44059 5.10423 7.78082 0.792139 13.1571 0.797857ZM9.82703 11.0928C9.38521 11.0928 9.02723 11.4508 9.02723 11.8926C9.02723 12.3344 9.3852 12.6924 9.82703 12.6924H13.9286L14.0096 12.6885C14.4132 12.6477 14.7284 12.3069 14.7284 11.8926C14.7284 11.4783 14.4132 11.1375 14.0096 11.0967L13.9286 11.0928H9.82703ZM9.82703 8.30079C9.38521 8.30079 9.02723 8.65877 9.02723 9.10059C9.02723 9.54242 9.3852 9.9004 9.82703 9.9004H16.6337L16.7147 9.89649C17.1183 9.85568 17.4335 9.51492 17.4335 9.10059C17.4335 8.68626 17.1183 8.3455 16.7147 8.30469L16.6337 8.30079H9.82703Z" fill="#1D70B8"/>
</svg>
