<svg width="40" height="40" viewBox="0 0 40 40" fill="none" xmlns="http://www.w3.org/2000/svg">
<rect width="40" height="40" rx="20" fill="#D2E2F1"/>
<path d="M12.8652 18.6895C10.4727 18.6895 8.49023 16.707 8.49023 14.3047C8.49023 11.9121 10.4629 9.92969 12.8652 9.92969C15.2578 9.92969 17.2402 11.9121 17.2402 14.3047C17.2402 16.707 15.2578 18.6895 12.8652 18.6895ZM12.3477 16.668C12.5723 16.668 12.7773 16.5605 12.9043 16.3555L15.0137 13.1133C15.1113 12.9473 15.1504 12.8301 15.1504 12.6934C15.1504 12.3906 14.8867 12.1562 14.5742 12.1562C14.3691 12.1562 14.1934 12.2637 14.0664 12.4688L12.3281 15.252L11.5859 14.334C11.4395 14.168 11.3125 14.0801 11.1074 14.0801C10.8047 14.0801 10.5508 14.334 10.5508 14.6562C10.5508 14.8223 10.5996 14.9297 10.707 15.0664L11.8008 16.375C11.9473 16.5508 12.123 16.668 12.3477 16.668ZM20.5215 15.3496C19.9551 15.3496 19.5059 14.8711 19.5059 14.3145C19.5059 13.748 19.9551 13.2793 20.5215 13.2793H30.248C30.8242 13.2793 31.2734 13.7383 31.2734 14.3145C31.2734 14.8809 30.8145 15.3496 30.248 15.3496H20.5215ZM12.8652 29.998C10.4727 29.998 8.49023 28.0156 8.49023 25.623C8.49023 23.2207 10.4629 21.248 12.8652 21.248C15.2578 21.248 17.2402 23.2207 17.2402 25.623C17.2402 28.0156 15.2578 29.998 12.8652 29.998ZM12.3477 27.9863C12.5723 27.9863 12.7773 27.8691 12.9043 27.6738L15.0137 24.4219C15.1113 24.2656 15.1504 24.1387 15.1504 24.002C15.1504 23.709 14.8867 23.4746 14.5742 23.4746C14.3691 23.4746 14.1934 23.5723 14.0664 23.7871L12.3281 26.5605L11.5859 25.6523C11.4395 25.4766 11.3125 25.3984 11.1074 25.3984C10.8047 25.3984 10.5508 25.6426 10.5508 25.9648C10.5508 26.1309 10.5996 26.248 10.707 26.3848L11.8008 27.6934C11.9473 27.8691 12.123 27.9863 12.3477 27.9863ZM20.5215 26.6582C19.9551 26.6582 19.5059 26.1797 19.5059 25.623C19.5059 25.0566 19.9551 24.5879 20.5215 24.5879H30.248C30.8242 24.5879 31.2734 25.0469 31.2734 25.623C31.2734 26.1797 30.8145 26.6582 30.248 26.6582H20.5215Z" fill="#1D70B8"/>
</svg>
