<svg width="40" height="40" viewBox="0 0 40 40" fill="none" xmlns="http://www.w3.org/2000/svg">
<rect width="40" height="40" rx="20" fill="#1D70B8"/>
<path d="M18.6332 22.1666C18.0192 22.1666 17.6595 21.8246 17.6595 21.2105V20.5C15.0806 20.3246 12.5104 19.7982 9.84375 18.7895V17.3421C13.1244 18.7807 16.4139 19.2895 19.9928 19.2895C23.5806 19.2895 26.8701 18.7807 30.1507 17.3421V18.7895C27.4841 19.7982 24.9139 20.3246 22.3349 20.5V21.2105C22.3349 21.8246 21.9754 22.1666 21.3613 22.1666H18.6332ZM12.5543 28H27.4402C29.256 28 30.1507 27.1228 30.1507 25.3246V16.7895C30.1507 14.9912 29.256 14.114 27.4402 14.114H12.5543C10.7473 14.114 9.84375 14.9912 9.84375 16.7895V25.3246C9.84375 27.1228 10.7473 28 12.5543 28ZM15.5455 14.8772H16.9051V13.3246C16.9051 12.6579 17.2999 12.2807 17.9841 12.2807H22.0104C22.6946 12.2807 23.0806 12.6579 23.0806 13.3246V14.8596H24.4402V13.421C24.4402 11.7719 23.5718 11 21.9841 11H18.0016C16.5016 11 15.5455 11.7719 15.5455 13.421V14.8772Z" fill="white"/>
</svg>
