<?xml version="1.0" encoding="UTF-8"?>
<svg id="Layer_1" xmlns="http://www.w3.org/2000/svg" xmlns:xlink="http://www.w3.org/1999/xlink" version="1.1" viewBox="0 0 225 225">
  <!-- Generator: Adobe Illustrator 29.0.0, SVG Export Plug-In . SVG Version: 2.1.0 Build 186)  -->
  <defs>
    <style>
      .st0 {
        fill: none;
      }

      .st1 {
        fill-rule: evenodd;
      }

      .st1, .st2 {
        fill: #fff;
      }

      .st3 {
        fill: #1d70b8;
      }

      .st4 {
        fill: #11875a;
      }

      .st5 {
        fill: #d1d1d1;
      }

      .st6 {
        clip-path: url(#clippath);
      }
    </style>
    <clipPath id="clippath">
      <circle class="st0" cx="112.5" cy="112.5" r="102.7"/>
    </clipPath>
  </defs>
  <g id="Outlined_-_light_mode">
    <g>
      <g>
        <circle class="st3" cx="112.5" cy="112.5" r="102.7"/>
        <g class="st6">
          <rect class="st2" x="1.5" y="111.7" width="228.2" height="1.7"/>
        </g>
      </g>
      <g>
        <rect x="33.7" y="26.3" width="81.4" height="168.2" rx="11.7" ry="11.7"/>
        <path class="st2" d="M44.9,29.1h59c4.7,0,8.5,3.8,8.5,8.5v140.1c0,4.7-3.8,8.5-8.5,8.5h-59c-4.7,0-8.5-3.8-8.5-8.5V37.6c0-4.7,3.8-8.5,8.5-8.5h0Z"/>
        <g>
          <rect x="113.5" y="64" width="2.7" height="7.8" rx="1.3" ry="1.3"/>
          <rect x="113.5" y="52.4" width="2.7" height="11.3" rx="1.3" ry="1.3"/>
        </g>
        <path class="st2" d="M78.3,189.8c0,.8-.6,1.4-1.4,1.4h-5c-.8,0-1.4-.6-1.4-1.4s.6-1.4,1.4-1.4h5c.8,0,1.4.6,1.4,1.4Z"/>
        <path d="M36,52.8v-15.3c0-4.9,4-8.9,8.9-8.9h59c4.9,0,8.9,4,8.9,8.9v15.3H36Z"/>
        <path d="M112.4,37.6v14.8H36.4v-14.8c0-4.7,3.8-8.5,8.5-8.5h59c4.7,0,8.5,3.8,8.5,8.5h0Z"/>
        <path class="st1" d="M49,37l.9.5v-1.3l-.9.3s0,0,0,0l.4-1.1h-1.3l.4,1.1h0c0,0-.9-.2-.9-.2v1.3l.9-.5s0,0,0,0l-.5,1.5h0v.3c0,.4.3.8.7.8h.2c.4,0,.7-.4.7-.8s0-.2,0-.3h0l-.5-1.5h0c0,0,0,0,0,0h0ZM51.1,39.1c-.4.1-.8,0-.9-.4-.2-.3,0-.8.4-.9.3-.1.8,0,.9.4.2.3,0,.8-.4.9h0ZM48.9,41.6c-.4.1-.8,0-.9-.4-.2-.3,0-.8.4-.9.3-.1.8,0,.9.4.2.3,0,.8-.4.9h0ZM52.1,39.8c.1.3.5.5.9.4h0c.3-.1.5-.5.4-.9-.2-.3-.5-.5-.9-.4-.4.1-.5.5-.4.9ZM54.3,42c-.4.1-.8,0-.9-.4-.2-.3,0-.8.4-.9.3-.1.8,0,.9.4.2.3,0,.8-.4.9h0ZM46.1,39.1c.4.1.8,0,.9-.4.2-.3,0-.8-.4-.9-.3-.1-.8,0-.9.4-.2.3,0,.8.4.9h0ZM45.1,39.8c-.1.3-.5.5-.9.4h0c-.3-.1-.5-.5-.4-.9.2-.3.5-.5.9-.4.4.1.5.5.4.9ZM43,42c.4.1.8,0,.9-.4.2-.3,0-.8-.4-.9-.3-.1-.8,0-.9.4-.2.3,0,.8.4.9h0ZM53.4,46.4c-1.4-.2-3-.3-4.7-.3h0c-1.7,0-3.3.1-4.7.3-.4-1.6-.9-2.6-1.4-3.3l1-.3c0,.5-.1.7,0,1,.2-.2.3-.4.4-.8l.5,1.5c-.3-.2-.5-.3-.8-.3.4.9,1,1.2,1.3,1.1.4,0,.6-.5.6-.8,0-.5-.6-.6-.8,0-.4-.8.3-1.1.8-.9-.7-.7-.8-1.3-.2-2.1.8.6.8,1.2.5,2.1.5-.5,1.2-.3.9.6-.3-.5-.8-.2-.7.3,0,.4.6.8,1.3.7,1,0,1.1-.8,1.1-1.3-.3,0-.7.2-1.1.7v-1.6c.3.4.7.5,1.1.5-.1-.4-.8-1.1-.8-1.1h2.1s-.7.7-.8,1.1c.4,0,.8,0,1.2-.5v1.6c-.5-.5-1-.8-1.2-.7,0,.6,0,1.3,1.1,1.3.7,0,1.3-.3,1.3-.7,0-.5-.4-.8-.7-.3-.3-.8.5-1.1.9-.6-.4-.8-.3-1.4.5-2.1.6.8.5,1.4-.2,2.1.5-.3,1.2,0,.8.9-.2-.5-.7-.4-.8,0,0,.3.1.7.6.8.3,0,.9-.2,1.3-1.1-.3,0-.5.1-.8.3l.5-1.5c.1.4.3.7.4.8.1-.3,0-.5,0-1l1,.3c-.5.7-1,1.6-1.4,3.3h-.1,0Z"/>
        <rect class="st5" x="42.5" y="61.2" width="63.5" height="69.8" rx="2.7" ry="2.7"/>
        <rect class="st5" x="42.5" y="136.9" width="63.5" height="40.5" rx="2.7" ry="2.7"/>
      </g>
      <circle class="st4" cx="160.7" cy="53.9" r="34.8"/>
      <path d="M196.3,53.9c0-19.7-16-35.6-35.6-35.6s-35.6,16-35.6,35.6,15.5,35.2,34.8,35.6v22.2h1.7v-22.2c19.2-.5,34.8-16.2,34.8-35.6h0ZM161.5,87.8v-4l13.2-13.2c.3-.3.3-.8,0-1.2s-.8-.3-1.2,0l-12.1,12.1v-27.5c0-.5-.4-.8-.8-.8s-.8.4-.8.8v14l-12.1-12.1c-.3-.3-.8-.3-1.2,0s-.3.8,0,1.2l13.2,13.2v17.5c-18.3-.5-33.1-15.5-33.1-33.9s15.2-34,34-34,34,15.2,34,34-14.8,33.5-33.1,33.9h0Z"/>
    </g>
  </g>
</svg>