<?xml version="1.0" encoding="UTF-8"?>
<svg id="Layer_1" xmlns="http://www.w3.org/2000/svg" xmlns:xlink="http://www.w3.org/1999/xlink" version="1.1" viewBox="0 0 500 540">
  <!-- Generator: Adobe Illustrator 29.0.0, SVG Export Plug-In . SVG Version: 2.1.0 Build 186)  -->
  <defs>
    <style>
      .st0 {
        fill: none;
      }

      .st1 {
        fill-rule: evenodd;
      }

      .st1, .st2 {
        fill: #fff;
      }

      .st3 {
        fill: #1d70b8;
      }

      .st4 {
        fill: #11875a;
      }

      .st5 {
        fill: #d1d1d1;
      }

      .st6 {
        clip-path: url(#clippath);
      }
    </style>
    <clipPath id="clippath">
      <circle class="st0" cx="250" cy="270" r="244.9"/>
    </clipPath>
  </defs>
  <g id="Outlined_-_light_mode">
    <g>
      <g>
        <circle class="st3" cx="250" cy="270" r="244.9"/>
        <g class="st6">
          <rect class="st2" x="-14.9" y="268" width="544.5" height="4"/>
        </g>
      </g>
      <g>
        <rect x="62" y="64.4" width="194.3" height="401.2" rx="28" ry="28"/>
        <path class="st2" d="M88.7,71h140.8c11.2,0,20.2,9.1,20.2,20.2v334.3c0,11.2-9.1,20.2-20.2,20.2H88.7c-11.2,0-20.2-9.1-20.2-20.2V91.3c0-11.2,9.1-20.2,20.2-20.2h0Z"/>
        <g>
          <rect x="252.5" y="154.2" width="6.5" height="18.5" rx="3" ry="3"/>
          <rect x="252.5" y="126.6" width="6.5" height="27" rx="3" ry="3"/>
        </g>
        <path class="st2" d="M168.4,454.4c0,1.8-1.5,3.3-3.3,3.3h-12c-1.8,0-3.3-1.5-3.3-3.3s1.5-3.3,3.3-3.3h12c1.8,0,3.3,1.5,3.3,3.3Z"/>
        <path d="M67.5,127.6v-36.4c0-11.7,9.5-21.2,21.2-21.2h140.8c11.7,0,21.2,9.5,21.2,21.2v36.4H67.5Z"/>
        <path d="M249.8,91.3v35.4H68.5v-35.4c0-11.2,9.1-20.2,20.2-20.2h140.8c11.2,0,20.2,9.1,20.2,20.2h.1Z"/>
        <path class="st1" d="M98.5,89.8l2.1,1.1v-3.1l-2.1.7s0-.2-.2-.2l.9-2.6h-3.1l.9,2.6s0,0-.2.2l-2.1-.6v3.1l2.1-1.1s0,.2.2.2l-1.2,3.6h0v.6c0,1,.7,1.8,1.7,1.9h.4c1,0,1.7-.9,1.7-1.9s0-.4,0-.6h0l-1.2-3.6s0,0,.2-.2h-.1ZM103.6,94.9c-.9.3-1.8,0-2.2-.9-.4-.8,0-1.8.9-2.1.8-.3,1.8,0,2.2.9.4.8,0,1.8-.9,2.1h0ZM98.3,100.8c-.9.3-1.8,0-2.2-.9-.4-.8,0-1.8.9-2.1.8-.3,1.8,0,2.2.9.4.8,0,1.8-.9,2.1h0ZM105.9,96.6c.3.8,1.3,1.2,2.2.9h0c.8-.3,1.3-1.3.9-2.1-.4-.8-1.3-1.2-2.2-.9-.9.3-1.3,1.3-.9,2.1ZM111.1,101.8c-.9.3-1.8,0-2.2-.9-.4-.8,0-1.8.9-2.1.8-.3,1.8,0,2.2.9.4.8,0,1.8-.9,2.1h0ZM91.6,94.9c.9.3,1.8,0,2.2-.9.4-.8,0-1.8-.9-2.1-.8-.3-1.8,0-2.2.9-.4.8,0,1.8.9,2.1h0ZM89.3,96.6c-.3.8-1.3,1.2-2.2.9h0c-.8-.3-1.3-1.3-.9-2.1.4-.8,1.3-1.2,2.2-.9.9.3,1.3,1.3.9,2.1ZM84.1,101.8c.9.3,1.8,0,2.2-.9.4-.8,0-1.8-.9-2.1-.8-.3-1.8,0-2.2.9-.4.8,0,1.8.9,2.1h0ZM108.9,112.2c-3.4-.5-7.2-.7-11.2-.7h0c-4,0-7.8.3-11.2.7-1-3.9-2.1-6.2-3.3-7.8l2.3-.8c-.2,1.1-.3,1.7,0,2.4.4-.4.7-1,1-2l1.1,3.6c-.7-.5-1.2-.7-1.8-.8,1,2.2,2.4,2.8,3.2,2.6,1-.2,1.5-1.1,1.4-1.9-.2-1.1-1.4-1.4-1.9,0-1-2,.7-2.7,1.8-2.1-1.7-1.7-1.9-3.1-.5-4.9,1.9,1.4,1.9,2.9,1.1,4.9,1.1-1.3,2.9-.6,2.2,1.4-.8-1.2-1.9-.5-1.7.7,0,1,1.5,1.8,3.2,1.7,2.5-.2,2.6-1.9,2.7-3.2-.6,0-1.7.4-2.6,1.7l-.3-3.8c1,1,1.9,1.2,2.9,1.2-.3-1-1.9-2.7-1.9-2.7h4.9s-1.6,1.7-1.9,2.7c1,0,1.9-.2,2.9-1.2l-.3,3.8c-.9-1.3-2-1.8-2.6-1.7,0,1.4.2,3,2.7,3.2,1.7,0,3.1-.7,3.2-1.7.2-1.2-.9-1.9-1.7-.7-.6-2,1.1-2.7,2.2-1.4-.9-2-.8-3.4,1.1-4.9,1.4,1.8,1.2,3.3-.5,4.9,1.1-.6,2.8,0,1.8,2.1-.5-1.3-1.7-1-1.9,0-.2.8.3,1.7,1.4,1.9.8.2,2.2-.4,3.2-2.6-.6,0-1.1.3-1.8.8l1.1-3.6c.3,1,.6,1.7,1,2,.3-.7.2-1.3,0-2.4l2.3.8c-1.2,1.6-2.4,3.9-3.3,7.8h-.3,0Z"/>
        <rect class="st5" x="83.1" y="147.7" width="151.4" height="166.6" rx="6.5" ry="6.5"/>
        <rect class="st5" x="83.1" y="328.2" width="151.4" height="96.6" rx="6.5" ry="6.5"/>
      </g>
      <circle class="st4" cx="364.9" cy="130.2" r="83"/>
      <path d="M449.9,130.2c0-46.9-38.1-85-85-85s-85,38.1-85,85,37,83.9,83,84.9v52.9h4v-52.9c45.9-1.1,83-38.7,83-84.9ZM366.9,211.1v-9.6l31.6-31.6c.8-.8.8-2,0-2.8s-2-.8-2.8,0l-28.8,28.8v-65.7c0-1.1-.9-2-2-2s-2,.9-2,2v33.5l-28.8-28.8c-.8-.8-2-.8-2.8,0s-.8,2,0,2.8l31.6,31.6v41.8c-43.7-1.1-79-37-79-80.9s36.3-81,81-81,81,36.3,81,81-35.3,79.9-79,80.9h0Z"/>
    </g>
  </g>
</svg>