<?xml version="1.0" encoding="UTF-8"?>
<svg id="Layer_1" xmlns="http://www.w3.org/2000/svg" xmlns:xlink="http://www.w3.org/1999/xlink" version="1.1" viewBox="0 0 225 225">
  <!-- Generator: Adobe Illustrator 29.0.0, SVG Export Plug-In . SVG Version: 2.1.0 Build 186)  -->
  <defs>
    <style>
      .st0 {
        fill: none;
      }

      .st1 {
        fill-rule: evenodd;
      }

      .st1, .st2 {
        fill: #fff;
      }

      .st3 {
        fill: #11875a;
      }

      .st4 {
        fill: #d1d1d1;
      }

      .st5 {
        clip-path: url(#clippath);
      }

      .st6 {
        fill: #259aff;
      }
    </style>
    <clipPath id="clippath">
      <circle class="st0" cx="112.5" cy="112.5" r="102.4"/>
    </clipPath>
  </defs>
  <g id="Outlined_-_dark_mode">
    <g>
      <g>
        <circle class="st6" cx="112.5" cy="112.5" r="102.4"/>
        <g class="st5">
          <rect class="st2" x="1.7" y="111.7" width="227.6" height="1.7"/>
        </g>
      </g>
      <g>
        <rect class="st4" x="33.9" y="26.6" width="81.2" height="167.7" rx="11.7" ry="11.7"/>
        <path class="st2" d="M45,29.3h58.9c4.7,0,8.4,3.8,8.4,8.4v139.8c0,4.7-3.8,8.4-8.4,8.4h-58.9c-4.7,0-8.4-3.8-8.4-8.4V37.8c0-4.7,3.8-8.4,8.4-8.4h0Z"/>
        <g>
          <rect class="st4" x="113.5" y="64.1" width="2.7" height="7.7" rx="1.3" ry="1.3"/>
          <rect class="st4" x="113.5" y="52.6" width="2.7" height="11.3" rx="1.3" ry="1.3"/>
        </g>
        <path d="M78.4,189.6c0,.8-.6,1.4-1.4,1.4h-5c-.8,0-1.4-.6-1.4-1.4s.6-1.4,1.4-1.4h5c.8,0,1.4.6,1.4,1.4Z"/>
        <path d="M36.2,53v-15.2c0-4.9,4-8.9,8.9-8.9h58.9c4.9,0,8.9,4,8.9,8.9v15.2H36.2Z"/>
        <path d="M112.4,37.8v14.8H36.6v-14.8c0-4.7,3.8-8.4,8.4-8.4h58.9c4.7,0,8.4,3.8,8.4,8.4h0Z"/>
        <path class="st1" d="M49.1,37.2l.9.5v-1.3l-.9.3s0,0,0,0l.4-1.1h-1.3l.4,1.1s0,0,0,0l-.9-.3v1.3l.9-.5s0,0,0,0l-.5,1.5h0v.3c0,.4.3.8.7.8h.2c.4,0,.7-.4.7-.8s0-.2,0-.3h0l-.5-1.5s0,0,0,0h0ZM51.3,39.3c-.4.1-.8,0-.9-.4-.2-.3,0-.8.4-.9.3-.1.8,0,.9.4.2.3,0,.8-.4.9h0ZM49.1,41.8c-.4.1-.8,0-.9-.4-.2-.3,0-.8.4-.9.3-.1.8,0,.9.4.2.3,0,.8-.4.9h0ZM52.2,40c.1.3.5.5.9.4h0c.3-.1.5-.5.4-.9-.2-.3-.5-.5-.9-.4-.4.1-.5.5-.4.9ZM54.4,42.2c-.4.1-.8,0-.9-.4-.2-.3,0-.8.4-.9.3-.1.8,0,.9.4.2.3,0,.8-.4.9h0ZM46.3,39.3c.4.1.8,0,.9-.4.2-.3,0-.8-.4-.9-.3-.1-.8,0-.9.4-.2.3,0,.8.4.9h0ZM45.3,40c-.1.3-.5.5-.9.4h0c-.3-.1-.5-.5-.4-.9.2-.3.5-.5.9-.4.4.1.5.5.4.9ZM43.1,42.2c.4.1.8,0,.9-.4.2-.3,0-.8-.4-.9-.3-.1-.8,0-.9.4-.2.3,0,.8.4.9h0ZM53.5,46.6c-1.4-.2-3-.3-4.7-.3h0c-1.7,0-3.3.1-4.7.3-.4-1.6-.9-2.6-1.4-3.3l1-.3c0,.5-.1.7,0,1,.2-.2.3-.4.4-.8l.5,1.5c-.3-.2-.5-.3-.8-.3.4.9,1,1.2,1.3,1.1.4,0,.6-.5.6-.8,0-.5-.6-.6-.8,0-.4-.8.3-1.1.8-.9-.7-.7-.8-1.3-.2-2,.8.6.8,1.2.5,2,.5-.5,1.2-.3.9.6-.3-.5-.8-.2-.7.3,0,.4.6.8,1.3.7,1,0,1.1-.8,1.1-1.3-.3,0-.7.2-1.1.7v-1.6c.3.4.7.5,1.1.5-.1-.4-.8-1.1-.8-1.1h2s-.7.7-.8,1.1c.4,0,.8,0,1.2-.5v1.6c-.5-.5-1-.8-1.2-.7,0,.6,0,1.3,1.1,1.3.7,0,1.3-.3,1.3-.7,0-.5-.4-.8-.7-.3-.3-.8.5-1.1.9-.6-.4-.8-.3-1.4.5-2,.6.8.5,1.4-.2,2,.5-.3,1.2,0,.8.9-.2-.5-.7-.4-.8,0,0,.3.1.7.6.8.3,0,.9-.2,1.3-1.1-.3,0-.5.1-.8.3l.5-1.5c.1.4.3.7.4.8.1-.3,0-.5,0-1l1,.3c-.5.7-1,1.6-1.4,3.3h-.1,0Z"/>
        <rect class="st4" x="42.7" y="61.4" width="63.3" height="69.6" rx="2.7" ry="2.7"/>
        <rect class="st4" x="42.7" y="136.9" width="63.3" height="40.4" rx="2.7" ry="2.7"/>
      </g>
      <circle class="st3" cx="160.5" cy="54.1" r="34.7"/>
      <path d="M196,54.1c0-19.6-15.9-35.5-35.5-35.5s-35.5,15.9-35.5,35.5,15.5,35.1,34.7,35.5v22.1h1.7v-22.1c19.2-.5,34.7-16.2,34.7-35.5ZM161.3,87.9v-4l13.2-13.2c.3-.3.3-.8,0-1.2s-.8-.3-1.2,0l-12,12v-27.5c0-.5-.4-.8-.8-.8s-.8.4-.8.8v14l-12-12c-.3-.3-.8-.3-1.2,0s-.3.8,0,1.2l13.2,13.2v17.5c-18.3-.5-33-15.5-33-33.8s15.2-33.9,33.9-33.9,33.9,15.2,33.9,33.9-14.8,33.4-33,33.8h0Z"/>
    </g>
  </g>
</svg>