<svg width="40" height="40" viewBox="0 0 40 40" fill="none" xmlns="http://www.w3.org/2000/svg">
<rect width="40" height="40" rx="20" fill="#1D70B8"/>
<path d="M16.9445 10.7729C16.488 10.7729 16.0715 10.6687 15.6951 10.4601C15.3187 10.2439 15.0183 9.95814 14.7941 9.60287C14.5778 9.23988 14.4697 8.83441 14.4697 8.38647C14.4697 7.94625 14.5778 7.54464 14.7941 7.18165C15.0183 6.81866 15.3187 6.5329 15.6951 6.32437C16.0715 6.10812 16.488 6 16.9445 6C17.409 6 17.8295 6.10812 18.2059 6.32437C18.5823 6.5329 18.8787 6.81866 19.0949 7.18165C19.3192 7.54464 19.4313 7.94625 19.4313 8.38647C19.4313 8.83441 19.3192 9.23988 19.0949 9.60287C18.8787 9.95814 18.5823 10.2439 18.2059 10.4601C17.8295 10.6687 17.409 10.7729 16.9445 10.7729ZM12.9079 31C12.5475 31 12.2672 30.861 12.067 30.5829C11.8748 30.3126 11.8307 30.0037 11.9349 29.6562C11.9509 29.6021 12.0029 29.3897 12.091 29.019C12.1871 28.656 12.3033 28.1926 12.4394 27.6288C12.5836 27.065 12.7358 26.4549 12.8959 25.7984C13.0561 25.142 13.2083 24.5009 13.3524 23.8753C13.4966 23.242 13.6207 22.6821 13.7249 22.1956C13.837 21.7013 13.9131 21.3383 13.9531 21.1066C14.0012 20.7745 14.0412 20.3767 14.0733 19.9133C14.1053 19.45 14.1293 18.9711 14.1453 18.4768C14.1694 17.9748 14.1854 17.5114 14.1934 17.0867C14.2014 16.6542 14.2054 16.3182 14.2054 16.0788C14.2054 15.9938 14.1654 15.9398 14.0853 15.9166C14.0132 15.8934 13.9491 15.9166 13.8931 15.9861C13.6928 16.2641 13.4486 16.5962 13.1602 16.9824C12.8719 17.3608 12.5836 17.747 12.2953 18.1409C12.0069 18.527 11.7506 18.8707 11.5264 19.1719C11.3101 19.4654 11.162 19.6585 11.0819 19.7512C10.9057 19.9442 10.6894 20.0601 10.4332 20.0987C10.1849 20.1373 9.94861 20.0948 9.72436 19.9713C9.43603 19.8323 9.25183 19.6353 9.17174 19.3804C9.09966 19.1179 9.12769 18.8746 9.25583 18.6506C9.30389 18.5579 9.35995 18.4691 9.42402 18.3842C9.48809 18.2915 9.56017 18.1949 9.64026 18.0945L12.5475 13.9935C12.9079 13.4838 13.3004 13.0899 13.7249 12.8119C14.1493 12.5261 14.6259 12.3253 15.1545 12.2095C15.6831 12.0859 16.2797 12.0241 16.9445 12.0241C17.6092 12.0241 18.2059 12.0859 18.7345 12.2095C19.2631 12.3253 19.7396 12.5261 20.1641 12.8119C20.5886 13.0899 20.981 13.4838 21.3415 13.9935L23.1074 16.4495C22.6429 16.4572 22.2545 16.604 21.9421 16.8897C21.6298 17.1677 21.4296 17.469 21.3415 17.7933L19.9959 15.9861C19.9319 15.9166 19.8638 15.8934 19.7917 15.9166C19.7196 15.932 19.6836 15.9822 19.6836 16.0672C19.6836 16.3143 19.6876 16.6542 19.6956 17.0867C19.7036 17.5114 19.7156 17.9748 19.7316 18.4768C19.7557 18.9711 19.7837 19.45 19.8157 19.9133C19.8478 20.3767 19.8878 20.7745 19.9359 21.1066C19.9759 21.3383 20.048 21.7013 20.1521 22.1956C20.2562 22.6821 20.3844 23.242 20.5365 23.8753C20.6887 24.5009 20.8449 25.142 21.0051 25.7984C21.1653 26.4549 21.3134 27.065 21.4496 27.6288C21.5857 28.1926 21.7019 28.656 21.798 29.019C21.8941 29.3897 21.9461 29.6021 21.9541 29.6562C22.0583 30.0037 22.0142 30.3126 21.822 30.5829C21.6298 30.861 21.3495 31 20.981 31C20.4364 31 20.072 30.6718 19.8878 30.0153C19.8077 29.7373 19.6996 29.3472 19.5634 28.8452C19.4273 28.3509 19.2791 27.8026 19.1189 27.2002C18.9588 26.5978 18.7986 26.0031 18.6384 25.4161C18.4862 24.8214 18.3421 24.2885 18.2059 23.8174C18.0778 23.3386 17.9777 22.9833 17.9056 22.7516C17.7774 22.35 17.6453 22.0604 17.5091 21.8828C17.381 21.7051 17.1928 21.6163 16.9445 21.6163C16.6962 21.6163 16.504 21.7051 16.3678 21.8828C16.2397 22.0604 16.1156 22.35 15.9954 22.7516C15.9153 22.9833 15.8072 23.3386 15.6711 23.8174C15.5429 24.2885 15.3988 24.8214 15.2386 25.4161C15.0864 26.0031 14.9302 26.5978 14.77 27.2002C14.6099 27.8026 14.4617 28.3509 14.3255 28.8452C14.1894 29.3472 14.0853 29.7373 14.0132 30.0153C13.829 30.6718 13.4606 31 12.9079 31ZM26.6995 18.6043C26.1869 18.6043 25.7504 18.4305 25.39 18.0829C25.0376 17.7354 24.8614 17.3145 24.8614 16.8202C24.8614 16.3259 25.0376 15.905 25.39 15.5575C25.7504 15.2099 26.1869 15.0361 26.6995 15.0361C27.2121 15.0361 27.6486 15.2099 28.009 15.5575C28.3774 15.905 28.5616 16.3259 28.5616 16.8202C28.5616 17.3145 28.3774 17.7354 28.009 18.0829C27.6486 18.4305 27.2121 18.6043 26.6995 18.6043ZM24.1406 31C23.8202 31 23.576 30.8803 23.4078 30.6409C23.2396 30.4015 23.1955 30.135 23.2756 29.8415C23.2916 29.8029 23.3357 29.6291 23.4078 29.3202C23.4879 29.0113 23.58 28.629 23.6841 28.1733C23.7962 27.7176 23.9083 27.2465 24.0205 26.76C24.1406 26.2734 24.2447 25.837 24.3328 25.4509C24.4289 25.057 24.493 24.7712 24.525 24.5936C24.5571 24.3619 24.5811 24.0723 24.5971 23.7247C24.6211 23.3695 24.6372 23.0297 24.6452 22.7053C24.6532 22.3732 24.6572 22.1106 24.6572 21.9175C24.6572 21.7553 24.6292 21.6163 24.5731 21.5005C24.525 21.3769 24.457 21.2572 24.3689 21.1413C24.0885 20.8015 23.7962 20.4656 23.4919 20.1335C23.1955 19.7936 22.9352 19.5002 22.711 19.253C22.4948 19.0059 22.3626 18.8475 22.3145 18.778C22.1864 18.585 22.1383 18.3842 22.1704 18.1756C22.2104 17.9671 22.3105 17.7856 22.4707 17.6311C22.6389 17.4381 22.8512 17.3415 23.1074 17.3415C23.3637 17.3338 23.568 17.4072 23.7201 17.5616L24.9575 18.836C25.2218 19.1063 25.4701 19.3071 25.7024 19.4384C25.9346 19.5619 26.243 19.6237 26.6274 19.6237H27.0359C27.5725 19.6237 28.0851 19.7319 28.5736 19.9481C29.0702 20.1643 29.4826 20.5119 29.811 20.9907L31.7091 23.8406C31.8453 24.0337 31.8893 24.2229 31.8413 24.4082C31.7932 24.5859 31.6971 24.7249 31.553 24.8253C31.3928 24.9411 31.2046 24.9914 30.9883 24.9759C30.7801 24.9605 30.6039 24.8485 30.4597 24.6399L28.97 22.5779C28.906 22.4929 28.8259 22.462 28.7298 22.4852C28.6337 22.5083 28.5856 22.574 28.5856 22.6821C28.5856 22.9138 28.5976 23.2266 28.6217 23.6205C28.6457 24.0066 28.6817 24.331 28.7298 24.5936C28.7618 24.7712 28.8219 25.057 28.91 25.4509C28.9981 25.837 29.0982 26.2734 29.2103 26.76C29.3305 27.2465 29.4466 27.7176 29.5587 28.1733C29.6708 28.629 29.7629 29.0113 29.835 29.3202C29.9151 29.6291 29.9592 29.8029 29.9672 29.8415C30.0473 30.135 30.0032 30.4015 29.835 30.6409C29.6668 30.8803 29.4226 31 29.1022 31C28.8779 31 28.6817 30.9344 28.5135 30.8031C28.3534 30.6795 28.2372 30.4825 28.1651 30.2122C28.1011 29.996 28.013 29.6793 27.9008 29.2623C27.7967 28.853 27.6806 28.4089 27.5525 27.93C27.4323 27.4512 27.3162 27.0148 27.2041 26.6209C27.0999 26.2193 27.0198 25.9259 26.9638 25.7405C26.8837 25.5088 26.8236 25.3659 26.7836 25.3119C26.7435 25.2578 26.6915 25.2308 26.6274 25.2308C26.5553 25.2308 26.4993 25.2578 26.4592 25.3119C26.4192 25.3659 26.3591 25.5088 26.279 25.7405C26.223 25.9259 26.1389 26.2193 26.0267 26.6209C25.9226 27.0148 25.8105 27.4512 25.6904 27.93C25.5702 28.4089 25.4541 28.853 25.342 29.2623C25.2298 29.6793 25.1417 29.996 25.0777 30.2122C25.0136 30.4825 24.8935 30.6795 24.7173 30.8031C24.5491 30.9344 24.3568 31 24.1406 31Z" fill="white"/>
</svg>
