<svg width="41" height="40" viewBox="0 0 41 40" fill="none" xmlns="http://www.w3.org/2000/svg">
<path d="M18.6192 23.3969C17.7726 23.3969 17.2767 22.9253 17.2767 22.0786V21.099C13.7207 20.8571 10.1769 20.1313 6.5 18.7404V16.7447C11.0235 18.7283 15.5592 19.4298 20.4939 19.4298C25.4409 19.4298 29.9765 18.7283 34.5 16.7447V18.7404C30.8232 20.1313 27.2792 20.8571 23.7233 21.099V22.0786C23.7233 22.9253 23.2275 23.3969 22.3808 23.3969H18.6192ZM10.2374 31.4402H30.7626C33.2663 31.4402 34.5 30.2307 34.5 27.7512V15.9827C34.5 13.5032 33.2663 12.2937 30.7626 12.2937H10.2374C7.74579 12.2937 6.5 13.5032 6.5 15.9827V27.7512C6.5 30.2307 7.74579 31.4402 10.2374 31.4402ZM14.3618 13.346H16.2365V11.2052C16.2365 10.286 16.7808 9.76587 17.7242 9.76587H23.2758C24.2192 9.76587 24.7514 10.286 24.7514 11.2052V13.3218H26.6262V11.3382C26.6262 9.06436 25.4287 8 23.2395 8H17.7484C15.6801 8 14.3618 9.06436 14.3618 11.3382V13.346Z" fill="#1D70B8"/>
</svg>
