<svg width="30" height="40" viewBox="0 0 30 40" fill="none" xmlns="http://www.w3.org/2000/svg">
<path d="M13.1192 23.3969C12.2726 23.3969 11.7767 22.9253 11.7767 22.0786V21.099C8.22074 20.8571 4.67689 20.1313 1 18.7404V16.7447C5.52354 18.7283 10.0592 19.4298 14.9939 19.4298C19.9409 19.4298 24.4765 18.7283 29 16.7447V18.7404C25.3232 20.1313 21.7792 20.8571 18.2233 21.099V22.0786C18.2233 22.9253 17.7275 23.3969 16.8808 23.3969H13.1192ZM4.73737 31.4402H25.2626C27.7663 31.4402 29 30.2307 29 27.7512V15.9827C29 13.5032 27.7663 12.2937 25.2626 12.2937H4.73737C2.24579 12.2937 1 13.5032 1 15.9827V27.7512C1 30.2307 2.24579 31.4402 4.73737 31.4402ZM8.86178 13.346H10.7365V11.2052C10.7365 10.286 11.2808 9.76587 12.2242 9.76587H17.7758C18.7192 9.76587 19.2514 10.286 19.2514 11.2052V13.3218H21.1262V11.3382C21.1262 9.06436 19.9287 8 17.7395 8H12.2484C10.1801 8 8.86178 9.06436 8.86178 11.3382V13.346Z" fill="#1D70B8"/>
</svg>
