<svg width="40" height="40" viewBox="0 0 40 40" fill="none" xmlns="http://www.w3.org/2000/svg">
<rect width="40" height="40" rx="20" fill="#263D54"/>
<path d="M18.6361 22.1666C18.0221 22.1666 17.6625 21.8246 17.6625 21.2105V20.5C15.0835 20.3246 12.5133 19.7982 9.84668 18.7895V17.3421C13.1274 18.7807 16.4168 19.2895 19.9958 19.2895C23.5835 19.2895 26.873 18.7807 30.1537 17.3421V18.7895C27.487 19.7982 24.9168 20.3246 22.3379 20.5V21.2105C22.3379 21.8246 21.9783 22.1666 21.3642 22.1666H18.6361ZM12.5572 28H27.4431C29.2589 28 30.1537 27.1228 30.1537 25.3246V16.7895C30.1537 14.9912 29.2589 14.114 27.4431 14.114H12.5572C10.7502 14.114 9.84668 14.9912 9.84668 16.7895V25.3246C9.84668 27.1228 10.7502 28 12.5572 28ZM15.5484 14.8772H16.9081V13.3246C16.9081 12.6579 17.3028 12.2807 17.987 12.2807H22.0133C22.6975 12.2807 23.0835 12.6579 23.0835 13.3246V14.8596H24.4432V13.421C24.4432 11.7719 23.5747 11 21.987 11H18.0046C16.5046 11 15.5484 11.7719 15.5484 13.421V14.8772Z" fill="white"/>
</svg>
