<svg width="36" height="40" viewBox="0 0 36 40" fill="none" xmlns="http://www.w3.org/2000/svg">
<path d="M15.9849 24.4215C15.0778 24.4215 14.5464 23.9185 14.5464 23.0155V21.9706C10.7365 21.7126 6.93953 20.9386 3 19.4551V17.3266C7.84665 19.4422 12.7063 20.1904 17.9935 20.1904C23.2938 20.1904 28.1534 19.4422 33 17.3266V19.4551C29.0605 20.9386 25.2635 21.7126 21.4535 21.9706V23.0155C21.4535 23.9185 20.9223 24.4215 20.0152 24.4215H15.9849ZM7.00433 33H28.9956C31.6782 33 33 31.71 33 29.0656V16.5139C33 13.8694 31.6782 12.5795 28.9956 12.5795H7.00433C4.33478 12.5795 3 13.8694 3 16.5139V29.0656C3 31.71 4.33478 33 7.00433 33ZM11.4233 13.7018H13.432V11.4185C13.432 10.4381 14.0151 9.88338 15.0259 9.88338H20.9741C21.9848 9.88338 22.5551 10.4381 22.5551 11.4185V13.676H24.5637V11.5604C24.5637 9.13519 23.2808 8 20.9352 8H15.0518C12.8359 8 11.4233 9.13519 11.4233 11.5604V13.7018Z" fill="#1D70B8"/>
</svg>
