<?xml version="1.0" encoding="UTF-8"?>
<svg id="Layer_1" xmlns="http://www.w3.org/2000/svg" xmlns:xlink="http://www.w3.org/1999/xlink" version="1.1" viewBox="0 0 500 540">
  <!-- Generator: Adobe Illustrator 29.0.0, SVG Export Plug-In . SVG Version: 2.1.0 Build 186)  -->
  <defs>
    <style>
      .st0 {
        fill: none;
      }

      .st1 {
        clip-path: url(#clippath-1);
      }

      .st2 {
        clip-path: url(#clippath-2);
      }

      .st3 {
        fill: #fff;
      }

      .st4 {
        fill: #11875a;
      }

      .st5 {
        fill: #d1d1d1;
      }

      .st6 {
        clip-path: url(#clippath);
      }

      .st7 {
        fill: #259aff;
      }
    </style>
    <clipPath id="clippath">
      <rect class="st0" x="171.6" y="4.7" width="154.2" height="154.2" rx="20.7" ry="20.7"/>
    </clipPath>
    <clipPath id="clippath-1">
      <rect class="st0" x="171.6" y="193" width="154.2" height="154.2" rx="20.7" ry="20.7"/>
    </clipPath>
    <clipPath id="clippath-2">
      <rect class="st0" x="171.6" y="381.1" width="154.2" height="154.2" rx="20.7" ry="20.7"/>
    </clipPath>
  </defs>
  <g id="Outlined_-_dark_mode">
    <g>
      <circle class="st7" cx="250" cy="270.1" r="244.9"/>
      <rect x="161.8" y="204.7" width="154.2" height="154.2" rx="20.7" ry="20.7"/>
      <g>
        <rect class="st3" x="171.6" y="4.6" width="154.2" height="154.2" rx="20.7" ry="20.7"/>
        <g class="st6">
          <g>
            <path d="M248.8,104.4c-17.9,0-32.5-14.6-32.5-32.5s14.6-32.5,32.5-32.5,32.5,14.6,32.5,32.5-14.6,32.5-32.5,32.5ZM248.8,43.5c-15.7,0-28.5,12.8-28.5,28.5s12.8,28.5,28.5,28.5,28.5-12.8,28.5-28.5-12.8-28.5-28.5-28.5Z"/>
            <path d="M248.8,223.9c-30.7,0-55.7-25-55.7-55.7s25-55.7,55.7-55.7,55.7,25,55.7,55.7-25,55.7-55.7,55.7ZM248.8,116.5c-28.5,0-51.7,23.2-51.7,51.7s23.2,51.7,51.7,51.7,51.7-23.2,51.7-51.7-23.2-51.7-51.7-51.7Z"/>
          </g>
        </g>
      </g>
      <g>
        <rect class="st4" x="171.6" y="193" width="154.2" height="154.2" rx="20.7" ry="20.7"/>
        <g class="st1">
          <path class="st3" d="M216.3,260.2c0-17.9,14.6-32.5,32.5-32.5s32.5,14.6,32.5,32.5-14.6,32.5-32.5,32.5-32.5-14.6-32.5-32.5ZM248.8,300.6c-30.7,0-55.7,25-55.7,55.7s25,55.7,55.7,55.7,55.7-25,55.7-55.7-25-55.7-55.7-55.7Z"/>
        </g>
      </g>
      <g>
        <rect class="st3" x="171.6" y="381.1" width="154.2" height="154.2" rx="20.7" ry="20.7"/>
        <g class="st2">
          <g>
            <path d="M248.8,480.9c-17.9,0-32.5-14.6-32.5-32.5s14.6-32.5,32.5-32.5,32.5,14.6,32.5,32.5-14.6,32.5-32.5,32.5ZM248.8,420c-15.7,0-28.5,12.8-28.5,28.5s12.8,28.5,28.5,28.5,28.5-12.8,28.5-28.5-12.8-28.5-28.5-28.5Z"/>
            <path d="M248.8,600.4c-30.7,0-55.7-25-55.7-55.7s25-55.7,55.7-55.7,55.7,25,55.7,55.7-25,55.7-55.7,55.7ZM248.8,492.9c-28.5,0-51.7,23.2-51.7,51.7s23.2,51.7,51.7,51.7,51.7-23.2,51.7-51.7-23.2-51.7-51.7-51.7Z"/>
          </g>
        </g>
      </g>
      <path class="st3" d="M451.6,270.1c0,1.1-.9,2-2,2h-77.8l15.8,15.8c.8.8.8,2,0,2.8s-.9.6-1.4.6-1-.2-1.4-.6l-19.2-19.2h0l-1.4-1.4,1.4-1.4h0l19.2-19.2c.8-.8,2-.8,2.8,0s.8,2,0,2.8l-15.8,15.8h77.8c1.1,0,2,.9,2,2h0ZM134.5,268.6h0l-19.2-19.2c-.8-.8-2-.8-2.8,0s-.8,2,0,2.8l15.8,15.8H50.4c-1.1,0-2,.9-2,2s.9,2,2,2h77.9l-15.8,15.8c-.8.8-.8,2,0,2.8.4.4.9.6,1.4.6s1-.2,1.4-.6l19.2-19.2h0l1.4-1.4-1.4-1.4h0Z"/>
      <path class="st5" d="M305.2,161h-112.9c-12.5,0-22.7-10.2-22.7-22.7V25.4c0-12.5,10.2-22.7,22.7-22.7h112.9c12.5,0,22.7,10.2,22.7,22.7v112.9c0,12.5-10.2,22.7-22.7,22.7h0ZM192.3,6.6c-10.3,0-18.7,8.4-18.7,18.7v112.9c0,10.3,8.4,18.7,18.7,18.7h112.9c10.3,0,18.7-8.4,18.7-18.7V25.4c0-10.3-8.4-18.7-18.7-18.7h-112.9Z"/>
      <path d="M305.2,349.1h-112.9c-12.5,0-22.7-10.2-22.7-22.7v-112.9c0-12.5,10.2-22.7,22.7-22.7h112.9c12.5,0,22.7,10.2,22.7,22.7v112.9c0,12.5-10.2,22.7-22.7,22.7ZM192.3,195c-10.3,0-18.7,8.4-18.7,18.7v112.9c0,10.3,8.4,18.7,18.7,18.7h112.9c10.3,0,18.7-8.4,18.7-18.7v-112.9c0-10.3-8.4-18.7-18.7-18.7h-112.9Z"/>
      <path class="st5" d="M305.2,537.4h-112.9c-12.5,0-22.7-10.2-22.7-22.7v-112.9c0-12.5,10.2-22.7,22.7-22.7h112.9c12.5,0,22.7,10.2,22.7,22.7v112.9c0,12.5-10.2,22.7-22.7,22.7ZM192.3,383.1c-10.3,0-18.7,8.4-18.7,18.7v112.9c0,10.3,8.4,18.7,18.7,18.7h112.9c10.3,0,18.7-8.4,18.7-18.7v-112.9c0-10.3-8.4-18.7-18.7-18.7h-112.9Z"/>
    </g>
  </g>
</svg>