<?xml version="1.0" encoding="UTF-8"?>
<svg id="Layer_1" xmlns="http://www.w3.org/2000/svg" xmlns:xlink="http://www.w3.org/1999/xlink" version="1.1" viewBox="0 0 225 225">
  <!-- Generator: Adobe Illustrator 29.0.0, SVG Export Plug-In . SVG Version: 2.1.0 Build 186)  -->
  <defs>
    <style>
      .st0 {
        fill: none;
      }

      .st1 {
        clip-path: url(#clippath-1);
      }

      .st2 {
        clip-path: url(#clippath-2);
      }

      .st3 {
        fill: #fff;
      }

      .st4 {
        fill: #11875a;
      }

      .st5 {
        fill: #d1d1d1;
      }

      .st6 {
        clip-path: url(#clippath);
      }

      .st7 {
        fill: #259aff;
      }
    </style>
    <clipPath id="clippath">
      <rect class="st0" x="79.7" y="1.4" width="64.5" height="64.5" rx="8.7" ry="8.7"/>
    </clipPath>
    <clipPath id="clippath-1">
      <rect class="st0" x="79.7" y="80.3" width="64.5" height="64.5" rx="8.7" ry="8.7"/>
    </clipPath>
    <clipPath id="clippath-2">
      <rect class="st0" x="79.7" y="159" width="64.5" height="64.5" rx="8.7" ry="8.7"/>
    </clipPath>
  </defs>
  <g id="Outlined_-_dark_mode">
    <g>
      <circle class="st7" cx="112.5" cy="112.5" r="102.5"/>
      <rect x="75.6" y="85.2" width="64.5" height="64.5" rx="8.7" ry="8.7"/>
      <g>
        <rect class="st3" x="79.7" y="1.4" width="64.5" height="64.5" rx="8.7" ry="8.7"/>
        <g class="st6">
          <g>
            <path d="M112,43.2c-7.5,0-13.6-6.1-13.6-13.6s6.1-13.6,13.6-13.6,13.6,6.1,13.6,13.6-6.1,13.6-13.6,13.6h0ZM112,17.7c-6.6,0-11.9,5.4-11.9,11.9s5.4,11.9,11.9,11.9,11.9-5.4,11.9-11.9-5.4-11.9-11.9-11.9h0Z"/>
            <path d="M112,93.2c-12.8,0-23.3-10.5-23.3-23.3s10.5-23.3,23.3-23.3,23.3,10.5,23.3,23.3-10.5,23.3-23.3,23.3ZM112,48.2c-11.9,0-21.6,9.7-21.6,21.6s9.7,21.6,21.6,21.6,21.6-9.7,21.6-21.6-9.7-21.6-21.6-21.6Z"/>
          </g>
        </g>
      </g>
      <g>
        <rect class="st4" x="79.7" y="80.3" width="64.5" height="64.5" rx="8.7" ry="8.7"/>
        <g class="st1">
          <path class="st3" d="M98.4,108.4c0-7.5,6.1-13.6,13.6-13.6s13.6,6.1,13.6,13.6-6.1,13.6-13.6,13.6-13.6-6.1-13.6-13.6h0ZM112,125.3c-12.8,0-23.3,10.5-23.3,23.3s10.5,23.3,23.3,23.3,23.3-10.5,23.3-23.3-10.5-23.3-23.3-23.3Z"/>
        </g>
      </g>
      <g>
        <rect class="st3" x="79.7" y="159" width="64.5" height="64.5" rx="8.7" ry="8.7"/>
        <g class="st2">
          <g>
            <path d="M112,200.7c-7.5,0-13.6-6.1-13.6-13.6s6.1-13.6,13.6-13.6,13.6,6.1,13.6,13.6-6.1,13.6-13.6,13.6h0ZM112,175.3c-6.6,0-11.9,5.4-11.9,11.9s5.4,11.9,11.9,11.9,11.9-5.4,11.9-11.9-5.4-11.9-11.9-11.9h0Z"/>
            <path d="M112,250.8c-12.8,0-23.3-10.5-23.3-23.3s10.5-23.3,23.3-23.3,23.3,10.5,23.3,23.3-10.5,23.3-23.3,23.3ZM112,205.8c-11.9,0-21.6,9.7-21.6,21.6s9.7,21.6,21.6,21.6,21.6-9.7,21.6-21.6-9.7-21.6-21.6-21.6h0Z"/>
          </g>
        </g>
      </g>
      <path class="st3" d="M196.9,112.5c0,.5-.4.8-.8.8h-32.6l6.6,6.6c.3.3.3.8,0,1.2s-.4.3-.6.3-.4,0-.6-.3l-8-8h0l-.6-.6.6-.6h0l8-8c.3-.3.8-.3,1.2,0s.3.8,0,1.2l-6.6,6.6h32.6c.5,0,.8.4.8.8h0ZM64.2,111.9h0l-8-8c-.3-.3-.8-.3-1.2,0s-.3.8,0,1.2l6.6,6.6H29c-.5,0-.8.4-.8.8s.4.8.8.8h32.6l-6.6,6.6c-.3.3-.3.8,0,1.2s.4.3.6.3.4,0,.6-.3l8-8h0l.6-.6-.6-.6h0Z"/>
      <path class="st5" d="M135.6,66.9h-47.2c-5.2,0-9.5-4.3-9.5-9.5V10.1c0-5.2,4.3-9.5,9.5-9.5h47.2c5.2,0,9.5,4.3,9.5,9.5v47.2c0,5.2-4.3,9.5-9.5,9.5h0ZM88.4,2.2c-4.3,0-7.8,3.5-7.8,7.8v47.2c0,4.3,3.5,7.8,7.8,7.8h47.2c4.3,0,7.8-3.5,7.8-7.8V10.1c0-4.3-3.5-7.8-7.8-7.8h-47.2Z"/>
      <path d="M135.6,145.6h-47.2c-5.2,0-9.5-4.3-9.5-9.5v-47.2c0-5.2,4.3-9.5,9.5-9.5h47.2c5.2,0,9.5,4.3,9.5,9.5v47.2c0,5.2-4.3,9.5-9.5,9.5ZM88.4,81.1c-4.3,0-7.8,3.5-7.8,7.8v47.2c0,4.3,3.5,7.8,7.8,7.8h47.2c4.3,0,7.8-3.5,7.8-7.8v-47.2c0-4.3-3.5-7.8-7.8-7.8h-47.2Z"/>
      <path class="st5" d="M135.6,224.4h-47.2c-5.2,0-9.5-4.3-9.5-9.5v-47.2c0-5.2,4.3-9.5,9.5-9.5h47.2c5.2,0,9.5,4.3,9.5,9.5v47.2c0,5.2-4.3,9.5-9.5,9.5ZM88.4,159.8c-4.3,0-7.8,3.5-7.8,7.8v47.2c0,4.3,3.5,7.8,7.8,7.8h47.2c4.3,0,7.8-3.5,7.8-7.8v-47.2c0-4.3-3.5-7.8-7.8-7.8h-47.2Z"/>
    </g>
  </g>
</svg>