<svg width="32" height="34" viewBox="0 0 32 34" fill="none" xmlns="http://www.w3.org/2000/svg">
<path d="M9.99414 6.71582C9.99414 5.60254 10.2627 4.5918 10.7998 3.68359C11.3369 2.76562 12.0596 2.0332 12.9678 1.48633C13.876 0.939453 14.8867 0.666016 16 0.666016C17.1133 0.666016 18.124 0.939453 19.0322 1.48633C19.9404 2.0332 20.6631 2.76562 21.2002 3.68359C21.7471 4.5918 22.0205 5.60254 22.0205 6.71582C22.0205 7.63379 21.8301 8.48828 21.4492 9.2793C21.0684 10.0605 20.5508 10.7344 19.8965 11.3008C19.2422 11.8574 18.4951 12.2529 17.6553 12.4873V21.6865C17.6553 22.624 17.6016 23.4785 17.4941 24.25C17.3867 25.0117 17.25 25.6709 17.084 26.2275C16.918 26.7842 16.7373 27.2139 16.542 27.5166C16.3467 27.8096 16.166 27.9561 16 27.9561C15.834 27.9561 15.6533 27.8096 15.458 27.5166C15.2725 27.2139 15.0918 26.7842 14.916 26.2275C14.75 25.6709 14.6084 25.0117 14.4912 24.25C14.3838 23.4785 14.3301 22.624 14.3301 21.6865V12.4873C13.5 12.2529 12.7578 11.8574 12.1035 11.3008C11.4492 10.7344 10.9316 10.0605 10.5508 9.2793C10.1797 8.48828 9.99414 7.63379 9.99414 6.71582ZM14.3008 7.05273C14.8672 7.05273 15.3506 6.84766 15.751 6.4375C16.1611 6.02734 16.3662 5.54395 16.3662 4.9873C16.3662 4.43066 16.1611 3.95215 15.751 3.55176C15.3506 3.1416 14.8672 2.93652 14.3008 2.93652C13.7539 2.93652 13.2754 3.1416 12.8652 3.55176C12.4551 3.95215 12.25 4.43066 12.25 4.9873C12.25 5.54395 12.4551 6.02734 12.8652 6.4375C13.2754 6.84766 13.7539 7.05273 14.3008 7.05273ZM16 33.9766C13.5977 33.9766 11.4395 33.791 9.52539 33.4199C7.62109 33.0586 5.99512 32.5508 4.64746 31.8965C3.30957 31.252 2.28418 30.5049 1.57129 29.6553C0.868164 28.8154 0.516602 27.917 0.516602 26.96C0.516602 26.1592 0.736328 25.417 1.17578 24.7334C1.61523 24.0498 2.21094 23.4346 2.96289 22.8877C3.71484 22.3311 4.57422 21.8525 5.54102 21.4521C6.50781 21.042 7.52344 20.7148 8.58789 20.4707C9.66211 20.2266 10.7217 20.0801 11.7666 20.0312V22.9316C10.8975 22.9805 10.0088 23.1074 9.10059 23.3125C8.20215 23.5176 7.37207 23.7861 6.61035 24.1182C5.8584 24.4502 5.25293 24.8359 4.79395 25.2754C4.33496 25.7148 4.10547 26.1885 4.10547 26.6963C4.10547 27.3311 4.39844 27.9072 4.98438 28.4248C5.57031 28.9521 6.39551 29.4014 7.45996 29.7725C8.52441 30.1436 9.7793 30.4316 11.2246 30.6367C12.6797 30.8516 14.2715 30.959 16 30.959C17.7188 30.959 19.3008 30.8516 20.7461 30.6367C22.2012 30.4316 23.4609 30.1387 24.5254 29.7578C25.5898 29.3867 26.415 28.9424 27.001 28.4248C27.5967 27.9072 27.8945 27.3311 27.8945 26.6963C27.8945 26.1885 27.6602 25.7148 27.1914 25.2754C26.7227 24.8359 26.1123 24.4502 25.3604 24.1182C24.6084 23.7861 23.7832 23.5176 22.8848 23.3125C21.9863 23.1074 21.0928 22.9805 20.2041 22.9316V20.0312C21.2588 20.0801 22.3184 20.2266 23.3828 20.4707C24.457 20.7148 25.4775 21.042 26.4443 21.4521C27.4111 21.8525 28.2705 22.3311 29.0225 22.8877C29.7842 23.4346 30.3799 24.0498 30.8096 24.7334C31.249 25.417 31.4688 26.1592 31.4688 26.96C31.4688 27.917 31.1123 28.8154 30.3994 29.6553C29.6963 30.5049 28.6758 31.252 27.3379 31.8965C26 32.5508 24.374 33.0586 22.46 33.4199C20.5557 33.791 18.4023 33.9766 16 33.9766Z" fill="#F4F8FB"/>
</svg>
