<svg width="30" height="40" viewBox="0 0 30 40" fill="none" xmlns="http://www.w3.org/2000/svg">
<path d="M7.29893 31.5786C7.67687 31.8695 8.15613 31.7864 8.75013 31.3577L14.9975 26.7977L21.253 31.3577C21.8469 31.7864 22.3182 31.8695 22.7041 31.5786C23.0856 31.2955 23.1818 30.8303 22.9447 30.128L20.5004 22.8201L26.7946 18.31C27.3886 17.8891 27.6007 17.4561 27.4564 17.0022C27.3118 16.5605 26.8829 16.3255 26.1416 16.3334L18.4094 16.3684L16.0514 9.03691C15.8188 8.3303 15.4769 8 14.9975 8C14.5262 8 14.1843 8.3303 13.9516 9.03691L11.5937 16.3684L3.8614 16.3334C3.1202 16.3255 2.6912 16.5605 2.54674 17.0022C2.39437 17.4561 2.61444 17.8891 3.20843 18.31L9.50256 22.8201L7.05832 30.128C6.82128 30.8303 6.91742 31.2955 7.29893 31.5786Z" fill="#1D70B8"/>
</svg>
