<svg width="40" height="40" viewBox="0 0 40 40" fill="none" xmlns="http://www.w3.org/2000/svg">
<rect width="40" height="40" rx="20" fill="#263D54"/>
<path d="M13.415 30.834C13.7627 31.1157 14.2036 31.0352 14.7501 30.6201L20.4977 26.2041L26.2527 30.6201C26.7991 31.0352 27.2328 31.1157 27.5878 30.834C27.9387 30.5599 28.0273 30.1093 27.8091 29.4292L25.5604 22.3521L31.3511 17.9844C31.8975 17.5769 32.0927 17.1575 31.9598 16.7179C31.8269 16.2902 31.4322 16.0626 30.7503 16.0702L23.6367 16.1042L21.4673 9.00417C21.2533 8.31987 20.9387 8 20.4977 8C20.0641 8 19.7496 8.31987 19.5355 9.00417L17.3662 16.1042L10.2525 16.0702C9.57058 16.0626 9.1759 16.2902 9.043 16.7179C8.90282 17.1575 9.10528 17.5769 9.65176 17.9844L15.4424 22.3521L13.1937 29.4292C12.9756 30.1093 13.064 30.5599 13.415 30.834Z" fill="white"/>
</svg>
