<svg width="36" height="40" viewBox="0 0 36 40" fill="none" xmlns="http://www.w3.org/2000/svg">
<path d="M8.75871 34.7835C9.21224 35.1509 9.78735 35.046 10.5002 34.5045L17.997 28.7444L25.5035 34.5045C26.2162 35.046 26.7819 35.1509 27.2449 34.7835C27.7027 34.4259 27.8182 33.8382 27.5336 32.9511L24.6005 23.7201L32.1536 18.0231C32.8663 17.4916 33.1209 16.9446 32.9476 16.3712C32.7742 15.8133 32.2595 15.5164 31.37 15.5264L22.0913 15.5706L19.2617 6.30978C18.9825 5.41723 18.5722 5 17.997 5C17.4315 5 17.0212 5.41723 16.7419 6.30978L13.9124 15.5706L4.63368 15.5264C3.74424 15.5164 3.22943 15.8133 3.05609 16.3712C2.87324 16.9446 3.13732 17.4916 3.85012 18.0231L11.4031 23.7201L8.46998 32.9511C8.18553 33.8382 8.30091 34.4259 8.75871 34.7835Z" fill="#1D70B8"/>
</svg>
