<svg width="41" height="40" viewBox="0 0 41 40" fill="none" xmlns="http://www.w3.org/2000/svg">
<path d="M8.5 22.8941C8.5 24.2777 9.45043 25.204 10.846 25.204H16.2839V30.654C16.2839 32.0496 17.2103 32.9879 18.5938 32.9879H23.4061C24.7897 32.9879 25.716 32.0496 25.716 30.654V25.204H31.1659C32.5615 25.204 33.5 24.2777 33.5 22.8941V18.0818C33.5 16.6983 32.5615 15.7719 31.1659 15.7719H25.716V10.334C25.716 8.9384 24.7897 8 23.4061 8H18.5938C17.2103 8 16.2839 8.9384 16.2839 10.334V15.7719H10.834C9.4384 15.7719 8.5 16.6983 8.5 18.0818V22.8941Z" fill="#1D70B8"/>
</svg>
