<svg width="36" height="40" viewBox="0 0 36 40" fill="none" xmlns="http://www.w3.org/2000/svg">
<path d="M4 22.6894C4 24.2398 5.06448 25.2777 6.62753 25.2777H12.718V31.3847C12.718 32.9485 13.7555 34 15.3051 34H20.6949C22.2445 34 23.282 32.9485 23.282 31.3847V25.2777H29.3859C30.9489 25.2777 32 24.2398 32 22.6894V17.2971C32 15.7468 30.9489 14.7087 29.3859 14.7087H23.282V8.61531C23.282 7.05152 22.2445 6 20.6949 6H15.3051C13.7555 6 12.718 7.05152 12.718 8.61531V14.7087H6.61405C5.05101 14.7087 4 15.7468 4 17.2971V22.6894Z" fill="#1D70B8"/>
</svg>
