<svg width="30" height="40" viewBox="0 0 30 40" fill="none" xmlns="http://www.w3.org/2000/svg">
<path d="M2.5 22.3941C2.5 23.7777 3.45043 24.704 4.84601 24.704H10.2839V30.154C10.2839 31.5496 11.2103 32.4879 12.5938 32.4879H17.4061C18.7897 32.4879 19.716 31.5496 19.716 30.154V24.704H25.1659C26.5615 24.704 27.5 23.7777 27.5 22.3941V17.5818C27.5 16.1983 26.5615 15.2719 25.1659 15.2719H19.716V9.83397C19.716 8.4384 18.7897 7.5 17.4061 7.5H12.5938C11.2103 7.5 10.2839 8.4384 10.2839 9.83397V15.2719H4.83397C3.4384 15.2719 2.5 16.1983 2.5 17.5818V22.3941Z" fill="#1D70B8"/>
</svg>
