<svg width="40" height="40" viewBox="0 0 40 40" fill="none" xmlns="http://www.w3.org/2000/svg">
<rect width="40" height="40" rx="20" fill="white"/>
<path d="M18.4883 28.7188C17.9414 28.7188 17.5312 28.5137 17.1602 28.0547L12.1016 21.8242C11.8184 21.4824 11.7012 21.1602 11.7012 20.8184C11.7012 20.0371 12.2773 19.4707 13.0781 19.4707C13.5566 19.4707 13.8887 19.6465 14.2109 20.0469L18.4492 25.418L26.7207 12.3125C27.0527 11.7852 27.3848 11.5898 27.9316 11.5898C28.7227 11.5898 29.2891 12.1465 29.2891 12.918C29.2891 13.2207 29.2012 13.5332 28.9668 13.8848L19.8262 28.0254C19.5137 28.4941 19.0645 28.7188 18.4883 28.7188Z" fill="#1D70B8"/>
</svg>
