<svg width="36" height="40" viewBox="0 0 36 40" fill="none" xmlns="http://www.w3.org/2000/svg">
<path d="M8.59509 15.1452C8.52147 15.4357 8.54601 15.6556 8.66871 15.805C8.79141 15.9461 9.00409 16.0083 9.30675 15.9917C9.90389 15.9585 10.5869 15.9253 11.3558 15.8921C12.1247 15.8589 13.045 15.8299 14.1166 15.805C15.1881 15.7801 16.4806 15.7676 17.9939 15.7676C19.5153 15.7676 20.8119 15.7801 21.8834 15.805C22.955 15.8299 23.8753 15.8589 24.6442 15.8921C25.4131 15.9253 26.0961 15.9585 26.6933 15.9917C27.0041 16.0083 27.2168 15.9461 27.3313 15.805C27.454 15.6556 27.4826 15.4357 27.4172 15.1452C27.3272 14.7635 27.2127 14.3527 27.0736 13.9129C26.9427 13.473 26.8078 13.0622 26.6687 12.6805C26.5378 12.2988 26.4151 12.0041 26.3006 11.7967C26.1043 11.4481 25.8834 11.195 25.638 11.0373C25.4008 10.8714 25.0777 10.7593 24.6687 10.7012C24.2597 10.6349 23.5112 10.5892 22.4233 10.5643C21.3354 10.5311 19.8589 10.5145 17.9939 10.5145C16.1288 10.5145 14.6564 10.5311 13.5767 10.5643C12.4969 10.5975 11.7485 10.6432 11.3313 10.7012C10.9223 10.7593 10.5951 10.8714 10.3497 11.0373C10.1043 11.195 9.88753 11.4481 9.69939 11.7967C9.59305 12.0124 9.46626 12.3112 9.31902 12.6929C9.17996 13.0664 9.0409 13.473 8.90184 13.9129C8.77096 14.3527 8.66871 14.7635 8.59509 15.1452ZM8.92638 24.8672C9.52352 24.8672 10.0225 24.6639 10.4233 24.2573C10.8323 23.8423 11.0368 23.3361 11.0368 22.7386C11.0368 22.1245 10.8323 21.6141 10.4233 21.2075C10.0225 20.7925 9.52352 20.5851 8.92638 20.5851C8.32106 20.5851 7.818 20.7925 7.41718 21.2075C7.01636 21.6141 6.81595 22.1245 6.81595 22.7386C6.81595 23.3361 7.01636 23.8423 7.41718 24.2573C7.818 24.6639 8.32106 24.8672 8.92638 24.8672ZM14.6442 24.332H21.3558C21.8057 24.332 22.1738 24.1867 22.4601 23.8963C22.7464 23.6058 22.8896 23.2324 22.8896 22.7759C22.8896 22.3195 22.7464 21.9502 22.4601 21.668C22.1738 21.3776 21.8057 21.2324 21.3558 21.2324H14.6442C14.1943 21.2324 13.8262 21.3776 13.5399 21.668C13.2536 21.9502 13.1104 22.3195 13.1104 22.7759C13.1104 23.2324 13.2536 23.6058 13.5399 23.8963C13.8262 24.1867 14.1943 24.332 14.6442 24.332ZM27.0736 24.8672C27.6708 24.8672 28.1697 24.6639 28.5706 24.2573C28.9795 23.8423 29.184 23.3361 29.184 22.7386C29.184 22.1245 28.9795 21.6141 28.5706 21.2075C28.1697 20.7925 27.6708 20.5851 27.0736 20.5851C26.4765 20.5851 25.9775 20.7925 25.5767 21.2075C25.1759 21.6141 24.9755 22.1245 24.9755 22.7386C24.9755 23.3361 25.1759 23.8423 25.5767 24.2573C25.9775 24.6639 26.4765 24.8672 27.0736 24.8672ZM17.9939 28.4149C16.9387 28.4149 15.8262 28.4025 14.6564 28.3776C13.4949 28.3527 12.3538 28.3195 11.2331 28.278C10.1207 28.2282 9.10225 28.1743 8.17791 28.1162C7.25358 28.0581 6.50102 27.9959 5.92025 27.9295C4.99591 27.8216 4.27607 27.5062 3.76074 26.9834C3.25358 26.4523 3 25.7386 3 24.8423V22.7884C3 22.0332 3.04908 21.3776 3.14724 20.8216C3.2454 20.2573 3.40491 19.7344 3.62577 19.2531C3.84663 18.7718 4.15337 18.278 4.54601 17.7718L5.66258 16.3651C5.80982 15.6183 5.98977 14.8797 6.20245 14.1494C6.41513 13.4191 6.62372 12.7635 6.82822 12.1826C7.0409 11.6017 7.22086 11.1577 7.3681 10.8506C7.71166 10.0954 8.21063 9.49378 8.86503 9.04564C9.51943 8.58921 10.2843 8.30705 11.1595 8.19917C11.4622 8.15768 11.9407 8.12448 12.5951 8.09959C13.2495 8.06639 14.0348 8.04149 14.9509 8.0249C15.8753 8.0083 16.8896 8 17.9939 8C19.1063 8 20.1207 8.0083 21.0368 8.0249C21.9611 8.0332 22.7464 8.05394 23.3926 8.08714C24.047 8.11203 24.5337 8.14938 24.8528 8.19917C25.7198 8.31535 26.4806 8.59751 27.135 9.04564C27.7894 9.49378 28.2924 10.0954 28.6442 10.8506C28.7832 11.1577 28.955 11.6017 29.1595 12.1826C29.3722 12.7635 29.5849 13.4191 29.7975 14.1494C30.0102 14.8797 30.1902 15.6183 30.3374 16.3651L31.454 17.7718C31.8384 18.278 32.1452 18.7718 32.3742 19.2531C32.6033 19.7344 32.7628 20.2573 32.8528 20.8216C32.9509 21.3776 33 22.0332 33 22.7884V24.8423C33 25.7386 32.7423 26.4481 32.227 26.971C31.7198 27.4938 31.0041 27.8133 30.0798 27.9295C29.499 27.9959 28.7423 28.0581 27.8098 28.1162C26.8855 28.1743 25.863 28.2282 24.7423 28.278C23.6299 28.3195 22.4928 28.3527 21.3313 28.3776C20.1697 28.4025 19.0573 28.4149 17.9939 28.4149ZM4.68098 32C4.20654 32 3.80573 31.834 3.47853 31.5021C3.15951 31.1784 3 30.7759 3 30.2946V24.5685L7.87117 27.0954V30.2946C7.87117 30.7759 7.70757 31.1784 7.38037 31.5021C7.05317 31.834 6.65235 32 6.17791 32H4.68098ZM29.8221 32C29.3476 32 28.9468 31.834 28.6196 31.5021C28.3006 31.1784 28.1411 30.7759 28.1411 30.2946V27.0954L33 24.5685V30.2946C33 30.7759 32.8364 31.1784 32.5092 31.5021C32.1902 31.834 31.7935 32 31.319 32H29.8221Z" fill="#1D70B8"/>
</svg>
