<svg width="41" height="40" viewBox="0 0 41 40" fill="none" xmlns="http://www.w3.org/2000/svg">
<path d="M11.7221 15.5734C11.6534 15.8406 11.6763 16.0429 11.7908 16.1804C11.9053 16.3102 12.1038 16.3674 12.3863 16.3521C12.9436 16.3216 13.5811 16.2911 14.2988 16.2605C15.0164 16.23 15.8753 16.2033 16.8755 16.1804C17.8756 16.1575 19.0819 16.146 20.4943 16.146C21.9143 16.146 23.1244 16.1575 24.1245 16.1804C25.1247 16.2033 25.9836 16.23 26.7012 16.2605C27.4189 16.2911 28.0564 16.3216 28.6137 16.3521C28.9038 16.3674 29.1023 16.3102 29.2092 16.1804C29.3237 16.0429 29.3504 15.8406 29.2894 15.5734C29.2054 15.2222 29.0985 14.8443 28.9687 14.4397C28.8466 14.035 28.7206 13.6571 28.5908 13.3059C28.4686 12.9547 28.3541 12.6837 28.2472 12.4928C28.064 12.1722 27.8579 11.9393 27.6288 11.7943C27.4074 11.6416 27.1059 11.5385 26.7241 11.4851C26.3424 11.424 25.6438 11.382 24.6284 11.3591C23.613 11.3286 22.235 11.3133 20.4943 11.3133C18.7536 11.3133 17.3793 11.3286 16.3716 11.3591C15.3638 11.3896 14.6652 11.4316 14.2759 11.4851C13.8941 11.5385 13.5888 11.6416 13.3597 11.7943C13.1307 11.9393 12.9284 12.1722 12.7528 12.4928C12.6535 12.6913 12.5352 12.9662 12.3978 13.3174C12.268 13.6609 12.1382 14.035 12.0084 14.4397C11.8862 14.8443 11.7908 15.2222 11.7221 15.5734ZM12.0313 24.5174C12.5886 24.5174 13.0543 24.3303 13.4284 23.9562C13.8102 23.5745 14.001 23.1088 14.001 22.5591C14.001 21.9941 13.8102 21.5246 13.4284 21.1505C13.0543 20.7688 12.5886 20.5779 12.0313 20.5779C11.4663 20.5779 10.9968 20.7688 10.6227 21.1505C10.2486 21.5246 10.0616 21.9941 10.0616 22.5591C10.0616 23.1088 10.2486 23.5745 10.6227 23.9562C10.9968 24.3303 11.4663 24.5174 12.0313 24.5174ZM17.3679 24.025H23.6321C24.052 24.025 24.3956 23.8913 24.6628 23.6241C24.93 23.3569 25.0636 23.0134 25.0636 22.5935C25.0636 22.1736 24.93 21.8338 24.6628 21.5742C24.3956 21.307 24.052 21.1734 23.6321 21.1734H17.3679C16.948 21.1734 16.6044 21.307 16.3372 21.5742C16.07 21.8338 15.9364 22.1736 15.9364 22.5935C15.9364 23.0134 16.07 23.3569 16.3372 23.6241C16.6044 23.8913 16.948 24.025 17.3679 24.025ZM28.9687 24.5174C29.526 24.5174 29.9918 24.3303 30.3658 23.9562C30.7476 23.5745 30.9384 23.1088 30.9384 22.5591C30.9384 21.9941 30.7476 21.5246 30.3658 21.1505C29.9918 20.7688 29.526 20.5779 28.9687 20.5779C28.4114 20.5779 27.9457 20.7688 27.5716 21.1505C27.1975 21.5246 27.0104 21.9941 27.0104 22.5591C27.0104 23.1088 27.1975 23.5745 27.5716 23.9562C27.9457 24.3303 28.4114 24.5174 28.9687 24.5174ZM20.4943 27.7812C19.5094 27.7812 18.4711 27.7697 17.3793 27.7468C16.2952 27.7239 15.2302 27.6934 14.1843 27.6552C13.1459 27.6094 12.1954 27.5598 11.3327 27.5063C10.47 27.4529 9.76762 27.3956 9.22556 27.3346C8.36285 27.2353 7.691 26.9452 7.21002 26.4642C6.73667 25.9756 6.5 25.319 6.5 24.4945V22.6049C6.5 21.9102 6.54581 21.307 6.63742 20.7955C6.72904 20.2763 6.87791 19.7954 7.08405 19.3526C7.29018 18.9097 7.57648 18.4555 7.94294 17.9898L8.98507 16.6957C9.12249 16.0086 9.29046 15.3291 9.48896 14.6573C9.68746 13.9854 9.88214 13.3823 10.073 12.8479C10.2715 12.3134 10.4395 11.905 10.5769 11.6225C10.8975 10.9277 11.3633 10.3742 11.974 9.96196C12.5848 9.54206 13.2986 9.28248 14.1155 9.18323C14.398 9.14506 14.8446 9.11452 15.4554 9.09162C16.0662 9.06108 16.7991 9.03817 17.6542 9.0229C18.5169 9.00763 19.4636 9 20.4943 9C21.5326 9 22.4793 9.00763 23.3344 9.0229C24.1971 9.03054 24.93 9.04963 25.5331 9.08016C26.1439 9.10307 26.5982 9.13742 26.8959 9.18323C27.7052 9.29012 28.4152 9.54969 29.026 9.96196C29.6367 10.3742 30.1063 10.9277 30.4346 11.6225C30.5643 11.905 30.7247 12.3134 30.9155 12.8479C31.114 13.3823 31.3125 13.9854 31.511 14.6573C31.7095 15.3291 31.8775 16.0086 32.0149 16.6957L33.0571 17.9898C33.4159 18.4555 33.7022 18.9097 33.9159 19.3526C34.1297 19.7954 34.2786 20.2763 34.3626 20.7955C34.4542 21.307 34.5 21.9102 34.5 22.6049V24.4945C34.5 25.319 34.2595 25.9718 33.7785 26.4528C33.3052 26.9337 32.6371 27.2277 31.7744 27.3346C31.2324 27.3956 30.5262 27.4529 29.6558 27.5063C28.7931 27.5598 27.8388 27.6094 26.7928 27.6552C25.7545 27.6934 24.6933 27.7239 23.6092 27.7468C22.5251 27.7697 21.4868 27.7812 20.4943 27.7812ZM8.06892 31.0793C7.62611 31.0793 7.25201 30.9267 6.94663 30.6213C6.64888 30.3235 6.5 29.9532 6.5 29.5104V24.2425L11.0464 26.5673V29.5104C11.0464 29.9532 10.8937 30.3235 10.5883 30.6213C10.283 30.9267 9.90886 31.0793 9.46605 31.0793H8.06892ZM31.5339 31.0793C31.0911 31.0793 30.717 30.9267 30.4117 30.6213C30.1139 30.3235 29.965 29.9532 29.965 29.5104V26.5673L34.5 24.2425V29.5104C34.5 29.9532 34.3473 30.3235 34.0419 30.6213C33.7442 30.9267 33.3739 31.0793 32.9311 31.0793H31.5339Z" fill="#1D70B8"/>
</svg>
