<svg width="30" height="40" viewBox="0 0 30 40" fill="none" xmlns="http://www.w3.org/2000/svg">
<path d="M6.22209 15.5734C6.15337 15.8406 6.17628 16.0429 6.2908 16.1804C6.40532 16.3102 6.60382 16.3674 6.8863 16.3521C7.44363 16.3216 8.08112 16.2911 8.79877 16.2605C9.51643 16.23 10.3753 16.2033 11.3755 16.1804C12.3756 16.1575 13.5819 16.146 14.9943 16.146C16.4143 16.146 17.6244 16.1575 18.6245 16.1804C19.6247 16.2033 20.4836 16.23 21.2012 16.2605C21.9189 16.2911 22.5564 16.3216 23.1137 16.3521C23.4038 16.3674 23.6023 16.3102 23.7092 16.1804C23.8237 16.0429 23.8504 15.8406 23.7894 15.5734C23.7054 15.2222 23.5985 14.8443 23.4687 14.4397C23.3466 14.035 23.2206 13.6571 23.0908 13.3059C22.9686 12.9547 22.8541 12.6837 22.7472 12.4928C22.564 12.1722 22.3579 11.9393 22.1288 11.7943C21.9074 11.6416 21.6059 11.5385 21.2241 11.4851C20.8424 11.424 20.1438 11.382 19.1284 11.3591C18.113 11.3286 16.735 11.3133 14.9943 11.3133C13.2536 11.3133 11.8793 11.3286 10.8716 11.3591C9.8638 11.3896 9.16523 11.4316 8.77587 11.4851C8.39414 11.5385 8.08875 11.6416 7.85971 11.7943C7.63067 11.9393 7.42836 12.1722 7.25276 12.4928C7.15351 12.6913 7.03517 12.9662 6.89775 13.3174C6.76796 13.6609 6.63817 14.035 6.50838 14.4397C6.38623 14.8443 6.2908 15.2222 6.22209 15.5734ZM6.53129 24.5174C7.08862 24.5174 7.55433 24.3303 7.92842 23.9562C8.31016 23.5745 8.50102 23.1088 8.50102 22.5591C8.50102 21.9941 8.31016 21.5246 7.92842 21.1505C7.55433 20.7688 7.08862 20.5779 6.53129 20.5779C5.96633 20.5779 5.4968 20.7688 5.1227 21.1505C4.7486 21.5246 4.56155 21.9941 4.56155 22.5591C4.56155 23.1088 4.7486 23.5745 5.1227 23.9562C5.4968 24.3303 5.96633 24.5174 6.53129 24.5174ZM11.8679 24.025H18.1321C18.552 24.025 18.8956 23.8913 19.1628 23.6241C19.43 23.3569 19.5636 23.0134 19.5636 22.5935C19.5636 22.1736 19.43 21.8338 19.1628 21.5742C18.8956 21.307 18.552 21.1734 18.1321 21.1734H11.8679C11.448 21.1734 11.1044 21.307 10.8372 21.5742C10.57 21.8338 10.4364 22.1736 10.4364 22.5935C10.4364 23.0134 10.57 23.3569 10.8372 23.6241C11.1044 23.8913 11.448 24.025 11.8679 24.025ZM23.4687 24.5174C24.026 24.5174 24.4918 24.3303 24.8658 23.9562C25.2476 23.5745 25.4384 23.1088 25.4384 22.5591C25.4384 21.9941 25.2476 21.5246 24.8658 21.1505C24.4918 20.7688 24.026 20.5779 23.4687 20.5779C22.9114 20.5779 22.4457 20.7688 22.0716 21.1505C21.6975 21.5246 21.5104 21.9941 21.5104 22.5591C21.5104 23.1088 21.6975 23.5745 22.0716 23.9562C22.4457 24.3303 22.9114 24.5174 23.4687 24.5174ZM14.9943 27.7812C14.0094 27.7812 12.9711 27.7697 11.8793 27.7468C10.7952 27.7239 9.7302 27.6934 8.68425 27.6552C7.64594 27.6094 6.69543 27.5598 5.83272 27.5063C4.97001 27.4529 4.26762 27.3956 3.72556 27.3346C2.86285 27.2353 2.191 26.9452 1.71002 26.4642C1.23667 25.9756 1 25.319 1 24.4945V22.6049C1 21.9102 1.04581 21.307 1.13742 20.7955C1.22904 20.2763 1.37791 19.7954 1.58405 19.3526C1.79018 18.9097 2.07648 18.4555 2.44294 17.9898L3.48507 16.6957C3.62249 16.0086 3.79046 15.3291 3.98896 14.6573C4.18746 13.9854 4.38214 13.3823 4.57301 12.8479C4.77151 12.3134 4.93947 11.905 5.07689 11.6225C5.39755 10.9277 5.86326 10.3742 6.47403 9.96196C7.0848 9.54206 7.79864 9.28248 8.61554 9.18323C8.89802 9.14506 9.34465 9.11452 9.95542 9.09162C10.5662 9.06108 11.2991 9.03817 12.1542 9.0229C13.0169 9.00763 13.9636 9 14.9943 9C16.0326 9 16.9793 9.00763 17.8344 9.0229C18.6971 9.03054 19.43 9.04963 20.0331 9.08016C20.6439 9.10307 21.0982 9.13742 21.3959 9.18323C22.2052 9.29012 22.9152 9.54969 23.526 9.96196C24.1367 10.3742 24.6063 10.9277 24.9346 11.6225C25.0643 11.905 25.2247 12.3134 25.4155 12.8479C25.614 13.3823 25.8125 13.9854 26.011 14.6573C26.2095 15.3291 26.3775 16.0086 26.5149 16.6957L27.5571 17.9898C27.9159 18.4555 28.2022 18.9097 28.4159 19.3526C28.6297 19.7954 28.7786 20.2763 28.8626 20.7955C28.9542 21.307 29 21.9102 29 22.6049V24.4945C29 25.319 28.7595 25.9718 28.2785 26.4528C27.8052 26.9337 27.1371 27.2277 26.2744 27.3346C25.7324 27.3956 25.0262 27.4529 24.1558 27.5063C23.2931 27.5598 22.3388 27.6094 21.2928 27.6552C20.2545 27.6934 19.1933 27.7239 18.1092 27.7468C17.0251 27.7697 15.9868 27.7812 14.9943 27.7812ZM2.56892 31.0793C2.12611 31.0793 1.75201 30.9267 1.44663 30.6213C1.14888 30.3235 1 29.9532 1 29.5104V24.2425L5.54642 26.5673V29.5104C5.54642 29.9532 5.39373 30.3235 5.08834 30.6213C4.78296 30.9267 4.40886 31.0793 3.96605 31.0793H2.56892ZM26.0339 31.0793C25.5911 31.0793 25.217 30.9267 24.9117 30.6213C24.6139 30.3235 24.465 29.9532 24.465 29.5104V26.5673L29 24.2425V29.5104C29 29.9532 28.8473 30.3235 28.5419 30.6213C28.2442 30.9267 27.8739 31.0793 27.4311 31.0793H26.0339Z" fill="#1D70B8"/>
</svg>
