<svg width="137" height="178" viewBox="0 0 137 178" fill="none" xmlns="http://www.w3.org/2000/svg">
<g clip-path="url(#clip0_7332_22746)">
<path d="M80.485 53.1836L73.575 27.3936C69.415 11.8836 53.485 2.68364 37.975 6.84364C22.475 10.9936 13.275 26.9336 17.425 42.4336L25.925 74.1436" stroke="#8EB8DC" stroke-width="10" stroke-miterlimit="10" stroke-linecap="round"/>
<path d="M96.0249 71.2227H10.7749C4.97591 71.2227 0.274902 75.9237 0.274902 81.7227V132.293C0.274902 138.092 4.97591 142.793 10.7749 142.793H96.0249C101.824 142.793 106.525 138.092 106.525 132.293V81.7227C106.525 75.9237 101.824 71.2227 96.0249 71.2227Z" fill="#1D70B8"/>
<path d="M101.605 107.422C120.725 107.422 136.225 122.922 136.225 142.042C136.225 161.162 120.725 176.662 101.605 176.662C82.4849 176.662 66.9849 161.162 66.9849 142.042C66.9849 122.922 82.4849 107.422 101.605 107.422Z" fill="#8EB8DC" stroke="#8EB8DC"/>
<path d="M120.205 127.552C120.205 128.122 120.035 128.642 119.635 129.282L100.785 158.962C100.215 159.852 99.3748 160.312 98.3548 160.312C97.3348 160.312 96.6048 159.892 95.8948 158.962L85.5447 145.782C85.1047 145.222 84.8647 144.592 84.8647 144.022C84.8647 142.652 85.8747 141.662 87.2647 141.662C88.1447 141.662 88.7947 142.022 89.3747 142.852L98.2347 154.442L115.765 126.502C116.335 125.602 116.935 125.262 117.895 125.262C119.255 125.262 120.205 126.202 120.205 127.562V127.552Z" fill="#1D70B8"/>
</g>
<defs>
<clipPath id="clip0_7332_22746">
<rect width="136.45" height="176.31" fill="white" transform="translate(0.274902 0.84375)"/>
</clipPath>
</defs>
</svg>
