<svg width="175" height="159" viewBox="0 0 175 159" fill="none" xmlns="http://www.w3.org/2000/svg">
<path d="M87.3892 89.3604C111.962 89.3604 131.882 69.4403 131.882 44.8677C131.882 20.2951 111.962 0.375 87.3892 0.375C62.8165 0.375 42.8965 20.2951 42.8965 44.8677C42.8965 69.4403 62.8165 89.3604 87.3892 89.3604Z" fill="#1D70B8"/>
<path d="M125.389 125.375C125.389 118.195 108.824 112.375 88.3892 112.375C67.9546 112.375 51.3892 118.195 51.3892 125.375C51.3892 132.555 67.9546 138.375 88.3892 138.375C108.824 138.375 125.389 132.555 125.389 125.375Z" fill="#8EB8DC"/>
<path opacity="0.4" d="M174.143 127.625C174.143 110.504 135.192 96.625 87.1428 96.625C39.0941 96.625 0.142822 110.504 0.142822 127.625C0.142822 144.746 39.0941 158.625 87.1428 158.625C135.192 158.625 174.143 144.746 174.143 127.625Z" fill="#8EB8DC"/>
<path d="M125.689 67.4653L87.3982 125.671L50.6886 69.9653L87.3892 44.8677L125.689 67.4653Z" fill="#1D70B8"/>
<path d="M87.3892 60.9685C96.2814 60.9685 103.49 53.7599 103.49 44.8677C103.49 35.9754 96.2814 28.7668 87.3892 28.7668C78.4969 28.7668 71.2883 35.9754 71.2883 44.8677C71.2883 53.7599 78.4969 60.9685 87.3892 60.9685Z" fill="#262626"/>
</svg>
