<svg width="40" height="40" viewBox="0 0 40 40" fill="none" xmlns="http://www.w3.org/2000/svg">
<path d="M19.9004 11.9717C20.252 11.9717 20.5498 12.0986 20.7939 12.3525C21.0479 12.5967 21.1748 12.8945 21.1748 13.2461V23.5439L19.5781 18.666L24.5439 25.375C24.7783 25.6973 24.8809 26.0342 24.8516 26.3857C24.832 26.7373 24.6758 27.0107 24.3828 27.2061C24.0508 27.4404 23.709 27.5283 23.3574 27.4697C23.0156 27.4111 22.708 27.2061 22.4346 26.8545L18.9922 22.2988C18.8555 22.1328 18.7578 21.9717 18.6992 21.8154C18.6406 21.6494 18.6113 21.4736 18.6113 21.2881V13.2461C18.6113 12.8945 18.7334 12.5967 18.9775 12.3525C19.2314 12.0986 19.5391 11.9717 19.9004 11.9717ZM19.9004 35.7021C18.3574 35.7021 16.8486 35.4678 15.374 34.999C13.9092 34.5303 12.5518 33.8711 11.3018 33.0215C10.0518 32.1719 8.99219 31.1709 8.12305 30.0186C7.75195 29.5791 7.58594 29.125 7.625 28.6562C7.66406 28.1875 7.86426 27.8115 8.22559 27.5283C8.62598 27.2158 9.0459 27.1084 9.48535 27.2061C9.93457 27.2939 10.3301 27.5234 10.6719 27.8945C11.4043 28.8027 12.2441 29.5889 13.1914 30.2529C14.1484 30.917 15.1934 31.4297 16.3262 31.791C17.459 32.1621 18.6504 32.3477 19.9004 32.3477C21.5508 32.3477 23.0938 32.04 24.5293 31.4248C25.9746 30.8096 27.2393 29.9551 28.3232 28.8613C29.417 27.7578 30.2715 26.4883 30.8867 25.0527C31.5117 23.6074 31.8242 22.0645 31.8242 20.4238C31.8242 18.7734 31.5117 17.2305 30.8867 15.7949C30.2715 14.3496 29.417 13.0801 28.3232 11.9863C27.2393 10.8926 25.9746 10.0381 24.5293 9.42285C23.0938 8.80762 21.5508 8.5 19.9004 8.5C18.2402 8.5 16.6924 8.80762 15.2568 9.42285C13.8213 10.0381 12.5566 10.8926 11.4629 11.9863C10.3691 13.0801 9.51465 14.3496 8.89941 15.7949C8.28418 17.2305 7.97656 18.7734 7.97656 20.4238H4.62207C4.62207 18.3145 5.0127 16.3369 5.79395 14.4912C6.58496 12.6455 7.68359 11.0244 9.08984 9.62793C10.4961 8.22168 12.1221 7.12305 13.9678 6.33203C15.8135 5.54102 17.791 5.14551 19.9004 5.14551C22.0098 5.14551 23.9873 5.54102 25.833 6.33203C27.6787 7.12305 29.2998 8.22168 30.6963 9.62793C32.0928 11.0244 33.1865 12.6455 33.9775 14.4912C34.7783 16.3369 35.1787 18.3145 35.1787 20.4238C35.1787 22.5332 34.7783 24.5107 33.9775 26.3564C33.1865 28.2021 32.0928 29.8232 30.6963 31.2197C29.2998 32.6162 27.6787 33.71 25.833 34.501C23.9873 35.3018 22.0098 35.7021 19.9004 35.7021ZM3.14258 17.4648H10.2324C10.5938 17.4648 10.8672 17.5527 11.0527 17.7285C11.2383 17.8945 11.3262 18.1094 11.3164 18.373C11.3164 18.627 11.2139 18.8955 11.0088 19.1787L7.52246 23.9688C7.28809 24.291 7.00977 24.4521 6.6875 24.4521C6.36523 24.4521 6.08203 24.291 5.83789 23.9688L2.35156 19.1934C2.13672 18.9102 2.02441 18.6367 2.01465 18.373C2.01465 18.1094 2.10742 17.8945 2.29297 17.7285C2.48828 17.5527 2.77148 17.4648 3.14258 17.4648Z" fill="#1D70B8"/>
</svg>
