<svg width="42" height="42" viewBox="0 0 42 42" fill="none" xmlns="http://www.w3.org/2000/svg">
<rect x="0.703704" y="0.703704" width="40.5926" height="40.5926" rx="20.2963" fill="#1D70B8"/>
<rect x="0.703704" y="0.703704" width="40.5926" height="40.5926" rx="20.2963" stroke="#1D70B8" stroke-width="0.592593"/>
<path d="M21.1625 22.2128C17.5211 22.2128 14.5562 19.2478 14.5562 15.6064C14.5562 11.965 17.5211 9 21.1625 9C24.804 9 27.769 11.965 27.769 15.6064C27.769 19.2478 24.804 22.2128 21.1625 22.2128ZM21.1625 11.8354C19.0846 11.8354 17.3915 13.5285 17.3915 15.6064C17.3915 17.6843 19.0846 19.3775 21.1625 19.3775C23.2405 19.3775 24.9336 17.6843 24.9336 15.6064C24.9336 13.5285 23.2405 11.8354 21.1625 11.8354Z" fill="white"/>
<path d="M15.0951 32.7036H12.2598V25.0521H29.8755V27.8875H15.0951V32.7036Z" fill="white"/>
</svg>
