<svg width="40" height="40" viewBox="0 0 40 40" fill="none" xmlns="http://www.w3.org/2000/svg">
<path fill-rule="evenodd" clip-rule="evenodd" d="M20 7.14257C16.7923 7.14257 14.1919 9.74294 14.1919 12.9507C14.1919 16.1584 16.7923 18.7587 20 18.7587C23.2077 18.7587 25.8081 16.1584 25.8081 12.9507C25.8081 9.74294 23.2077 7.14257 20 7.14257ZM10.5493 12.9507C10.5493 7.7312 14.7805 3.5 20 3.5C25.2194 3.5 29.4506 7.7312 29.4506 12.9507C29.4506 18.1701 25.2194 22.4013 20 22.4013C14.7805 22.4013 10.5493 18.1701 10.5493 12.9507Z" fill="#1D70B8"/>
<path fill-rule="evenodd" clip-rule="evenodd" d="M7.18262 26.401H32.8178V30.0436H10.8252V36.5001H7.18262V26.401Z" fill="#1D70B8"/>
</svg>
