<svg width="231" height="209" viewBox="0 0 231 209" fill="none" xmlns="http://www.w3.org/2000/svg">
<g clip-path="url(#clip0_7471_12970)">
<path d="M0.39502 31.8751C0.39502 49.4635 14.6545 63.7411 32.261 63.7411H70.9212C73.9418 63.7411 76.8172 65.0745 78.7766 67.3785L95.7119 87.3345C97.0907 88.9582 99.694 87.5431 99.0863 85.5022L95.9205 74.8711C94.3331 69.5555 97.2267 63.8953 102.497 62.1809C107.323 60.6117 111.64 57.9176 115.151 54.4072C121.074 48.4839 124.666 40.2566 124.476 31.1857C124.113 13.7515 109.409 0 91.9656 0H32.261C23.4532 0 15.489 3.57393 9.72896 9.33394C3.95988 15.103 0.39502 23.0854 0.39502 31.8751ZM85.5525 39.1862C81.5069 39.1862 78.2414 35.9026 78.2414 31.8751C78.2414 27.8295 81.5159 24.5549 85.5525 24.5549C89.589 24.5549 92.8727 27.8385 92.8727 31.8751C92.8727 35.9026 89.589 39.1862 85.5525 39.1862ZM56.0449 31.8751C56.0449 27.8295 59.3195 24.5549 63.356 24.5549C67.3926 24.5549 70.6762 27.8385 70.6762 31.8751C70.6762 35.9026 67.3926 39.1862 63.356 39.1862C59.3104 39.1862 56.0449 35.9026 56.0449 31.8751ZM33.8484 31.8751C33.8484 27.8295 37.123 24.5549 41.1596 24.5549C45.1961 24.5549 48.4798 27.8385 48.4798 31.8751C48.4798 35.9026 45.1961 39.1862 41.1596 39.1862C37.114 39.1862 33.8484 35.9026 33.8484 31.8751Z" fill="#D2E2F1"/>
<path d="M78.2413 31.8749C78.2413 35.9024 81.5159 39.186 85.5525 39.186C89.589 39.186 92.8727 35.9024 92.8727 31.8749C92.8727 27.8293 89.589 24.5547 85.5525 24.5547C81.5159 24.5547 78.2413 27.8383 78.2413 31.8749Z" fill="#D2E2F1"/>
<path d="M56.0449 31.8749C56.0449 35.9024 59.3195 39.186 63.3561 39.186C67.4017 39.186 70.6763 35.9024 70.6763 31.8749C70.6763 27.8293 67.3926 24.5547 63.3561 24.5547C59.3195 24.5547 56.0449 27.8383 56.0449 31.8749Z" fill="#D2E2F1"/>
<path d="M33.8483 31.8749C33.8483 35.9024 37.1229 39.186 41.1594 39.186C45.205 39.186 48.4796 35.9024 48.4796 31.8749C48.4796 27.8293 45.1959 24.5547 41.1594 24.5547C37.1229 24.5547 33.8483 27.8383 33.8483 31.8749Z" fill="#D2E2F1"/>
<path opacity="0.4" d="M33.8483 31.8749C33.8483 35.9024 37.1229 39.186 41.1594 39.186C45.205 39.186 48.4796 35.9024 48.4796 31.8749C48.4796 27.8293 45.1959 24.5547 41.1594 24.5547C37.1229 24.5547 33.8483 27.8383 33.8483 31.8749Z" fill="#1D70B8"/>
<path opacity="0.7" d="M56.0449 31.8749C56.0449 35.9024 59.3195 39.186 63.3561 39.186C67.4017 39.186 70.6763 35.9024 70.6763 31.8749C70.6763 27.8293 67.3926 24.5547 63.3561 24.5547C59.3195 24.5547 56.0449 27.8383 56.0449 31.8749Z" fill="#1D70B8"/>
<path d="M78.2413 31.8749C78.2413 35.9024 81.5159 39.186 85.5525 39.186C89.589 39.186 92.8727 35.9024 92.8727 31.8749C92.8727 27.8293 89.589 24.5547 85.5525 24.5547C81.5159 24.5547 78.2413 27.8383 78.2413 31.8749Z" fill="#1D70B8"/>
<path d="M57.3057 172.692C81.8783 172.692 101.798 152.772 101.798 128.2C101.798 103.627 81.8783 83.707 57.3057 83.707C32.733 83.707 12.813 103.627 12.813 128.2C12.813 152.772 32.733 172.692 57.3057 172.692Z" fill="#1D70B8"/>
<path d="M96.6098 149.089L57.3147 209.003L18.0197 149.089L57.3057 128.199L96.6098 149.089Z" fill="#1D70B8"/>
<path d="M57.3057 144.299C66.1979 144.299 73.4065 137.091 73.4065 128.198C73.4065 119.306 66.1979 112.098 57.3057 112.098C48.4134 112.098 41.2048 119.306 41.2048 128.198C41.2048 137.091 48.4134 144.299 57.3057 144.299Z" fill="black"/>
<path d="M125.346 209.004H186.049C201.298 209.004 213.661 196.642 213.661 181.392C213.661 166.143 201.298 153.78 186.049 153.78H125.346C110.097 153.78 97.7347 166.143 97.7347 181.392C97.7347 196.642 110.097 209.004 125.346 209.004Z" fill="#D2E2F1"/>
<path d="M161.605 181.09C161.605 194.23 172.258 204.883 185.398 204.883C198.538 204.883 209.191 194.23 209.191 181.09C209.191 167.949 198.538 157.297 185.398 157.297C172.258 157.297 161.605 167.949 161.605 181.09Z" fill="#1D70B8"/>
<path d="M178.039 11.7196C178.039 8.97927 175.818 6.75781 173.077 6.75781C170.337 6.75781 168.115 8.97927 168.115 11.7196V35.1134C168.115 37.8537 170.337 40.0752 173.077 40.0752C175.818 40.0752 178.039 37.8537 178.039 35.1134V11.7196Z" fill="#1D70B8"/>
<path d="M188.697 125.995C188.697 128.445 188.135 130.776 187.146 132.862C185.913 135.456 184.017 137.706 181.658 139.339C179.01 141.198 175.78 142.296 172.343 142.296C170.265 142.296 168.279 141.906 166.437 141.18C160.342 138.813 155.997 132.871 155.997 125.986C155.997 121.814 157.575 118.004 160.169 115.11C163.163 111.754 167.526 109.641 172.343 109.641C181.25 109.641 188.697 116.988 188.697 125.986V125.995Z" fill="#8EB8DC"/>
<path d="M224.945 122.775C224.192 123.02 223.375 123.138 222.514 123.138H122.181C115.695 123.138 111.831 115.836 115.541 110.511C121.709 101.685 124.448 90.8457 124.212 78.3007C124.203 77.1759 124.167 76.0421 124.094 74.8991C124.094 48.2489 145.701 26.6602 172.343 26.6602C176.025 26.6602 179.599 27.0774 183.037 27.8484C204.535 32.7104 220.591 51.9316 220.591 74.8991C220.518 76.0421 220.491 77.185 220.473 78.3007C220.228 90.8457 222.976 101.685 229.144 110.511C232.365 115.119 229.888 121.233 224.936 122.766L224.945 122.775Z" fill="#1D70B8"/>
<path d="M152.169 75.925C152.087 74.8002 152.051 73.6664 152.051 72.5234C152.124 73.6664 152.151 74.8093 152.169 75.925Z" fill="#1D70B8"/>
<path d="M227.711 76.3242C227.711 77.4672 227.675 78.6101 227.593 79.7258C227.602 78.601 227.639 77.4672 227.711 76.3242Z" fill="#1D70B8"/>
<path d="M209.461 25.1836C219.959 25.1837 228.742 33.8525 228.742 44.4561V44.4648C228.742 47.1672 228.166 49.7488 227.126 52.0801L226.912 52.543L226.908 52.5508C225.551 55.4219 223.49 57.9264 220.955 59.8174L220.441 60.1875L220.438 60.1904C217.312 62.3806 213.51 63.6738 209.461 63.6738C207.165 63.6738 204.96 63.2674 202.915 62.5176L202.508 62.3623L202.503 62.3604L201.834 62.0859C194.993 59.1244 190.189 52.3026 190.188 44.4561C190.188 39.6979 191.931 35.3333 194.821 31.9551L195.104 31.6318C198.643 27.6718 203.776 25.1836 209.461 25.1836Z" fill="#8EB8DC" stroke="black" stroke-width="3"/>
</g>
<defs>
<clipPath id="clip0_7471_12970">
<rect width="230.21" height="209.002" fill="white" transform="translate(0.39502)"/>
</clipPath>
</defs>
</svg>
