<svg width="40" height="40" viewBox="0 0 40 40" fill="none" xmlns="http://www.w3.org/2000/svg">
<rect width="40" height="40" rx="20" fill="#1D70B8"/>
<path d="M20.5 32C18.927 32 17.4458 31.6982 16.0566 31.0946C14.6673 30.4983 13.4434 29.6702 12.3849 28.6102C11.3265 27.5575 10.4958 26.3356 9.8931 24.9443C9.2977 23.553 9 22.0661 9 20.4834C9 19.0112 9.26095 17.6199 9.78284 16.3096C10.3121 14.992 11.0435 13.8179 11.977 12.7873C12.9179 11.7568 14.0094 10.9139 15.2517 10.2588C16.5013 9.60362 17.8464 9.19875 19.2872 9.04417V20.7374C19.2872 20.9288 19.3092 21.0834 19.3533 21.2012C19.3974 21.3116 19.4819 21.4257 19.6069 21.5434L27.6889 29.4383C26.6745 30.2554 25.5499 30.8848 24.315 31.3265C23.0874 31.7755 21.8158 32 20.5 32ZM32 20.4834C32 21.9041 31.7464 23.266 31.2392 24.5689C30.732 25.8718 30.0337 27.0238 29.1443 28.025L22.0436 21.0466L31.0187 15.9011C31.3348 16.5857 31.5773 17.3218 31.7464 18.1095C31.9155 18.8971 32 19.6884 32 20.4834ZM21.2498 19.2357V9C22.4259 9.07361 23.5652 9.33125 24.6678 9.77292C25.7704 10.2146 26.7848 10.8108 27.7109 11.5617C28.6445 12.3125 29.431 13.1811 30.0705 14.1675L21.2498 19.2357Z" fill="white"/>
</svg>
