<svg width="30" height="40" viewBox="0 0 30 40" fill="none" xmlns="http://www.w3.org/2000/svg">
<path d="M28 20.1486C28 20.5732 27.8242 20.9617 27.4727 21.3142C27.1211 21.6668 26.6476 21.951 26.0521 22.1668C25.4638 22.3827 24.8073 22.4906 24.0827 22.4906H19.6057C19.3043 22.4906 19.0748 22.5266 18.9169 22.5985C18.7663 22.6633 18.6012 22.7964 18.4219 22.9979L11.0715 30.9088C10.8275 31.1678 10.5477 31.2973 10.232 31.2973H8.7684C8.62491 31.2973 8.51729 31.2433 8.44554 31.1354C8.38097 31.0275 8.38456 30.898 8.45631 30.7469L12.266 22.5014L6.71287 21.8754L4.73267 25.383C4.58201 25.6348 4.33448 25.7607 3.9901 25.7607H3.49505C3.35156 25.7607 3.23318 25.7176 3.13991 25.6312C3.04664 25.5377 3 25.419 3 25.2751V15.0222C3 14.8711 3.04664 14.7524 3.13991 14.6661C3.23318 14.5725 3.35156 14.5258 3.49505 14.5258H3.9901C4.33448 14.5258 4.58201 14.6553 4.73267 14.9143L6.71287 18.4218L12.266 17.7959L8.45631 9.55042C8.38456 9.39932 8.38097 9.26981 8.44554 9.16189C8.51729 9.05396 8.62491 9 8.7684 9H10.232C10.5477 9 10.8275 9.12951 11.0715 9.38853L18.4219 17.2886C18.6012 17.4901 18.7663 17.6268 18.9169 17.6988C19.0748 17.7707 19.3043 17.8067 19.6057 17.8067H24.0827C24.8073 17.8067 25.4638 17.9146 26.0521 18.1305C26.6476 18.3391 27.1211 18.6233 27.4727 18.9831C27.8242 19.3356 28 19.7241 28 20.1486Z" fill="#1D70B8"/>
</svg>
