<svg width="41" height="40" viewBox="0 0 41 40" fill="none" xmlns="http://www.w3.org/2000/svg">
<path d="M33.5 20.1486C33.5 20.5732 33.3242 20.9617 32.9727 21.3142C32.6211 21.6668 32.1476 21.951 31.5521 22.1668C30.9638 22.3827 30.3073 22.4906 29.5827 22.4906H25.1057C24.8043 22.4906 24.5748 22.5266 24.4169 22.5985C24.2663 22.6633 24.1012 22.7964 23.9219 22.9979L16.5715 30.9088C16.3275 31.1678 16.0477 31.2973 15.732 31.2973H14.2684C14.1249 31.2973 14.0173 31.2433 13.9455 31.1354C13.881 31.0275 13.8846 30.898 13.9563 30.7469L17.766 22.5014L12.2129 21.8754L10.2327 25.383C10.082 25.6348 9.83448 25.7607 9.4901 25.7607H8.99505C8.85156 25.7607 8.73318 25.7176 8.63991 25.6312C8.54664 25.5377 8.5 25.419 8.5 25.2751V15.0222C8.5 14.8711 8.54664 14.7524 8.63991 14.6661C8.73318 14.5725 8.85156 14.5258 8.99505 14.5258H9.4901C9.83448 14.5258 10.082 14.6553 10.2327 14.9143L12.2129 18.4218L17.766 17.7959L13.9563 9.55042C13.8846 9.39932 13.881 9.26981 13.9455 9.16189C14.0173 9.05396 14.1249 9 14.2684 9H15.732C16.0477 9 16.3275 9.12951 16.5715 9.38853L23.9219 17.2886C24.1012 17.4901 24.2663 17.6268 24.4169 17.6988C24.5748 17.7707 24.8043 17.8067 25.1057 17.8067H29.5827C30.3073 17.8067 30.9638 17.9146 31.5521 18.1305C32.1476 18.3391 32.6211 18.6233 32.9727 18.9831C33.3242 19.3356 33.5 19.7241 33.5 20.1486Z" fill="#1D70B8"/>
</svg>
