<svg width="36" height="40" viewBox="0 0 36 40" fill="none" xmlns="http://www.w3.org/2000/svg">
<path d="M32 20.5C32 20.976 31.8031 21.4116 31.4094 21.8069C31.0156 22.2022 30.4853 22.5208 29.8183 22.7628C29.1594 23.0048 28.4242 23.1258 27.6126 23.1258H22.5984C22.2609 23.1258 22.0037 23.1662 21.8269 23.2469C21.6582 23.3195 21.4734 23.4687 21.2725 23.6946L13.04 32.5644C12.7668 32.8548 12.4534 33 12.0999 33H10.4606C10.2999 33 10.1794 32.9395 10.099 32.8185C10.0267 32.6975 10.0307 32.5523 10.1111 32.3829L14.378 23.1379L8.15842 22.4361L5.94059 26.3688C5.77185 26.6512 5.49462 26.7924 5.10891 26.7924H4.55446C4.39374 26.7924 4.26116 26.7439 4.15669 26.6471C4.05223 26.5423 4 26.4092 4 26.2478V14.7522C4 14.5828 4.05223 14.4497 4.15669 14.3529C4.26116 14.248 4.39374 14.1955 4.55446 14.1955H5.10891C5.49462 14.1955 5.77185 14.3408 5.94059 14.6312L8.15842 18.5639L14.378 17.8621L10.1111 8.61713C10.0307 8.44773 10.0267 8.30252 10.099 8.18151C10.1794 8.0605 10.2999 8 10.4606 8H12.0999C12.4534 8 12.7668 8.14521 13.04 8.43562L21.2725 17.2933C21.4734 17.5192 21.6582 17.6725 21.8269 17.7531C22.0037 17.8338 22.2609 17.8742 22.5984 17.8742H27.6126C28.4242 17.8742 29.1594 17.9952 29.8183 18.2372C30.4853 18.4711 31.0156 18.7898 31.4094 19.1931C31.8031 19.5884 32 20.024 32 20.5Z" fill="#1D70B8"/>
</svg>
