<svg width="41" height="40" viewBox="0 0 41 40" fill="none" xmlns="http://www.w3.org/2000/svg">
<path d="M16.124 10.8803C15.5616 10.8803 15.0485 10.7518 14.5847 10.4949C14.121 10.2285 13.7509 9.87643 13.4747 9.43874C13.2083 8.99154 13.0751 8.492 13.0751 7.94013C13.0751 7.39778 13.2083 6.903 13.4747 6.45579C13.7509 6.00859 14.121 5.65653 14.5847 5.39963C15.0485 5.13321 15.5616 5 16.124 5C16.6963 5 17.2143 5.13321 17.6781 5.39963C18.1418 5.65653 18.5069 6.00859 18.7733 6.45579C19.0496 6.903 19.1877 7.39778 19.1877 7.94013C19.1877 8.492 19.0496 8.99154 18.7733 9.43874C18.5069 9.87643 18.1418 10.2285 17.6781 10.4949C17.2143 10.7518 16.6963 10.8803 16.124 10.8803ZM11.151 35.8C10.7069 35.8 10.3616 35.6287 10.1149 35.2862C9.87811 34.9532 9.82384 34.5726 9.95211 34.1444C9.97184 34.0778 10.036 33.8161 10.1445 33.3594C10.2629 32.9122 10.406 32.3413 10.5737 31.6467C10.7513 30.9521 10.9388 30.2004 11.1362 29.3917C11.3335 28.5829 11.521 27.7931 11.6986 27.0224C11.8762 26.2422 12.0291 25.5524 12.1574 24.9529C12.2956 24.344 12.3893 23.8968 12.4386 23.6113C12.4978 23.2022 12.5472 22.7121 12.5866 22.1412C12.6261 21.5703 12.6557 20.9804 12.6754 20.3715C12.705 19.753 12.7248 19.1821 12.7346 18.6588C12.7445 18.1259 12.7494 17.712 12.7494 17.4171C12.7494 17.3124 12.7001 17.2458 12.6014 17.2172C12.5126 17.1887 12.4337 17.2172 12.3646 17.3029C12.1179 17.6454 11.817 18.0546 11.4618 18.5303C11.1066 18.9965 10.7513 19.4723 10.3961 19.9576C10.0409 20.4333 9.72517 20.8567 9.44889 21.2278C9.18247 21.5894 8.99993 21.8272 8.90126 21.9414C8.68419 22.1793 8.41777 22.322 8.10203 22.3696C7.79614 22.4172 7.50506 22.3648 7.22879 22.2126C6.87357 22.0413 6.64663 21.7987 6.54795 21.4847C6.45915 21.1612 6.49369 20.8615 6.65156 20.5855C6.71076 20.4714 6.77983 20.3619 6.85877 20.2573C6.93771 20.1431 7.02651 20.0242 7.12518 19.9005L10.7069 14.848C11.151 14.22 11.6345 13.7348 12.1574 13.3922C12.6804 13.0402 13.2675 12.7928 13.9187 12.65C14.5699 12.4978 15.305 12.4217 16.124 12.4217C16.943 12.4217 17.6781 12.4978 18.3293 12.65C18.9805 12.7928 19.5676 13.0402 20.0906 13.3922C20.6135 13.7348 21.097 14.22 21.541 14.848L23.7167 17.8738C23.1444 17.8833 22.6659 18.0641 22.2811 18.4161C21.8963 18.7587 21.6496 19.1297 21.541 19.5294L19.8834 17.3029C19.8044 17.2172 19.7206 17.1887 19.6318 17.2172C19.5429 17.2363 19.4985 17.2981 19.4985 17.4028C19.4985 17.7073 19.5035 18.1259 19.5133 18.6588C19.5232 19.1821 19.538 19.753 19.5577 20.3715C19.5874 20.9804 19.6219 21.5703 19.6614 22.1412C19.7008 22.7121 19.7502 23.2022 19.8094 23.6113C19.8587 23.8968 19.9475 24.344 20.0758 24.9529C20.204 25.5524 20.3619 26.2422 20.5494 27.0224C20.7369 27.7931 20.9293 28.5829 21.1266 29.3917C21.324 30.2004 21.5065 30.9521 21.6742 31.6467C21.842 32.3413 21.9851 32.9122 22.1035 33.3594C22.2219 33.8161 22.286 34.0778 22.2959 34.1444C22.4241 34.5726 22.3699 34.9532 22.1331 35.2862C21.8963 35.6287 21.5509 35.8 21.097 35.8C20.4261 35.8 19.9771 35.3956 19.7502 34.5868C19.6515 34.2443 19.5183 33.7638 19.3505 33.1453C19.1828 32.5364 19.0003 31.8608 18.8029 31.1186C18.6056 30.3765 18.4082 29.6438 18.2109 28.9207C18.0234 28.188 17.8458 27.5315 17.6781 26.9511C17.5202 26.3611 17.3968 25.9234 17.308 25.638C17.1502 25.1432 16.9874 24.7864 16.8196 24.5676C16.6617 24.3487 16.4299 24.2393 16.124 24.2393C15.8181 24.2393 15.5813 24.3487 15.4136 24.5676C15.2557 24.7864 15.1027 25.1432 14.9547 25.638C14.8561 25.9234 14.7229 26.3611 14.5551 26.9511C14.3972 27.5315 14.2196 28.188 14.0223 28.9207C13.8348 29.6438 13.6424 30.3765 13.4451 31.1186C13.2477 31.8608 13.0652 32.5364 12.8974 33.1453C12.7297 33.7638 12.6014 34.2443 12.5126 34.5868C12.2857 35.3956 11.8318 35.8 11.151 35.8ZM28.1421 20.5285C27.5106 20.5285 26.9729 20.3144 26.5289 19.8862C26.0947 19.458 25.8776 18.9394 25.8776 18.3305C25.8776 17.7215 26.0947 17.203 26.5289 16.7748C26.9729 16.3466 27.5106 16.1325 28.1421 16.1325C28.7736 16.1325 29.3114 16.3466 29.7554 16.7748C30.2093 17.203 30.4362 17.7215 30.4362 18.3305C30.4362 18.9394 30.2093 19.458 29.7554 19.8862C29.3114 20.3144 28.7736 20.5285 28.1421 20.5285ZM24.9896 35.8C24.5949 35.8 24.294 35.6525 24.0868 35.3576C23.8795 35.0626 23.8253 34.7343 23.924 34.3728C23.9437 34.3252 23.998 34.1111 24.0868 33.7305C24.1854 33.3499 24.2989 32.8789 24.4272 32.3175C24.5653 31.7561 24.7035 31.1757 24.8416 30.5763C24.9896 29.9768 25.1179 29.4392 25.2264 28.9635C25.3448 28.4782 25.4238 28.1262 25.4632 27.9073C25.5027 27.6219 25.5323 27.2651 25.552 26.8369C25.5816 26.3992 25.6014 25.9805 25.6112 25.5809C25.6211 25.1718 25.626 24.8483 25.626 24.6104C25.626 24.4106 25.5915 24.2393 25.5224 24.0966C25.4632 23.9443 25.3793 23.7968 25.2708 23.6541C24.9255 23.2355 24.5653 22.8216 24.1904 22.4124C23.8253 21.9938 23.5046 21.6322 23.2283 21.3277C22.9619 21.0232 22.7991 20.8282 22.7399 20.7425C22.582 20.5047 22.5228 20.2573 22.5623 20.0004C22.6116 19.7435 22.735 19.5199 22.9323 19.3296C23.1395 19.0917 23.401 18.9728 23.7167 18.9728C24.0325 18.9632 24.2841 19.0536 24.4716 19.2439L25.996 20.8139C26.3217 21.1469 26.6275 21.3943 26.9137 21.5561C27.1998 21.7083 27.5797 21.7844 28.0533 21.7844H28.5566C29.2177 21.7844 29.8492 21.9176 30.451 22.1841C31.0628 22.4505 31.571 22.8787 31.9755 23.4686L34.314 26.9796C34.4818 27.2175 34.536 27.4506 34.4768 27.679C34.4176 27.8978 34.2992 28.0691 34.1216 28.1928C33.9243 28.3355 33.6924 28.3973 33.426 28.3783C33.1694 28.3593 32.9524 28.2213 32.7748 27.9644L30.9395 25.4239C30.8605 25.3192 30.7619 25.2812 30.6435 25.3097C30.5251 25.3383 30.4658 25.4192 30.4658 25.5524C30.4658 25.8378 30.4806 26.2232 30.5103 26.7084C30.5399 27.1842 30.5843 27.5838 30.6435 27.9073C30.6829 28.1262 30.7569 28.4782 30.8655 28.9635C30.974 29.4392 31.0973 29.9768 31.2355 30.5763C31.3835 31.1757 31.5266 31.7561 31.6647 32.3175C31.8028 32.8789 31.9163 33.3499 32.0051 33.7305C32.1038 34.1111 32.1581 34.3252 32.1679 34.3728C32.2666 34.7343 32.2123 35.0626 32.0051 35.3576C31.7979 35.6525 31.497 35.8 31.1023 35.8C30.826 35.8 30.5843 35.7191 30.377 35.5574C30.1797 35.4051 30.0366 35.1625 29.9478 34.8295C29.8689 34.5631 29.7603 34.1729 29.6222 33.6591C29.4939 33.1548 29.3509 32.6077 29.193 32.0178C29.045 31.4279 28.9019 30.8903 28.7638 30.405C28.6355 29.9102 28.5368 29.5487 28.4678 29.3203C28.3691 29.0348 28.2951 28.8588 28.2457 28.7922C28.1964 28.7256 28.1323 28.6923 28.0533 28.6923C27.9645 28.6923 27.8955 28.7256 27.8461 28.7922C27.7968 28.8588 27.7228 29.0348 27.6241 29.3203C27.555 29.5487 27.4514 29.9102 27.3133 30.405C27.185 30.8903 27.0469 31.4279 26.8989 32.0178C26.7509 32.6077 26.6078 33.1548 26.4697 33.6591C26.3315 34.1729 26.223 34.5631 26.1441 34.8295C26.0651 35.1625 25.9171 35.4051 25.7 35.5574C25.4928 35.7191 25.256 35.8 24.9896 35.8Z" fill="#1D70B8"/>
</svg>
