<svg width="30" height="40" viewBox="0 0 30 40" fill="none" xmlns="http://www.w3.org/2000/svg">
<path d="M10.8115 10.6893C10.2674 10.6893 9.77093 10.5651 9.32223 10.3165C8.87353 10.0587 8.51553 9.7181 8.24822 9.29462C7.99046 8.86194 7.86158 8.37862 7.86158 7.84467C7.86158 7.31993 7.99046 6.84121 8.24822 6.40853C8.51553 5.97584 8.87353 5.63522 9.32223 5.38665C9.77093 5.12888 10.2674 5 10.8115 5C11.3652 5 11.8664 5.12888 12.3151 5.38665C12.7638 5.63522 13.1171 5.97584 13.3748 6.40853C13.6421 6.84121 13.7758 7.31993 13.7758 7.84467C13.7758 8.37862 13.6421 8.86194 13.3748 9.29462C13.1171 9.7181 12.7638 10.0587 12.3151 10.3165C11.8664 10.5651 11.3652 10.6893 10.8115 10.6893ZM5.99996 34.8C5.57036 34.8 5.23622 34.6343 4.99755 34.3029C4.76843 33.9807 4.71592 33.6124 4.84003 33.1981C4.85912 33.1337 4.92118 32.8805 5.02619 32.4386C5.14075 32.006 5.27918 31.4536 5.44147 30.7816C5.61332 30.1095 5.7947 29.3822 5.98564 28.5997C6.17657 27.8172 6.35796 27.0531 6.5298 26.3074C6.70165 25.5525 6.84962 24.8851 6.97373 24.3051C7.10738 23.7159 7.19808 23.2832 7.24581 23.007C7.30309 22.6112 7.35083 22.1371 7.38901 21.5847C7.4272 21.0323 7.45584 20.4616 7.47493 19.8724C7.50357 19.274 7.52267 18.7216 7.53221 18.2153C7.54176 17.6998 7.54653 17.2993 7.54653 17.0139C7.54653 16.9126 7.4988 16.8482 7.40333 16.8206C7.31741 16.793 7.24104 16.8206 7.17421 16.9034C6.93554 17.2348 6.64437 17.6307 6.30068 18.091C5.957 18.5421 5.61332 19.0024 5.26963 19.4719C4.92595 19.9322 4.62045 20.3419 4.35314 20.7009C4.09538 21.0508 3.91877 21.2809 3.8233 21.3914C3.61327 21.6215 3.35551 21.7596 3.05001 21.8057C2.75406 21.8517 2.47243 21.801 2.20512 21.6538C1.86144 21.488 1.64186 21.2533 1.5464 20.9495C1.46048 20.6365 1.49389 20.3465 1.64664 20.0795C1.70392 19.969 1.77075 19.8632 1.84712 19.7619C1.92349 19.6514 2.00941 19.5364 2.10488 19.4167L5.57036 14.5283C5.99996 13.9207 6.46775 13.4512 6.97373 13.1197C7.47971 12.7791 8.04774 12.5398 8.67782 12.4017C9.30791 12.2544 10.0191 12.1807 10.8115 12.1807C11.6039 12.1807 12.3151 12.2544 12.9452 12.4017C13.5753 12.5398 14.1433 12.7791 14.6493 13.1197C15.1553 13.4512 15.6231 13.9207 16.0527 14.5283L18.1578 17.4558C17.604 17.465 17.141 17.6399 16.7687 17.9805C16.3964 18.312 16.1577 18.671 16.0527 19.0576L14.4488 16.9034C14.3725 16.8206 14.2913 16.793 14.2054 16.8206C14.1195 16.839 14.0765 16.8988 14.0765 17.0001C14.0765 17.2947 14.0813 17.6998 14.0908 18.2153C14.1004 18.7216 14.1147 19.274 14.1338 19.8724C14.1624 20.4616 14.1959 21.0323 14.234 21.5847C14.2722 22.1371 14.32 22.6112 14.3772 23.007C14.425 23.2832 14.5109 23.7159 14.635 24.3051C14.7591 24.8851 14.9119 25.5525 15.0932 26.3074C15.2746 27.0531 15.4608 27.8172 15.6517 28.5997C15.8427 29.3822 16.0193 30.1095 16.1816 30.7816C16.3439 31.4536 16.4823 32.006 16.5969 32.4386C16.7114 32.8805 16.7735 33.1337 16.783 33.1981C16.9071 33.6124 16.8546 33.9807 16.6255 34.3029C16.3964 34.6343 16.0622 34.8 15.6231 34.8C14.9739 34.8 14.5395 34.4087 14.32 33.6262C14.2245 33.2948 14.0956 32.8299 13.9333 32.2315C13.771 31.6423 13.5944 30.9887 13.4035 30.2706C13.2125 29.5525 13.0216 28.8437 12.8307 28.144C12.6493 27.4352 12.4774 26.7999 12.3151 26.2384C12.1624 25.6676 12.0431 25.2441 11.9571 24.9679C11.8044 24.4892 11.6469 24.144 11.4846 23.9323C11.3318 23.7205 11.1075 23.6146 10.8115 23.6146C10.5156 23.6146 10.2865 23.7205 10.1242 23.9323C9.97141 24.144 9.82344 24.4892 9.68023 24.9679C9.58477 25.2441 9.45589 25.6676 9.29359 26.2384C9.14084 26.7999 8.969 27.4352 8.77807 28.144C8.59668 28.8437 8.41052 29.5525 8.21958 30.2706C8.02865 30.9887 7.85203 31.6423 7.68974 32.2315C7.52744 32.8299 7.40333 33.2948 7.31741 33.6262C7.09784 34.4087 6.65869 34.8 5.99996 34.8ZM22.4395 20.0243C21.8285 20.0243 21.3082 19.8171 20.8786 19.4029C20.4585 18.9886 20.2485 18.4869 20.2485 17.8977C20.2485 17.3085 20.4585 16.8068 20.8786 16.3925C21.3082 15.9782 21.8285 15.7711 22.4395 15.7711C23.0505 15.7711 23.5708 15.9782 24.0004 16.3925C24.4395 16.8068 24.6591 17.3085 24.6591 17.8977C24.6591 18.4869 24.4395 18.9886 24.0004 19.4029C23.5708 19.8171 23.0505 20.0243 22.4395 20.0243ZM19.3893 34.8C19.0074 34.8 18.7162 34.6573 18.5158 34.3719C18.3153 34.0865 18.2628 33.7689 18.3582 33.4191C18.3773 33.3731 18.4298 33.1659 18.5158 32.7977C18.6112 32.4294 18.721 31.9737 18.8451 31.4306C18.9788 30.8874 19.1124 30.3259 19.2461 29.7459C19.3893 29.1659 19.5134 28.6458 19.6184 28.1854C19.733 27.7159 19.8093 27.3753 19.8475 27.1636C19.8857 26.8874 19.9144 26.5422 19.9335 26.1279C19.9621 25.7044 19.9812 25.2994 19.9907 24.9127C20.0003 24.5168 20.0051 24.2038 20.0051 23.9737C20.0051 23.7804 19.9716 23.6146 19.9048 23.4766C19.8475 23.3293 19.7664 23.1866 19.6614 23.0485C19.3272 22.6434 18.9788 22.2429 18.616 21.8471C18.2628 21.442 17.9525 21.0922 17.6852 20.7976C17.4274 20.503 17.2699 20.3143 17.2126 20.2314C17.0599 20.0013 17.0026 19.7619 17.0408 19.5133C17.0885 19.2648 17.2079 19.0484 17.3988 18.8643C17.5993 18.6342 17.8523 18.5191 18.1578 18.5191C18.4633 18.5099 18.7067 18.5973 18.8881 18.7815L20.3631 20.3005C20.6781 20.6227 20.974 20.862 21.2509 21.0185C21.5278 21.1658 21.8953 21.2395 22.3536 21.2395H22.8404C23.4801 21.2395 24.0911 21.3684 24.6734 21.6261C25.2653 21.8839 25.757 22.2982 26.1484 22.869L28.411 26.266C28.5733 26.4961 28.6258 26.7217 28.5685 26.9426C28.5112 27.1544 28.3967 27.3201 28.2248 27.4398C28.0339 27.5778 27.8095 27.6377 27.5518 27.6193C27.3035 27.6009 27.0935 27.4674 26.9217 27.2188L25.146 24.7608C25.0696 24.6595 24.9741 24.6227 24.8596 24.6503C24.745 24.6779 24.6877 24.7562 24.6877 24.8851C24.6877 25.1613 24.7021 25.5341 24.7307 26.0036C24.7593 26.4639 24.8023 26.8506 24.8596 27.1636C24.8978 27.3753 24.9694 27.7159 25.0744 28.1854C25.1794 28.6458 25.2987 29.1659 25.4324 29.7459C25.5756 30.3259 25.714 30.8874 25.8477 31.4306C25.9813 31.9737 26.0911 32.4294 26.177 32.7977C26.2725 33.1659 26.325 33.3731 26.3346 33.4191C26.43 33.7689 26.3775 34.0865 26.177 34.3719C25.9765 34.6573 25.6854 34.8 25.3035 34.8C25.0362 34.8 24.8023 34.7217 24.6018 34.5652C24.4109 34.4179 24.2725 34.1832 24.1865 33.861C24.1102 33.6032 24.0051 33.2258 23.8715 32.7286C23.7474 32.2407 23.609 31.7114 23.4562 31.1406C23.313 30.5698 23.1746 30.0497 23.0409 29.5802C22.9168 29.1015 22.8213 28.7516 22.7545 28.5307C22.6591 28.2545 22.5875 28.0842 22.5397 28.0197C22.492 27.9553 22.4299 27.9231 22.3536 27.9231C22.2676 27.9231 22.2008 27.9553 22.1531 28.0197C22.1053 28.0842 22.0337 28.2545 21.9383 28.5307C21.8714 28.7516 21.7712 29.1015 21.6375 29.5802C21.5134 30.0497 21.3798 30.5698 21.2366 31.1406C21.0934 31.7114 20.955 32.2407 20.8213 32.7286C20.6876 33.2258 20.5826 33.6032 20.5063 33.861C20.4299 34.1832 20.2867 34.4179 20.0767 34.5652C19.8762 34.7217 19.647 34.8 19.3893 34.8Z" fill="#1D70B8"/>
</svg>
