<svg width="36" height="40" viewBox="0 0 36 40" fill="none" xmlns="http://www.w3.org/2000/svg">
<path d="M13.3114 10.3003C12.7088 10.3003 12.1591 10.1627 11.6622 9.8874C11.1653 9.60195 10.7689 9.22475 10.4729 8.75579C10.1874 8.27665 10.0447 7.74143 10.0447 7.15014C10.0447 6.56905 10.1874 6.03892 10.4729 5.55978C10.7689 5.08063 11.1653 4.70343 11.6622 4.42817C12.1591 4.14272 12.7088 4 13.3114 4C13.9246 4 14.4796 4.14272 14.9765 4.42817C15.4734 4.70343 15.8645 5.08063 16.15 5.55978C16.446 6.03892 16.594 6.56905 16.594 7.15014C16.594 7.74143 16.446 8.27665 16.15 8.75579C15.8645 9.22475 15.4734 9.60195 14.9765 9.8874C14.4796 10.1627 13.9246 10.3003 13.3114 10.3003ZM7.98318 37C7.50744 37 7.13742 36.8165 6.87313 36.4495C6.6194 36.0927 6.56125 35.6849 6.69869 35.2261C6.71983 35.1548 6.78855 34.8744 6.90484 34.3851C7.0317 33.9059 7.185 33.2943 7.36472 32.55C7.55501 31.8058 7.75588 31.0005 7.96732 30.1339C8.17876 29.2674 8.37962 28.4212 8.56992 27.5955C8.76021 26.7595 8.92408 26.0204 9.06151 25.3781C9.20952 24.7257 9.30995 24.2465 9.36281 23.9407C9.42624 23.5023 9.4791 22.9773 9.52139 22.3656C9.56368 21.7539 9.59539 21.1219 9.61654 20.4694C9.64825 19.8068 9.6694 19.1951 9.67997 18.6344C9.69054 18.0635 9.69583 17.62 9.69583 17.304C9.69583 17.1918 9.64297 17.1205 9.53725 17.0899C9.4421 17.0593 9.35753 17.0899 9.28352 17.1816C9.01922 17.5487 8.69678 17.987 8.31619 18.4968C7.9356 18.9963 7.55501 19.506 7.17443 20.0259C6.79384 20.5357 6.45554 20.9893 6.15952 21.3869C5.87408 21.7743 5.6785 22.0292 5.57278 22.1515C5.3402 22.4064 5.05476 22.5593 4.71646 22.6103C4.38873 22.6613 4.07686 22.6052 3.78084 22.4421C3.40025 22.2586 3.1571 21.9986 3.05138 21.6622C2.95623 21.3156 2.99323 20.9944 3.16238 20.6988C3.22582 20.5765 3.29982 20.4592 3.38439 20.3471C3.46897 20.2247 3.56412 20.0973 3.66984 19.9648L7.50744 14.5514C7.98318 13.8786 8.5012 13.3587 9.06151 12.9917C9.62182 12.6145 10.2509 12.3494 10.9486 12.1965C11.6463 12.0334 12.434 11.9518 13.3114 11.9518C14.1889 11.9518 14.9765 12.0334 15.6742 12.1965C16.372 12.3494 17.001 12.6145 17.5613 12.9917C18.1216 13.3587 18.6397 13.8786 19.1154 14.5514L21.4465 17.7933C20.8333 17.8035 20.3206 17.9972 19.9083 18.3744C19.496 18.7414 19.2317 19.139 19.1154 19.5672L17.3393 17.1816C17.2547 17.0899 17.1649 17.0593 17.0697 17.0899C16.9746 17.1103 16.927 17.1766 16.927 17.2887C16.927 17.6149 16.9323 18.0635 16.9429 18.6344C16.9534 19.1951 16.9693 19.8068 16.9904 20.4694C17.0222 21.1219 17.0592 21.7539 17.1015 22.3656C17.1437 22.9773 17.1966 23.5023 17.26 23.9407C17.3129 24.2465 17.408 24.7257 17.5455 25.3781C17.6829 26.0204 17.8521 26.7595 18.0529 27.5955C18.2538 28.4212 18.4599 29.2674 18.6714 30.1339C18.8828 31.0005 19.0784 31.8058 19.2581 32.55C19.4378 33.2943 19.5911 33.9059 19.718 34.3851C19.8449 34.8744 19.9136 35.1548 19.9242 35.2261C20.0616 35.6849 20.0034 36.0927 19.7497 36.4495C19.496 36.8165 19.126 37 18.6397 37C17.9208 37 17.4398 36.5667 17.1966 35.7002C17.0909 35.3332 16.9482 34.8183 16.7684 34.1557C16.5887 33.5032 16.3931 32.7794 16.1817 31.9842C15.9703 31.1891 15.7588 30.4041 15.5474 29.6293C15.3465 28.8443 15.1562 28.1409 14.9765 27.519C14.8073 26.8869 14.6752 26.418 14.58 26.1121C14.4109 25.582 14.2365 25.1997 14.0567 24.9652C13.8876 24.7308 13.6391 24.6135 13.3114 24.6135C12.9837 24.6135 12.73 24.7308 12.5502 24.9652C12.3811 25.1997 12.2172 25.582 12.0586 26.1121C11.9529 26.418 11.8102 26.8869 11.6305 27.519C11.4613 28.1409 11.271 28.8443 11.0596 29.6293C10.8587 30.4041 10.6526 31.1891 10.4411 31.9842C10.2297 32.7794 10.0341 33.5032 9.8544 34.1557C9.67468 34.8183 9.53725 35.3332 9.4421 35.7002C9.19895 36.5667 8.71264 37 7.98318 37ZM26.188 20.6376C25.5114 20.6376 24.9352 20.4082 24.4595 19.9495C23.9943 19.4907 23.7618 18.9351 23.7618 18.2827C23.7618 17.6302 23.9943 17.0746 24.4595 16.6158C24.9352 16.1571 25.5114 15.9277 26.188 15.9277C26.8646 15.9277 27.4408 16.1571 27.9165 16.6158C28.4028 17.0746 28.646 17.6302 28.646 18.2827C28.646 18.9351 28.4028 19.4907 27.9165 19.9495C27.4408 20.4082 26.8646 20.6376 26.188 20.6376ZM22.8103 37C22.3874 37 22.065 36.842 21.843 36.526C21.6209 36.2099 21.5628 35.8582 21.6685 35.4708C21.6897 35.4198 21.7478 35.1905 21.843 34.7827C21.9487 34.3749 22.0703 33.8703 22.2077 33.2688C22.3557 32.6673 22.5037 32.0454 22.6517 31.4032C22.8103 30.7609 22.9477 30.1849 23.064 29.6752C23.1909 29.1552 23.2754 28.778 23.3177 28.5436C23.36 28.2377 23.3917 27.8554 23.4129 27.3967C23.4446 26.9277 23.4657 26.4791 23.4763 26.051C23.4869 25.6126 23.4922 25.266 23.4922 25.0111C23.4922 24.797 23.4552 24.6135 23.3812 24.4606C23.3177 24.2975 23.2279 24.1395 23.1116 23.9866C22.7416 23.538 22.3557 23.0945 21.954 22.6562C21.5628 22.2076 21.2192 21.8202 20.9232 21.494C20.6378 21.1677 20.4633 20.9588 20.3999 20.867C20.2307 20.6121 20.1673 20.3471 20.2096 20.0718C20.2625 19.7966 20.3946 19.557 20.606 19.3531C20.8281 19.0982 21.1082 18.9708 21.4465 18.9708C21.7848 18.9606 22.0544 19.0575 22.2553 19.2614L23.8886 20.9435C24.2375 21.3003 24.5652 21.5653 24.8718 21.7386C25.1784 21.9018 25.5854 21.9833 26.0929 21.9833H26.632C27.3403 21.9833 28.017 22.126 28.6618 22.4115C29.3173 22.6969 29.8618 23.1557 30.2952 23.7878L32.8007 27.5496C32.9805 27.8044 33.0386 28.0542 32.9752 28.2989C32.9117 28.5334 32.7849 28.7169 32.5946 28.8494C32.3832 29.0023 32.1347 29.0686 31.8493 29.0482C31.5744 29.0278 31.3418 28.88 31.1515 28.6047L29.1851 25.8828C29.1006 25.7706 28.9949 25.7298 28.868 25.7604C28.7411 25.791 28.6777 25.8777 28.6777 26.0204C28.6777 26.3262 28.6936 26.7391 28.7253 27.259C28.757 27.7688 28.8046 28.1969 28.868 28.5436C28.9103 28.778 28.9896 29.1552 29.1059 29.6752C29.2222 30.1849 29.3543 30.7609 29.5023 31.4032C29.6609 32.0454 29.8142 32.6673 29.9622 33.2688C30.1102 33.8703 30.2318 34.3749 30.3269 34.7827C30.4326 35.1905 30.4908 35.4198 30.5014 35.4708C30.6071 35.8582 30.5489 36.2099 30.3269 36.526C30.1049 36.842 29.7825 37 29.3596 37C29.0636 37 28.8046 36.9133 28.5826 36.74C28.3711 36.5769 28.2178 36.317 28.1227 35.9601C28.0381 35.6747 27.9218 35.2567 27.7738 34.7062C27.6364 34.1659 27.4831 33.5797 27.3139 32.9476C27.1553 32.3156 27.002 31.7396 26.854 31.2196C26.7166 30.6895 26.6109 30.3021 26.5369 30.0575C26.4312 29.7516 26.3519 29.563 26.299 29.4917C26.2462 29.4203 26.1774 29.3846 26.0929 29.3846C25.9977 29.3846 25.9237 29.4203 25.8709 29.4917C25.818 29.563 25.7387 29.7516 25.633 30.0575C25.559 30.3021 25.448 30.6895 25.3 31.2196C25.1625 31.7396 25.0145 32.3156 24.8559 32.9476C24.6974 33.5797 24.5441 34.1659 24.3961 34.7062C24.2481 35.2567 24.1318 35.6747 24.0472 35.9601C23.9626 36.317 23.804 36.5769 23.5715 36.74C23.3495 36.9133 23.0957 37 22.8103 37Z" fill="#1D70B8"/>
</svg>
