<svg width="40" height="40" viewBox="0 0 40 40" fill="none" xmlns="http://www.w3.org/2000/svg">
<path d="M20.7617 15.0195C20.4258 15.0195 20.1367 14.8984 19.8945 14.6562C19.6602 14.4062 19.543 14.1133 19.543 13.7773C19.543 13.4414 19.6602 13.1523 19.8945 12.9102C20.1367 12.668 20.4258 12.5469 20.7617 12.5469H32.4219C32.7734 12.5469 33.0664 12.668 33.3008 12.9102C33.543 13.1445 33.6641 13.4336 33.6641 13.7773C33.6641 14.1133 33.543 14.4062 33.3008 14.6562C33.0586 14.8984 32.7656 15.0195 32.4219 15.0195H20.7617ZM20.7617 28.5781C20.4258 28.5781 20.1367 28.457 19.8945 28.2148C19.6602 27.9648 19.543 27.6758 19.543 27.3477C19.543 27.0117 19.6602 26.7227 19.8945 26.4805C20.1367 26.2305 20.4258 26.1055 20.7617 26.1055H32.4219C32.7734 26.1055 33.0664 26.2266 33.3008 26.4688C33.543 26.7109 33.6641 27.0039 33.6641 27.3477C33.6641 27.6758 33.543 27.9648 33.3008 28.2148C33.0586 28.457 32.7656 28.5781 32.4219 28.5781H20.7617ZM11.5742 19.0273C10.6211 19.0273 9.74609 18.7891 8.94922 18.3125C8.15234 17.8359 7.51562 17.1992 7.03906 16.4023C6.5625 15.6055 6.32422 14.7266 6.32422 13.7656C6.32422 12.8125 6.55859 11.9375 7.02734 11.1406C7.50391 10.3438 8.14062 9.71094 8.9375 9.24219C9.73438 8.76562 10.6133 8.52734 11.5742 8.52734C12.5352 8.52734 13.4102 8.76562 14.1992 9.24219C14.9961 9.71094 15.6328 10.3438 16.1094 11.1406C16.5859 11.9375 16.8242 12.8125 16.8242 13.7656C16.8242 14.7266 16.5859 15.6055 16.1094 16.4023C15.6328 17.1992 14.9961 17.8359 14.1992 18.3125C13.4102 18.7891 12.5352 19.0273 11.5742 19.0273ZM10.9531 16.6016C11.2344 16.6016 11.457 16.4805 11.6211 16.2383L14.1523 12.3359C14.2617 12.1641 14.3164 11.9922 14.3164 11.8203C14.3164 11.6484 14.2461 11.5 14.1055 11.375C13.9727 11.25 13.8125 11.1875 13.625 11.1875C13.375 11.1875 13.1719 11.3125 13.0156 11.5625L10.9297 14.9023L10.0391 13.8008C9.95312 13.6992 9.86719 13.625 9.78125 13.5781C9.69531 13.5234 9.58984 13.4961 9.46484 13.4961C9.27734 13.4961 9.11719 13.5625 8.98438 13.6953C8.85938 13.8281 8.79688 13.9922 8.79688 14.1875C8.79688 14.3672 8.85938 14.5312 8.98438 14.6797L10.2969 16.25C10.3828 16.3594 10.4766 16.4453 10.5781 16.5078C10.6875 16.5703 10.8125 16.6016 10.9531 16.6016ZM11.5742 32.5977C10.6211 32.5977 9.74609 32.3594 8.94922 31.8828C8.15234 31.4062 7.51562 30.7695 7.03906 29.9727C6.5625 29.1758 6.32422 28.3008 6.32422 27.3477C6.32422 26.3945 6.55859 25.5195 7.02734 24.7227C7.50391 23.9258 8.14062 23.2891 8.9375 22.8125C9.73438 22.3359 10.6133 22.0977 11.5742 22.0977C12.5352 22.0977 13.4102 22.3359 14.1992 22.8125C14.9961 23.2812 15.6328 23.9141 16.1094 24.7109C16.5859 25.5078 16.8242 26.3867 16.8242 27.3477C16.8242 28.3008 16.5859 29.1758 16.1094 29.9727C15.6328 30.7695 14.9961 31.4062 14.1992 31.8828C13.4102 32.3594 12.5352 32.5977 11.5742 32.5977ZM10.9531 30.1836C11.2344 30.1836 11.457 30.0586 11.6211 29.8086L14.1523 25.9062C14.2617 25.7344 14.3164 25.5664 14.3164 25.4023C14.3164 25.2227 14.2461 25.0703 14.1055 24.9453C13.9727 24.8203 13.8125 24.7578 13.625 24.7578C13.375 24.7578 13.1719 24.8867 13.0156 25.1445L10.9297 28.4727L10.0391 27.3828C9.95312 27.2812 9.86719 27.207 9.78125 27.1602C9.69531 27.1055 9.58984 27.0781 9.46484 27.0781C9.27734 27.0781 9.11719 27.1445 8.98438 27.2773C8.85938 27.4102 8.79688 27.5703 8.79688 27.7578C8.79688 27.9375 8.85938 28.1016 8.98438 28.25L10.2969 29.832C10.3828 29.9336 10.4766 30.0156 10.5781 30.0781C10.6875 30.1484 10.8125 30.1836 10.9531 30.1836Z" fill="#1D70B8"/>
</svg>
