<svg width="41" height="40" viewBox="0 0 41 40" fill="none" xmlns="http://www.w3.org/2000/svg">
<path d="M13.3571 9C14.6378 9 15.8212 9.24316 16.9073 9.72948C18.0015 10.2158 18.8485 10.8886 19.4483 11.7477C19.5618 11.9179 19.6307 12.0395 19.655 12.1125C19.6874 12.1854 19.7036 12.3029 19.7036 12.465V30.4468C19.7036 30.6008 19.655 30.7224 19.5578 30.8115C19.4686 30.9088 19.3551 30.9574 19.2173 30.9574C19.0633 30.9574 18.9215 30.9007 18.7918 30.7872C18.3622 30.4144 17.884 30.0942 17.3571 29.8267C16.8303 29.5674 16.271 29.3647 15.6793 29.2188C15.0876 29.0811 14.4757 29.0122 13.8435 29.0122C12.8303 29.0122 11.8374 29.1783 10.8647 29.5106C9.8921 29.8511 9.02077 30.3495 8.25076 31.0061C8.13728 31.1033 8.01165 31.1763 7.87386 31.2249C7.74417 31.2736 7.60638 31.2979 7.46049 31.2979C7.16059 31.2979 6.92553 31.2168 6.75532 31.0547C6.58511 30.9007 6.5 30.6819 6.5 30.3982V13.2432C6.5 13.0162 6.50405 12.8501 6.51216 12.7447C6.52837 12.6312 6.57295 12.5137 6.6459 12.3921C7.05927 11.6707 7.62259 11.0588 8.33587 10.5562C9.04914 10.0537 9.83941 9.66869 10.7067 9.40122C11.5821 9.13374 12.4656 9 13.3571 9ZM27.6429 9C28.5344 9 29.4139 9.13374 30.2812 9.40122C31.1565 9.66869 31.9509 10.0537 32.6641 10.5562C33.3774 11.0588 33.9407 11.6707 34.3541 12.3921C34.4271 12.5056 34.4676 12.619 34.4757 12.7325C34.4919 12.846 34.5 13.0162 34.5 13.2432V30.3982C34.5 30.6819 34.4149 30.9007 34.2447 31.0547C34.0745 31.2168 33.8394 31.2979 33.5395 31.2979C33.3936 31.2979 33.2518 31.2736 33.114 31.2249C32.9843 31.1763 32.8627 31.1033 32.7492 31.0061C31.9792 30.3495 31.1079 29.8511 30.1353 29.5106C29.1626 29.1783 28.1697 29.0122 27.1565 29.0122C26.5243 29.0122 25.9124 29.0811 25.3207 29.2188C24.729 29.3647 24.1697 29.5674 23.6429 29.8267C23.116 30.0942 22.6378 30.4144 22.2082 30.7872C22.0785 30.9007 21.9367 30.9574 21.7827 30.9574C21.6449 30.9574 21.5274 30.9088 21.4301 30.8115C21.3409 30.7224 21.2964 30.6008 21.2964 30.4468V12.465C21.2964 12.3029 21.3085 12.1854 21.3328 12.1125C21.3652 12.0395 21.4382 11.9179 21.5517 11.7477C22.1515 10.8886 22.9944 10.2158 24.0805 9.72948C25.1748 9.24316 26.3622 9 27.6429 9Z" fill="#1D70B8"/>
</svg>
