<svg width="36" height="40" viewBox="0 0 36 40" fill="none" xmlns="http://www.w3.org/2000/svg">
<path d="M10.3469 8C11.7191 8 12.987 8.26172 14.1507 8.78517C15.3231 9.30861 16.2306 10.0327 16.8732 10.9575C16.9948 11.1407 17.0686 11.2715 17.0947 11.3501C17.1294 11.4286 17.1468 11.5551 17.1468 11.7296V31.084C17.1468 31.2497 17.0947 31.3806 16.9904 31.4766C16.8949 31.5812 16.7733 31.6336 16.6257 31.6336C16.4607 31.6336 16.3087 31.5725 16.1698 31.4504C15.7095 31.0491 15.1971 30.7045 14.6327 30.4166C14.0682 30.1374 13.469 29.9193 12.835 29.7623C12.201 29.614 11.5454 29.5398 10.868 29.5398C9.78246 29.5398 8.71863 29.7186 7.67651 30.0763C6.63439 30.4427 5.70082 30.9793 4.87581 31.6859C4.75423 31.7906 4.61963 31.8691 4.47199 31.9215C4.33304 31.9738 4.18541 32 4.02909 32C3.70777 32 3.45593 31.9128 3.27356 31.7383C3.09119 31.5725 3 31.337 3 31.0316V12.5671C3 12.3228 3.00434 12.1439 3.01303 12.0305C3.0304 11.9084 3.07816 11.7819 3.15632 11.651C3.59922 10.8746 4.20278 10.2159 4.967 9.67503C5.73122 9.13413 6.57794 8.71974 7.50716 8.43184C8.44507 8.14395 9.39166 8 10.3469 8ZM25.6531 8C26.6083 8 27.5506 8.14395 28.4798 8.43184C29.4177 8.71974 30.2688 9.13413 31.033 9.67503C31.7972 10.2159 32.4008 10.8746 32.8437 11.651C32.9218 11.7732 32.9653 11.8953 32.9739 12.0174C32.9913 12.1396 33 12.3228 33 12.5671V31.0316C33 31.337 32.9088 31.5725 32.7264 31.7383C32.5441 31.9128 32.2922 32 31.9709 32C31.8146 32 31.6626 31.9738 31.515 31.9215C31.376 31.8691 31.2458 31.7906 31.1242 31.6859C30.2992 30.9793 29.3656 30.4427 28.3235 30.0763C27.2814 29.7186 26.2175 29.5398 25.132 29.5398C24.4546 29.5398 23.799 29.614 23.165 29.7623C22.531 29.9193 21.9318 30.1374 21.3673 30.4166C20.8029 30.7045 20.2905 31.0491 19.8302 31.4504C19.6913 31.5725 19.5393 31.6336 19.3743 31.6336C19.2267 31.6336 19.1007 31.5812 18.9965 31.4766C18.901 31.3806 18.8532 31.2497 18.8532 31.084V11.7296C18.8532 11.5551 18.8663 11.4286 18.8923 11.3501C18.9271 11.2715 19.0052 11.1407 19.1268 10.9575C19.7694 10.0327 20.6726 9.30861 21.8363 8.78517C23.0087 8.26172 24.2809 8 25.6531 8Z" fill="#1D70B8"/>
</svg>
