<svg width="30" height="40" viewBox="0 0 30 40" fill="none" xmlns="http://www.w3.org/2000/svg">
<path d="M7.85714 9C9.13779 9 10.3212 9.24316 11.4073 9.72948C12.5015 10.2158 13.3485 10.8886 13.9483 11.7477C14.0618 11.9179 14.1307 12.0395 14.155 12.1125C14.1874 12.1854 14.2036 12.3029 14.2036 12.465V30.4468C14.2036 30.6008 14.155 30.7224 14.0578 30.8115C13.9686 30.9088 13.8551 30.9574 13.7173 30.9574C13.5633 30.9574 13.4215 30.9007 13.2918 30.7872C12.8622 30.4144 12.384 30.0942 11.8571 29.8267C11.3303 29.5674 10.771 29.3647 10.1793 29.2188C9.58764 29.0811 8.97568 29.0122 8.34347 29.0122C7.33029 29.0122 6.33739 29.1783 5.36474 29.5106C4.3921 29.8511 3.52077 30.3495 2.75076 31.0061C2.63728 31.1033 2.51165 31.1763 2.37386 31.2249C2.24417 31.2736 2.10638 31.2979 1.96049 31.2979C1.66059 31.2979 1.42553 31.2168 1.25532 31.0547C1.08511 30.9007 1 30.6819 1 30.3982V13.2432C1 13.0162 1.00405 12.8501 1.01216 12.7447C1.02837 12.6312 1.07295 12.5137 1.1459 12.3921C1.55927 11.6707 2.12259 11.0588 2.83587 10.5562C3.54914 10.0537 4.33941 9.66869 5.20669 9.40122C6.08207 9.13374 6.96555 9 7.85714 9ZM22.1429 9C23.0344 9 23.9139 9.13374 24.7812 9.40122C25.6565 9.66869 26.4509 10.0537 27.1641 10.5562C27.8774 11.0588 28.4407 11.6707 28.8541 12.3921C28.9271 12.5056 28.9676 12.619 28.9757 12.7325C28.9919 12.846 29 13.0162 29 13.2432V30.3982C29 30.6819 28.9149 30.9007 28.7447 31.0547C28.5745 31.2168 28.3394 31.2979 28.0395 31.2979C27.8936 31.2979 27.7518 31.2736 27.614 31.2249C27.4843 31.1763 27.3627 31.1033 27.2492 31.0061C26.4792 30.3495 25.6079 29.8511 24.6353 29.5106C23.6626 29.1783 22.6697 29.0122 21.6565 29.0122C21.0243 29.0122 20.4124 29.0811 19.8207 29.2188C19.229 29.3647 18.6697 29.5674 18.1429 29.8267C17.616 30.0942 17.1378 30.4144 16.7082 30.7872C16.5785 30.9007 16.4367 30.9574 16.2827 30.9574C16.1449 30.9574 16.0274 30.9088 15.9301 30.8115C15.8409 30.7224 15.7964 30.6008 15.7964 30.4468V12.465C15.7964 12.3029 15.8085 12.1854 15.8328 12.1125C15.8652 12.0395 15.9382 11.9179 16.0517 11.7477C16.6515 10.8886 17.4944 10.2158 18.5805 9.72948C19.6748 9.24316 20.8622 9 22.1429 9Z" fill="#1D70B8"/>
</svg>
