<svg width="36" height="40" viewBox="0 0 36 40" fill="none" xmlns="http://www.w3.org/2000/svg">
<path d="M18 34C16.085 34 14.2819 33.6326 12.5906 32.8977C10.8993 32.1719 9.4094 31.1637 8.12081 29.8733C6.83221 28.5918 5.82103 27.1042 5.08725 25.4105C4.36242 23.7168 4 21.9065 4 19.9798C4 18.1875 4.31767 16.4938 4.95302 14.8987C5.59732 13.2946 6.4877 11.8653 7.62416 10.6107C8.76957 9.35606 10.0984 8.32997 11.6107 7.53241C13.132 6.73484 14.7696 6.24196 16.5235 6.05377V20.289C16.5235 20.522 16.5503 20.7102 16.604 20.8536C16.6577 20.988 16.7606 21.1269 16.9128 21.2703L26.7517 30.8814C25.5168 31.8761 24.1476 32.6423 22.6443 33.18C21.1499 33.7267 19.6018 34 18 34ZM32 19.9798C32 21.7094 31.6913 23.3673 31.0738 24.9534C30.4564 26.5396 29.6063 27.9421 28.5235 29.1608L19.8792 20.6654L30.8054 14.4013C31.1902 15.2348 31.4855 16.1309 31.6913 17.0898C31.8971 18.0486 32 19.012 32 19.9798ZM18.9128 18.4609V6C20.3445 6.08961 21.7315 6.40326 23.0738 6.94095C24.4161 7.47864 25.651 8.20451 26.7785 9.11858C27.915 10.0326 28.8725 11.0901 29.651 12.2909L18.9128 18.4609Z" fill="#1D70B8"/>
</svg>
