<svg width="41" height="40" viewBox="0 0 41 40" fill="none" xmlns="http://www.w3.org/2000/svg">
<path d="M21 33C19.2902 33 17.6802 32.6719 16.1702 32.0158C14.6601 31.3677 13.3298 30.4676 12.1793 29.3154C11.0288 28.1712 10.1259 26.843 9.47076 25.3308C8.82359 23.8185 8.5 22.2023 8.5 20.482C8.5 18.8817 8.78364 17.3695 9.35091 15.9453C9.92617 14.513 10.7212 13.2368 11.7359 12.1167C12.7585 10.9965 13.945 10.0803 15.2953 9.36822C16.6536 8.6561 18.1157 8.21603 19.6817 8.04801V20.758C19.6817 20.9661 19.7057 21.1341 19.7536 21.2621C19.8015 21.3821 19.8934 21.5062 20.0292 21.6342L28.814 30.2156C27.7114 31.1037 26.489 31.7878 25.1467 32.2679C23.8124 32.756 22.4302 33 21 33ZM33.5 20.482C33.5 22.0262 33.2244 23.5065 32.6731 24.9227C32.1218 26.3389 31.3627 27.5911 30.396 28.6793L22.6779 21.0941L32.4334 15.5012C32.7769 16.2453 33.0406 17.0454 33.2244 17.9016C33.4081 18.7577 33.5 19.6179 33.5 20.482ZM21.815 19.1258V8C23.0933 8.08001 24.3317 8.36006 25.5302 8.84013C26.7287 9.32021 27.8313 9.96831 28.838 10.7844C29.8527 11.6006 30.7076 12.5447 31.4027 13.6169L21.815 19.1258Z" fill="#1D70B8"/>
</svg>
