<svg width="30" height="40" viewBox="0 0 30 40" fill="none" xmlns="http://www.w3.org/2000/svg">
<path d="M15 32.5C13.2902 32.5 11.6802 32.1719 10.1702 31.5158C8.66012 30.8677 7.32982 29.9676 6.17929 28.8154C5.02876 27.6712 4.12592 26.343 3.47076 24.8308C2.82359 23.3185 2.5 21.7023 2.5 19.982C2.5 18.3817 2.78364 16.8695 3.35091 15.4453C3.92617 14.013 4.72116 12.7368 5.73586 11.6167C6.75855 10.4965 7.94503 9.58033 9.2953 8.86822C10.6536 8.1561 12.1157 7.71603 13.6817 7.54801V20.258C13.6817 20.4661 13.7057 20.6341 13.7536 20.7621C13.8015 20.8821 13.8934 21.0062 14.0292 21.1342L22.814 29.7156C21.7114 30.6037 20.489 31.2878 19.1467 31.7679C17.8124 32.256 16.4302 32.5 15 32.5ZM27.5 19.982C27.5 21.5262 27.2244 23.0065 26.6731 24.4227C26.1218 25.8389 25.3627 27.0911 24.396 28.1793L16.6779 20.5941L26.4334 15.0012C26.7769 15.7453 27.0406 16.5454 27.2244 17.4016C27.4081 18.2577 27.5 19.1179 27.5 19.982ZM15.815 18.6258V7.5C17.0933 7.58001 18.3317 7.86006 19.5302 8.34013C20.7287 8.82021 21.8313 9.46831 22.838 10.2844C23.8527 11.1006 24.7076 12.0447 25.4027 13.1169L15.815 18.6258Z" fill="#1D70B8"/>
</svg>
