<svg width="24" height="22" viewBox="0 0 24 22" fill="none" xmlns="http://www.w3.org/2000/svg">
<path d="M21.5662 10.5083C21.5606 15.4573 17.4698 19.4718 12.5113 19.3979C11.1007 19.3769 9.76939 19.0295 8.59001 18.4273C8.15314 18.2044 7.63394 18.2127 7.2061 18.4521C5.93235 19.1653 4.27099 19.3934 2.73144 19.3127C2.72128 19.3124 2.71151 19.3112 2.70173 19.3101C2.42277 19.2748 2.33593 18.9064 2.56413 18.7417C3.72472 17.9039 4.48867 16.5533 4.5225 15.0233C4.53228 14.824 4.52476 14.6222 4.49731 14.4162C4.46987 14.2072 4.42212 13.9949 4.35295 13.7784C4.23076 13.4704 4.12512 13.1545 4.03752 12.8307C3.83375 12.0807 3.72585 11.2909 3.7281 10.476C3.73976 5.54948 7.71966 1.59241 12.6564 1.59766C17.5811 1.60291 21.5715 5.59112 21.5662 10.5083Z" stroke="#4D4D4D" stroke-width="1.6" stroke-linecap="round"/>
<path d="M9.32812 9.10156H16.1345M9.32812 11.8936H13.4294" stroke="#4D4D4D" stroke-width="1.6" stroke-linecap="round"/>
</svg>
