<?xml version="1.0" encoding="UTF-8"?>
<svg id="Layer_2" data-name="Layer 2" xmlns="http://www.w3.org/2000/svg" viewBox="0 0 128.45 149.43">
  <defs>
    <style>
      .cls-1 {
        fill: #1d70b8;
      }

      .cls-2 {
        fill: #d2e2f1;
      }
    </style>
  </defs>
  <g id="Layer_1-2" data-name="Layer 1">
    <g>
      <rect class="cls-2" x="59.56" y="0" width="10.94" height="36.73" rx="5.47" ry="5.47"/>
      <path class="cls-2" d="M82.25,131.46c0,2.7-.62,5.27-1.71,7.57-1.36,2.86-3.45,5.34-6.05,7.14-2.92,2.05-6.48,3.26-10.27,3.26-2.29,0-4.48-.43-6.51-1.23-6.72-2.61-11.51-9.16-11.51-16.75,0-4.6,1.74-8.8,4.6-11.99,3.3-3.7,8.11-6.03,13.42-6.03,9.82,0,18.03,8.1,18.03,18.02Z"/>
      <path class="cls-1" d="M82.25,41.57c0-5.42,1.91-10.42,5.09-14.35,13.91,6.71,24.45,19.3,28.39,34.55-3.18,1.68-6.79,2.64-10.59,2.64-2.91,0-5.7-.55-8.26-1.56-8.54-3.32-14.63-11.65-14.63-21.28Z"/>
      <path class="cls-1" d="M122.21,127.9c-.84.27-1.73.41-2.68.41H8.92c-7.16,0-11.42-8.06-7.32-13.92,6.8-9.74,9.82-21.68,9.55-35.51,0-1.24-.05-2.49-.12-3.76,0-27.8,21.33-50.62,48.53-52.97,1.53-.14,3.09-.21,4.66-.21,2.13,0,4.22.13,6.28.37,1.87.22,3.71.54,5.52.95,2.25.51,4.44,1.16,6.57,1.94-3.47,4.75-5.34,10.46-5.34,16.37,0,11.37,7.16,21.8,17.81,25.94,3.2,1.25,6.59,1.9,10.08,1.9,4.05,0,8.01-.88,11.64-2.58.42,2.7.64,5.47.64,8.29-.08,1.27-.12,2.52-.13,3.76-.27,13.83,2.76,25.77,9.56,35.51,3.55,5.08.82,11.82-4.64,13.51Z"/>
    </g>
    <path class="cls-2" d="M128.05,41.57c0,3.42-.79,6.7-2.18,9.62-1.72,3.64-4.39,6.78-7.68,9.08-.78.55-1.6,1.05-2.46,1.5-3.18,1.68-6.79,2.64-10.59,2.64-2.91,0-5.7-.55-8.26-1.56-8.54-3.32-14.63-11.65-14.63-21.28,0-5.42,1.91-10.42,5.09-14.35.24-.31.49-.6.75-.89,4.19-4.69,10.3-7.66,17.05-7.66,12.48,0,22.91,10.29,22.91,22.9Z"/>
  </g>
</svg>