<svg width="40" height="40" viewBox="0 0 40 40" fill="none" xmlns="http://www.w3.org/2000/svg">
<rect width="40" height="40" rx="20" fill="#193E61"/>
<path d="M12.5391 17.9082C11.901 17.9082 11.3216 17.7552 10.8008 17.4492C10.2799 17.1367 9.86328 16.7201 9.55078 16.1992C9.24479 15.6719 9.0918 15.0924 9.0918 14.4609C9.0918 13.8229 9.24479 13.2435 9.55078 12.7227C9.86328 12.2018 10.2799 11.7884 10.8008 11.4824C11.3216 11.1699 11.901 11.0137 12.5391 11.0137C13.1706 11.0137 13.7467 11.1699 14.2676 11.4824C14.7884 11.7884 15.2051 12.2018 15.5176 12.7227C15.8301 13.2435 15.9863 13.8229 15.9863 14.4609C15.9863 15.0924 15.8301 15.6719 15.5176 16.1992C15.2051 16.7201 14.7884 17.1367 14.2676 17.4492C13.7467 17.7552 13.1706 17.9082 12.5391 17.9082ZM27.4512 17.9082C26.8197 17.9082 26.2435 17.7552 25.7227 17.4492C25.2018 17.1367 24.7852 16.7201 24.4727 16.1992C24.1602 15.6719 24.0039 15.0924 24.0039 14.4609C24.0039 13.8229 24.1602 13.2435 24.4727 12.7227C24.7852 12.2018 25.2018 11.7884 25.7227 11.4824C26.2435 11.1699 26.8197 11.0137 27.4512 11.0137C28.0892 11.0137 28.6686 11.1699 29.1895 11.4824C29.7168 11.7884 30.1335 12.2018 30.4395 12.7227C30.752 13.2435 30.9082 13.8229 30.9082 14.4609C30.9082 15.0924 30.752 15.6719 30.4395 16.1992C30.1335 16.7201 29.7168 17.1367 29.1895 17.4492C28.6686 17.7552 28.0892 17.9082 27.4512 17.9082ZM20 28.8945C19.3685 28.8945 18.7923 28.7383 18.2715 28.4258C17.7507 28.1133 17.334 27.6966 17.0215 27.1758C16.709 26.6549 16.5527 26.0755 16.5527 25.4375C16.5527 24.806 16.709 24.2298 17.0215 23.709C17.334 23.1882 17.7507 22.7747 18.2715 22.4688C18.7923 22.1562 19.3685 22 20 22C20.638 22 21.2174 22.1562 21.7383 22.4688C22.2591 22.7747 22.6725 23.1882 22.9785 23.709C23.291 24.2298 23.4473 24.806 23.4473 25.4375C23.4473 26.0755 23.291 26.6549 22.9785 27.1758C22.6725 27.6966 22.2591 28.1133 21.7383 28.4258C21.2174 28.7383 20.638 28.8945 20 28.8945ZM17.5586 15.3301C17.3242 15.3301 17.1224 15.2487 16.9531 15.0859C16.7904 14.9167 16.709 14.7116 16.709 14.4707C16.709 14.2428 16.7904 14.0443 16.9531 13.875C17.1224 13.7057 17.3242 13.6211 17.5586 13.6211C17.793 13.6211 17.9915 13.7057 18.1543 13.875C18.3236 14.0443 18.4082 14.2428 18.4082 14.4707C18.4082 14.7116 18.3236 14.9167 18.1543 15.0859C17.9915 15.2487 17.793 15.3301 17.5586 15.3301ZM20 15.3301C19.7656 15.3301 19.5638 15.2487 19.3945 15.0859C19.2318 14.9167 19.1504 14.7116 19.1504 14.4707C19.1504 14.2428 19.2318 14.0443 19.3945 13.875C19.5638 13.7057 19.7656 13.6211 20 13.6211C20.2344 13.6211 20.4329 13.7057 20.5957 13.875C20.765 14.0443 20.8496 14.2428 20.8496 14.4707C20.8496 14.7116 20.765 14.9167 20.5957 15.0859C20.4329 15.2487 20.2344 15.3301 20 15.3301ZM22.4316 15.3301C22.1973 15.3301 21.9954 15.2487 21.8262 15.0859C21.6634 14.9167 21.582 14.7116 21.582 14.4707C21.582 14.2428 21.6634 14.0443 21.8262 13.875C21.9954 13.7057 22.1973 13.6211 22.4316 13.6211C22.666 13.6211 22.8678 13.7057 23.0371 13.875C23.2064 14.0443 23.291 14.2428 23.291 14.4707C23.291 14.7116 23.2064 14.9167 23.0371 15.0859C22.8678 15.2487 22.666 15.3301 22.4316 15.3301ZM24.8926 19.8516C24.6647 19.8516 24.4661 19.7702 24.2969 19.6074C24.1276 19.4382 24.043 19.2363 24.043 19.002C24.043 18.7676 24.1276 18.569 24.2969 18.4062C24.4661 18.237 24.6647 18.1523 24.8926 18.1523C25.1335 18.1523 25.3353 18.237 25.498 18.4062C25.6673 18.569 25.752 18.7676 25.752 19.002C25.752 19.2363 25.6673 19.4382 25.498 19.6074C25.3353 19.7702 25.1335 19.8516 24.8926 19.8516ZM23.0371 21.9023C22.8027 21.9023 22.6009 21.821 22.4316 21.6582C22.2689 21.4889 22.1875 21.2871 22.1875 21.0527C22.1875 20.8249 22.2689 20.6263 22.4316 20.457C22.6009 20.2878 22.8027 20.2031 23.0371 20.2031C23.2715 20.2031 23.4701 20.2878 23.6328 20.457C23.8021 20.6263 23.8867 20.8249 23.8867 21.0527C23.8867 21.2871 23.8021 21.4889 23.6328 21.6582C23.4701 21.821 23.2715 21.9023 23.0371 21.9023ZM16.9531 21.9023C16.7253 21.9023 16.5267 21.821 16.3574 21.6582C16.1882 21.4889 16.1035 21.2871 16.1035 21.0527C16.1035 20.8249 16.1882 20.6263 16.3574 20.457C16.5267 20.2878 16.7253 20.2031 16.9531 20.2031C17.194 20.2031 17.3958 20.2878 17.5586 20.457C17.7279 20.6263 17.8125 20.8249 17.8125 21.0527C17.8125 21.2871 17.7279 21.4889 17.5586 21.6582C17.3958 21.821 17.194 21.9023 16.9531 21.9023ZM15.0977 19.8516C14.8633 19.8516 14.6615 19.7702 14.4922 19.6074C14.3229 19.4382 14.2383 19.2363 14.2383 19.002C14.2383 18.7676 14.3229 18.569 14.4922 18.4062C14.6615 18.237 14.8633 18.1523 15.0977 18.1523C15.3255 18.1523 15.5241 18.237 15.6934 18.4062C15.8626 18.569 15.9473 18.7676 15.9473 19.002C15.9473 19.2363 15.8626 19.4382 15.6934 19.6074C15.5241 19.7702 15.3255 19.8516 15.0977 19.8516Z" fill="#259AFF"/>
</svg>
