<svg width="40" height="40" viewBox="0 0 40 40" fill="none" xmlns="http://www.w3.org/2000/svg">
<path d="M11.0469 18.0898C10.2812 18.0898 9.58594 17.9062 8.96094 17.5391C8.33594 17.1641 7.83594 16.6641 7.46094 16.0391C7.09375 15.4062 6.91016 14.7109 6.91016 13.9531C6.91016 13.1875 7.09375 12.4922 7.46094 11.8672C7.83594 11.2422 8.33594 10.7461 8.96094 10.3789C9.58594 10.0039 10.2812 9.81641 11.0469 9.81641C11.8047 9.81641 12.4961 10.0039 13.1211 10.3789C13.7461 10.7461 14.2461 11.2422 14.6211 11.8672C14.9961 12.4922 15.1836 13.1875 15.1836 13.9531C15.1836 14.7109 14.9961 15.4062 14.6211 16.0391C14.2461 16.6641 13.7461 17.1641 13.1211 17.5391C12.4961 17.9062 11.8047 18.0898 11.0469 18.0898ZM28.9414 18.0898C28.1836 18.0898 27.4922 17.9062 26.8672 17.5391C26.2422 17.1641 25.7422 16.6641 25.3672 16.0391C24.9922 15.4062 24.8047 14.7109 24.8047 13.9531C24.8047 13.1875 24.9922 12.4922 25.3672 11.8672C25.7422 11.2422 26.2422 10.7461 26.8672 10.3789C27.4922 10.0039 28.1836 9.81641 28.9414 9.81641C29.707 9.81641 30.4023 10.0039 31.0273 10.3789C31.6602 10.7461 32.1602 11.2422 32.5273 11.8672C32.9023 12.4922 33.0898 13.1875 33.0898 13.9531C33.0898 14.7109 32.9023 15.4062 32.5273 16.0391C32.1602 16.6641 31.6602 17.1641 31.0273 17.5391C30.4023 17.9062 29.707 18.0898 28.9414 18.0898ZM20 31.2734C19.2422 31.2734 18.5508 31.0859 17.9258 30.7109C17.3008 30.3359 16.8008 29.8359 16.4258 29.2109C16.0508 28.5859 15.8633 27.8906 15.8633 27.125C15.8633 26.3672 16.0508 25.6758 16.4258 25.0508C16.8008 24.4258 17.3008 23.9297 17.9258 23.5625C18.5508 23.1875 19.2422 23 20 23C20.7656 23 21.4609 23.1875 22.0859 23.5625C22.7109 23.9297 23.207 24.4258 23.5742 25.0508C23.9492 25.6758 24.1367 26.3672 24.1367 27.125C24.1367 27.8906 23.9492 28.5859 23.5742 29.2109C23.207 29.8359 22.7109 30.3359 22.0859 30.7109C21.4609 31.0859 20.7656 31.2734 20 31.2734ZM17.0703 14.9961C16.7891 14.9961 16.5469 14.8984 16.3438 14.7031C16.1484 14.5 16.0508 14.2539 16.0508 13.9648C16.0508 13.6914 16.1484 13.4531 16.3438 13.25C16.5469 13.0469 16.7891 12.9453 17.0703 12.9453C17.3516 12.9453 17.5898 13.0469 17.7852 13.25C17.9883 13.4531 18.0898 13.6914 18.0898 13.9648C18.0898 14.2539 17.9883 14.5 17.7852 14.7031C17.5898 14.8984 17.3516 14.9961 17.0703 14.9961ZM20 14.9961C19.7188 14.9961 19.4766 14.8984 19.2734 14.7031C19.0781 14.5 18.9805 14.2539 18.9805 13.9648C18.9805 13.6914 19.0781 13.4531 19.2734 13.25C19.4766 13.0469 19.7188 12.9453 20 12.9453C20.2812 12.9453 20.5195 13.0469 20.7148 13.25C20.918 13.4531 21.0195 13.6914 21.0195 13.9648C21.0195 14.2539 20.918 14.5 20.7148 14.7031C20.5195 14.8984 20.2812 14.9961 20 14.9961ZM22.918 14.9961C22.6367 14.9961 22.3945 14.8984 22.1914 14.7031C21.9961 14.5 21.8984 14.2539 21.8984 13.9648C21.8984 13.6914 21.9961 13.4531 22.1914 13.25C22.3945 13.0469 22.6367 12.9453 22.918 12.9453C23.1992 12.9453 23.4414 13.0469 23.6445 13.25C23.8477 13.4531 23.9492 13.6914 23.9492 13.9648C23.9492 14.2539 23.8477 14.5 23.6445 14.7031C23.4414 14.8984 23.1992 14.9961 22.918 14.9961ZM25.8711 20.4219C25.5977 20.4219 25.3594 20.3242 25.1562 20.1289C24.9531 19.9258 24.8516 19.6836 24.8516 19.4023C24.8516 19.1211 24.9531 18.8828 25.1562 18.6875C25.3594 18.4844 25.5977 18.3828 25.8711 18.3828C26.1602 18.3828 26.4023 18.4844 26.5977 18.6875C26.8008 18.8828 26.9023 19.1211 26.9023 19.4023C26.9023 19.6836 26.8008 19.9258 26.5977 20.1289C26.4023 20.3242 26.1602 20.4219 25.8711 20.4219ZM23.6445 22.8828C23.3633 22.8828 23.1211 22.7852 22.918 22.5898C22.7227 22.3867 22.625 22.1445 22.625 21.8633C22.625 21.5898 22.7227 21.3516 22.918 21.1484C23.1211 20.9453 23.3633 20.8438 23.6445 20.8438C23.9258 20.8438 24.1641 20.9453 24.3594 21.1484C24.5625 21.3516 24.6641 21.5898 24.6641 21.8633C24.6641 22.1445 24.5625 22.3867 24.3594 22.5898C24.1641 22.7852 23.9258 22.8828 23.6445 22.8828ZM16.3438 22.8828C16.0703 22.8828 15.832 22.7852 15.6289 22.5898C15.4258 22.3867 15.3242 22.1445 15.3242 21.8633C15.3242 21.5898 15.4258 21.3516 15.6289 21.1484C15.832 20.9453 16.0703 20.8438 16.3438 20.8438C16.6328 20.8438 16.875 20.9453 17.0703 21.1484C17.2734 21.3516 17.375 21.5898 17.375 21.8633C17.375 22.1445 17.2734 22.3867 17.0703 22.5898C16.875 22.7852 16.6328 22.8828 16.3438 22.8828ZM14.1172 20.4219C13.8359 20.4219 13.5938 20.3242 13.3906 20.1289C13.1875 19.9258 13.0859 19.6836 13.0859 19.4023C13.0859 19.1211 13.1875 18.8828 13.3906 18.6875C13.5938 18.4844 13.8359 18.3828 14.1172 18.3828C14.3906 18.3828 14.6289 18.4844 14.832 18.6875C15.0352 18.8828 15.1367 19.1211 15.1367 19.4023C15.1367 19.6836 15.0352 19.9258 14.832 20.1289C14.6289 20.3242 14.3906 20.4219 14.1172 20.4219Z" fill="#1D70B8"/>
</svg>
