<svg width="30" height="40" viewBox="0 0 30 40" fill="none" xmlns="http://www.w3.org/2000/svg">
<path d="M9.40411 18.4462H20.5959C20.7733 18.4462 20.9226 18.3857 21.0436 18.2647C21.1645 18.1437 21.225 17.9985 21.225 17.8291C21.225 17.6597 21.1645 17.5145 21.0436 17.3935C20.9226 17.2645 20.7733 17.1999 20.5959 17.1999H9.40411C9.23472 17.1999 9.0855 17.2645 8.95644 17.3935C8.83545 17.5145 8.77495 17.6597 8.77495 17.8291C8.77495 17.9985 8.83545 18.1437 8.95644 18.2647C9.0855 18.3857 9.23472 18.4462 9.40411 18.4462ZM9.40411 22.8987H20.5959C20.7653 22.8987 20.9105 22.8382 21.0315 22.7172C21.1605 22.5962 21.225 22.451 21.225 22.2816C21.225 22.1042 21.1605 21.959 21.0315 21.846C20.9105 21.725 20.7653 21.6645 20.5959 21.6645H9.40411C9.23472 21.6645 9.0855 21.725 8.95644 21.846C8.83545 21.959 8.77495 22.1042 8.77495 22.2816C8.77495 22.451 8.83545 22.5962 8.95644 22.7172C9.0855 22.8382 9.23472 22.8987 9.40411 22.8987ZM9.40411 27.6053H15.3085C15.4779 27.6053 15.6231 27.5448 15.7441 27.4238C15.8651 27.2947 15.9256 27.1455 15.9256 26.9761C15.9256 26.8067 15.8651 26.6656 15.7441 26.5526C15.6312 26.4316 15.486 26.3711 15.3085 26.3711H9.40411C9.23472 26.3711 9.0855 26.4316 8.95644 26.5526C8.83545 26.6656 8.77495 26.8067 8.77495 26.9761C8.77495 27.1455 8.83545 27.2947 8.95644 27.4238C9.0855 27.5448 9.23472 27.6053 9.40411 27.6053ZM8.53297 34.3929C7.36338 34.3929 6.48014 34.0945 5.88324 33.4976C5.29441 32.9007 5 32.0134 5 30.8358V12.1667C5 10.989 5.29038 10.1017 5.87114 9.50484C6.45997 8.90795 7.32305 8.6095 8.46038 8.6095H9.06534C9.06534 8.6337 9.06534 8.66193 9.06534 8.69419C9.06534 8.71839 9.06534 8.74259 9.06534 8.76679V10.0977C9.06534 10.7591 9.27102 11.3036 9.6824 11.7311C10.1018 12.1505 10.6423 12.3603 11.3037 12.3603H18.6963C19.3577 12.3603 19.8941 12.1505 20.3055 11.7311C20.7249 11.3036 20.9347 10.7591 20.9347 10.0977V8.76679C20.9347 8.74259 20.9347 8.71839 20.9347 8.69419C20.9347 8.66193 20.9347 8.6337 20.9347 8.6095H21.5517C22.681 8.6095 23.536 8.90795 24.1168 9.50484C24.7056 10.1017 25 10.989 25 12.1667V30.8358C25 32.0134 24.7016 32.9007 24.1047 33.4976C23.5158 34.0945 22.6366 34.3929 21.467 34.3929H8.53297ZM11.3037 11.1261C10.9891 11.1261 10.7431 11.0374 10.5656 10.86C10.3882 10.6744 10.2995 10.4203 10.2995 10.0977V8.86358C10.2995 8.53287 10.3882 8.27879 10.5656 8.10133C10.7431 7.92388 10.9891 7.83515 11.3037 7.83515H12.5862C12.6104 7.18986 12.8564 6.64136 13.3243 6.18966C13.7921 5.72989 14.3527 5.5 15.0061 5.5C15.6513 5.5 16.2079 5.72989 16.6757 6.18966C17.1436 6.64136 17.3896 7.18986 17.4138 7.83515H18.6963C19.0109 7.83515 19.2569 7.92388 19.4344 8.10133C19.6118 8.27879 19.7005 8.53287 19.7005 8.86358V10.0977C19.7005 10.4203 19.6118 10.6744 19.4344 10.86C19.2569 11.0374 19.0109 11.1261 18.6963 11.1261H11.3037ZM15.0061 8.97247C15.3045 8.97247 15.5586 8.86358 15.7683 8.6458C15.978 8.42801 16.0829 8.17796 16.0829 7.89564C16.0829 7.58913 15.978 7.33101 15.7683 7.12129C15.5586 6.91157 15.3045 6.80672 15.0061 6.80672C14.6995 6.80672 14.4414 6.91157 14.2317 7.12129C14.022 7.33101 13.9171 7.58913 13.9171 7.89564C13.9171 8.17796 14.022 8.42801 14.2317 8.6458C14.4414 8.86358 14.6995 8.97247 15.0061 8.97247Z" fill="#1D70B8"/>
</svg>
