<svg width="40" height="40" viewBox="0 0 40 40" fill="none" xmlns="http://www.w3.org/2000/svg">
<rect width="40" height="40" rx="20" fill="#263D54"/>
<path d="M15.5449 18.3057H24.4541C24.5953 18.3057 24.7141 18.2575 24.8104 18.1612C24.9067 18.0649 24.9549 17.9493 24.9549 17.8145C24.9549 17.6796 24.9067 17.5641 24.8104 17.4678C24.7141 17.365 24.5953 17.3137 24.4541 17.3137H15.5449C15.4101 17.3137 15.2913 17.365 15.1886 17.4678C15.0922 17.5641 15.0441 17.6796 15.0441 17.8145C15.0441 17.9493 15.0922 18.0649 15.1886 18.1612C15.2913 18.2575 15.4101 18.3057 15.5449 18.3057ZM15.5449 21.8501H24.4541C24.5889 21.8501 24.7045 21.8019 24.8008 21.7056C24.9035 21.6093 24.9549 21.4937 24.9549 21.3589C24.9549 21.2176 24.9035 21.102 24.8008 21.0121C24.7045 20.9158 24.5889 20.8677 24.4541 20.8677H15.5449C15.4101 20.8677 15.2913 20.9158 15.1886 21.0121C15.0922 21.102 15.0441 21.2176 15.0441 21.3589C15.0441 21.4937 15.0922 21.6093 15.1886 21.7056C15.2913 21.8019 15.4101 21.8501 15.5449 21.8501ZM15.5449 25.5967H20.2451C20.3799 25.5967 20.4955 25.5486 20.5918 25.4523C20.6881 25.3495 20.7363 25.2307 20.7363 25.0959C20.7363 24.9611 20.6881 24.8487 20.5918 24.7588C20.5019 24.6625 20.3864 24.6143 20.2451 24.6143H15.5449C15.4101 24.6143 15.2913 24.6625 15.1886 24.7588C15.0922 24.8487 15.0441 24.9611 15.0441 25.0959C15.0441 25.2307 15.0922 25.3495 15.1886 25.4523C15.2913 25.5486 15.4101 25.5967 15.5449 25.5967ZM14.8515 31C13.9204 31 13.2173 30.7624 12.7422 30.2873C12.2734 29.8121 12.0391 29.1058 12.0391 28.1683V13.307C12.0391 12.3695 12.2702 11.6632 12.7325 11.188C13.2013 10.7129 13.8883 10.4753 14.7937 10.4753H15.2752C15.2752 10.4946 15.2752 10.517 15.2752 10.5427C15.2752 10.562 15.2752 10.5812 15.2752 10.6005V11.66C15.2752 12.1865 15.439 12.6199 15.7664 12.9602C16.1003 13.2941 16.5305 13.4611 17.0571 13.4611H22.9419C23.4684 13.4611 23.8954 13.2941 24.2229 12.9602C24.5568 12.6199 24.7237 12.1865 24.7237 11.66V10.6005C24.7237 10.5812 24.7237 10.562 24.7237 10.5427C24.7237 10.517 24.7237 10.4946 24.7237 10.4753H25.2149C26.1139 10.4753 26.7945 10.7129 27.2568 11.188C27.7256 11.6632 27.9599 12.3695 27.9599 13.307V28.1683C27.9599 29.1058 27.7223 29.8121 27.2472 30.2873C26.7785 30.7624 26.0786 31 25.1475 31H14.8515ZM17.0571 12.4786C16.8067 12.4786 16.6108 12.408 16.4695 12.2668C16.3283 12.1191 16.2577 11.9168 16.2577 11.66V10.6776C16.2577 10.4143 16.3283 10.212 16.4695 10.0708C16.6108 9.92951 16.8067 9.85888 17.0571 9.85888H18.078C18.0973 9.3452 18.2931 8.90857 18.6655 8.54899C19.0379 8.183 19.4842 8 20.0043 8C20.518 8 20.961 8.183 21.3335 8.54899C21.7059 8.90857 21.9017 9.3452 21.921 9.85888H22.9419C23.1923 9.85888 23.3882 9.92951 23.5294 10.0708C23.6707 10.212 23.7413 10.4143 23.7413 10.6776V11.66C23.7413 11.9168 23.6707 12.1191 23.5294 12.2668C23.3882 12.408 23.1923 12.4786 22.9419 12.4786H17.0571ZM20.0043 10.7642C20.2419 10.7642 20.4441 10.6776 20.6111 10.5042C20.778 10.3308 20.8615 10.1318 20.8615 9.90704C20.8615 9.66304 20.778 9.45757 20.6111 9.29062C20.4441 9.12367 20.2419 9.0402 20.0043 9.0402C19.7603 9.0402 19.5548 9.12367 19.3879 9.29062C19.2209 9.45757 19.1375 9.66304 19.1375 9.90704C19.1375 10.1318 19.2209 10.3308 19.3879 10.5042C19.5548 10.6776 19.7603 10.7642 20.0043 10.7642Z" fill="white"/>
</svg>
