<svg width="41" height="40" viewBox="0 0 41 40" fill="none" xmlns="http://www.w3.org/2000/svg">
<path d="M14.9041 18.9462H26.0959C26.2733 18.9462 26.4226 18.8857 26.5436 18.7647C26.6645 18.6437 26.725 18.4985 26.725 18.3291C26.725 18.1597 26.6645 18.0145 26.5436 17.8935C26.4226 17.7645 26.2733 17.6999 26.0959 17.6999H14.9041C14.7347 17.6999 14.5855 17.7645 14.4564 17.8935C14.3355 18.0145 14.275 18.1597 14.275 18.3291C14.275 18.4985 14.3355 18.6437 14.4564 18.7647C14.5855 18.8857 14.7347 18.9462 14.9041 18.9462ZM14.9041 23.3987H26.0959C26.2653 23.3987 26.4105 23.3382 26.5315 23.2172C26.6605 23.0962 26.725 22.951 26.725 22.7816C26.725 22.6042 26.6605 22.459 26.5315 22.346C26.4105 22.225 26.2653 22.1645 26.0959 22.1645H14.9041C14.7347 22.1645 14.5855 22.225 14.4564 22.346C14.3355 22.459 14.275 22.6042 14.275 22.7816C14.275 22.951 14.3355 23.0962 14.4564 23.2172C14.5855 23.3382 14.7347 23.3987 14.9041 23.3987ZM14.9041 28.1053H20.8085C20.9779 28.1053 21.1231 28.0448 21.2441 27.9238C21.3651 27.7947 21.4256 27.6455 21.4256 27.4761C21.4256 27.3067 21.3651 27.1656 21.2441 27.0526C21.1312 26.9316 20.986 26.8711 20.8085 26.8711H14.9041C14.7347 26.8711 14.5855 26.9316 14.4564 27.0526C14.3355 27.1656 14.275 27.3067 14.275 27.4761C14.275 27.6455 14.3355 27.7947 14.4564 27.9238C14.5855 28.0448 14.7347 28.1053 14.9041 28.1053ZM14.033 34.8929C12.8634 34.8929 11.9801 34.5945 11.3832 33.9976C10.7944 33.4007 10.5 32.5134 10.5 31.3358V12.6667C10.5 11.489 10.7904 10.6017 11.3711 10.0048C11.96 9.40795 12.823 9.1095 13.9604 9.1095H14.5653C14.5653 9.1337 14.5653 9.16193 14.5653 9.19419C14.5653 9.21839 14.5653 9.24259 14.5653 9.26679V10.5977C14.5653 11.2591 14.771 11.8036 15.1824 12.2311C15.6018 12.6505 16.1423 12.8603 16.8037 12.8603H24.1963C24.8577 12.8603 25.3941 12.6505 25.8055 12.2311C26.2249 11.8036 26.4347 11.2591 26.4347 10.5977V9.26679C26.4347 9.24259 26.4347 9.21839 26.4347 9.19419C26.4347 9.16193 26.4347 9.1337 26.4347 9.1095H27.0517C28.181 9.1095 29.036 9.40795 29.6168 10.0048C30.2056 10.6017 30.5 11.489 30.5 12.6667V31.3358C30.5 32.5134 30.2016 33.4007 29.6047 33.9976C29.0158 34.5945 28.1366 34.8929 26.967 34.8929H14.033ZM16.8037 11.6261C16.4891 11.6261 16.2431 11.5374 16.0656 11.36C15.8882 11.1744 15.7995 10.9203 15.7995 10.5977V9.36358C15.7995 9.03287 15.8882 8.77879 16.0656 8.60133C16.2431 8.42388 16.4891 8.33515 16.8037 8.33515H18.0862C18.1104 7.68986 18.3564 7.14136 18.8243 6.68966C19.2921 6.22989 19.8527 6 20.5061 6C21.1513 6 21.7079 6.22989 22.1757 6.68966C22.6436 7.14136 22.8896 7.68986 22.9138 8.33515H24.1963C24.5109 8.33515 24.7569 8.42388 24.9344 8.60133C25.1118 8.77879 25.2005 9.03287 25.2005 9.36358V10.5977C25.2005 10.9203 25.1118 11.1744 24.9344 11.36C24.7569 11.5374 24.5109 11.6261 24.1963 11.6261H16.8037ZM20.5061 9.47247C20.8045 9.47247 21.0586 9.36358 21.2683 9.1458C21.478 8.92801 21.5829 8.67796 21.5829 8.39564C21.5829 8.08913 21.478 7.83101 21.2683 7.62129C21.0586 7.41157 20.8045 7.30672 20.5061 7.30672C20.1995 7.30672 19.9414 7.41157 19.7317 7.62129C19.522 7.83101 19.4171 8.08913 19.4171 8.39564C19.4171 8.67796 19.522 8.92801 19.7317 9.1458C19.9414 9.36358 20.1995 9.47247 20.5061 9.47247Z" fill="#1D70B8"/>
</svg>
