<svg width="36" height="40" viewBox="0 0 36 40" fill="none" xmlns="http://www.w3.org/2000/svg">
<path d="M11.8445 18.3384H24.1555C24.3507 18.3384 24.5148 18.2714 24.6479 18.1374C24.781 18.0034 24.8475 17.8425 24.8475 17.6549C24.8475 17.4673 24.781 17.3065 24.6479 17.1725C24.5148 17.0296 24.3507 16.9581 24.1555 16.9581H11.8445C11.6582 16.9581 11.4941 17.0296 11.3521 17.1725C11.219 17.3065 11.1525 17.4673 11.1525 17.6549C11.1525 17.8425 11.219 18.0034 11.3521 18.1374C11.4941 18.2714 11.6582 18.3384 11.8445 18.3384ZM11.8445 23.2697H24.1555C24.3418 23.2697 24.5015 23.2027 24.6346 23.0687C24.7766 22.9347 24.8475 22.7739 24.8475 22.5863C24.8475 22.3897 24.7766 22.2289 24.6346 22.1039C24.5015 21.9699 24.3418 21.9028 24.1555 21.9028H11.8445C11.6582 21.9028 11.4941 21.9699 11.3521 22.1039C11.219 22.2289 11.1525 22.3897 11.1525 22.5863C11.1525 22.7739 11.219 22.9347 11.3521 23.0687C11.4941 23.2027 11.6582 23.2697 11.8445 23.2697ZM11.8445 28.4824H18.3394C18.5257 28.4824 18.6854 28.4154 18.8185 28.2814C18.9516 28.1385 19.0181 27.9732 19.0181 27.7856C19.0181 27.598 18.9516 27.4417 18.8185 27.3166C18.6943 27.1826 18.5346 27.1156 18.3394 27.1156H11.8445C11.6582 27.1156 11.4941 27.1826 11.3521 27.3166C11.219 27.4417 11.1525 27.598 11.1525 27.7856C11.1525 27.9732 11.219 28.1385 11.3521 28.2814C11.4941 28.4154 11.6582 28.4824 11.8445 28.4824ZM10.8863 36C9.59972 36 8.62815 35.6695 7.97157 35.0084C7.32386 34.3473 7 33.3646 7 32.0603V11.3836C7 10.0793 7.31942 9.09659 7.95826 8.43551C8.60597 7.77443 9.55535 7.44389 10.8064 7.44389H11.4719C11.4719 7.47069 11.4719 7.50195 11.4719 7.53769C11.4719 7.56449 11.4719 7.59129 11.4719 7.61809V9.09213C11.4719 9.82468 11.6981 10.4277 12.1506 10.9012C12.612 11.3657 13.2065 11.598 13.9341 11.598H22.0659C22.7935 11.598 23.3835 11.3657 23.8361 10.9012C24.2974 10.4277 24.5281 9.82468 24.5281 9.09213V7.61809C24.5281 7.59129 24.5281 7.56449 24.5281 7.53769C24.5281 7.50195 24.5281 7.47069 24.5281 7.44389H25.2069C26.4491 7.44389 27.3896 7.77443 28.0284 8.43551C28.6761 9.09659 29 10.0793 29 11.3836V32.0603C29 33.3646 28.6717 34.3473 28.0151 35.0084C27.3674 35.6695 26.4003 36 25.1137 36H10.8863ZM13.9341 10.2312C13.588 10.2312 13.3174 10.1329 13.1222 9.93635C12.927 9.73088 12.8294 9.44947 12.8294 9.09213V7.72529C12.8294 7.35902 12.927 7.07761 13.1222 6.88107C13.3174 6.68453 13.588 6.58626 13.9341 6.58626H15.3448C15.3714 5.87158 15.6421 5.2641 16.1567 4.76382C16.6713 4.25461 17.288 4 18.0067 4C18.7165 4 19.3287 4.25461 19.8433 4.76382C20.3579 5.2641 20.6286 5.87158 20.6552 6.58626H22.0659C22.412 6.58626 22.6826 6.68453 22.8778 6.88107C23.073 7.07761 23.1706 7.35902 23.1706 7.72529V9.09213C23.1706 9.44947 23.073 9.73088 22.8778 9.93635C22.6826 10.1329 22.412 10.2312 22.0659 10.2312H13.9341ZM18.0067 7.8459C18.3349 7.8459 18.6144 7.72529 18.8451 7.48409C19.0758 7.24288 19.1912 6.96594 19.1912 6.65327C19.1912 6.31379 19.0758 6.02792 18.8451 5.79564C18.6144 5.56337 18.3349 5.44724 18.0067 5.44724C17.6695 5.44724 17.3856 5.56337 17.1549 5.79564C16.9242 6.02792 16.8088 6.31379 16.8088 6.65327C16.8088 6.96594 16.9242 7.24288 17.1549 7.48409C17.3856 7.72529 17.6695 7.8459 18.0067 7.8459Z" fill="#1D70B8"/>
</svg>
