<svg width="40" height="40" viewBox="0 0 40 40" fill="none" xmlns="http://www.w3.org/2000/svg">
<rect width="40" height="40" rx="20" fill="#193E61"/>
<path d="M16.2207 23.0059H23.7988C24.0072 23.0059 24.1829 22.9375 24.3262 22.8008C24.4694 22.6641 24.541 22.4883 24.541 22.2734C24.541 22.0716 24.4694 21.9023 24.3262 21.7656C24.1829 21.6224 24.0072 21.5508 23.7988 21.5508H16.2207C16.0059 21.5508 15.8268 21.6224 15.6836 21.7656C15.5469 21.9023 15.4785 22.0716 15.4785 22.2734C15.4785 22.4883 15.5469 22.6641 15.6836 22.8008C15.8268 22.9375 16.0059 23.0059 16.2207 23.0059ZM16.2207 26.6484H23.7988C24.0072 26.6484 24.1829 26.5801 24.3262 26.4434C24.4694 26.3001 24.541 26.1276 24.541 25.9258C24.541 25.7174 24.4694 25.5449 24.3262 25.4082C24.1829 25.265 24.0072 25.1934 23.7988 25.1934H16.2207C16.0059 25.1934 15.8268 25.265 15.6836 25.4082C15.5469 25.5449 15.4785 25.7174 15.4785 25.9258C15.4785 26.1276 15.5469 26.3001 15.6836 26.4434C15.8268 26.5801 16.0059 26.6484 16.2207 26.6484ZM14.7852 30.5938C13.7109 30.5938 12.8939 30.3138 12.334 29.7539C11.7806 29.194 11.5039 28.3737 11.5039 27.293V12.6152C11.5039 11.541 11.7806 10.7207 12.334 10.1543C12.8939 9.58789 13.7109 9.30469 14.7852 9.30469H19.2285V16.8535C19.2285 18.0514 19.8242 18.6504 21.0156 18.6504H28.4961V27.293C28.4961 28.3737 28.2161 29.194 27.6562 29.7539C27.0964 30.3138 26.2826 30.5938 25.2148 30.5938H14.7852ZM21.2988 17.1465C20.9147 17.1465 20.7227 16.9577 20.7227 16.5801V9.40234C20.957 9.42839 21.1914 9.52604 21.4258 9.69531C21.6602 9.85807 21.9043 10.0697 22.1582 10.3301L27.4609 15.6914C27.7279 15.9648 27.9427 16.2188 28.1055 16.4531C28.2682 16.6875 28.3659 16.9186 28.3984 17.1465H21.2988Z" fill="#259AFF"/>
</svg>
