<svg width="40" height="40" viewBox="0 0 40 40" fill="none" xmlns="http://www.w3.org/2000/svg">
<path d="M15.4648 24.207H24.5586C24.8086 24.207 25.0195 24.125 25.1914 23.9609C25.3633 23.7969 25.4492 23.5859 25.4492 23.3281C25.4492 23.0859 25.3633 22.8828 25.1914 22.7188C25.0195 22.5469 24.8086 22.4609 24.5586 22.4609H15.4648C15.207 22.4609 14.9922 22.5469 14.8203 22.7188C14.6562 22.8828 14.5742 23.0859 14.5742 23.3281C14.5742 23.5859 14.6562 23.7969 14.8203 23.9609C14.9922 24.125 15.207 24.207 15.4648 24.207ZM15.4648 28.5781H24.5586C24.8086 28.5781 25.0195 28.4961 25.1914 28.332C25.3633 28.1602 25.4492 27.9531 25.4492 27.7109C25.4492 27.4609 25.3633 27.2539 25.1914 27.0898C25.0195 26.918 24.8086 26.832 24.5586 26.832H15.4648C15.207 26.832 14.9922 26.918 14.8203 27.0898C14.6562 27.2539 14.5742 27.4609 14.5742 27.7109C14.5742 27.9531 14.6562 28.1602 14.8203 28.332C14.9922 28.4961 15.207 28.5781 15.4648 28.5781ZM13.7422 33.3125C12.4531 33.3125 11.4727 32.9766 10.8008 32.3047C10.1367 31.6328 9.80469 30.6484 9.80469 29.3516V11.7383C9.80469 10.4492 10.1367 9.46484 10.8008 8.78516C11.4727 8.10547 12.4531 7.76562 13.7422 7.76562H19.0742V16.8242C19.0742 18.2617 19.7891 18.9805 21.2188 18.9805H30.1953V29.3516C30.1953 30.6484 29.8594 31.6328 29.1875 32.3047C28.5156 32.9766 27.5391 33.3125 26.2578 33.3125H13.7422ZM21.5586 17.1758C21.0977 17.1758 20.8672 16.9492 20.8672 16.4961V7.88281C21.1484 7.91406 21.4297 8.03125 21.7109 8.23438C21.9922 8.42969 22.2852 8.68359 22.5898 8.99609L28.9531 15.4297C29.2734 15.7578 29.5312 16.0625 29.7266 16.3438C29.9219 16.625 30.0391 16.9023 30.0781 17.1758H21.5586Z" fill="#1D70B8"/>
</svg>
