<svg width="1200" height="1201" viewBox="0 0 1200 1201" fill="none" xmlns="http://www.w3.org/2000/svg">
<path d="M521.008 691.62C534.646 691.62 545.702 680.563 545.702 666.925C545.702 653.286 534.646 642.23 521.008 642.23C507.369 642.23 496.313 653.286 496.313 666.925C496.313 680.563 507.369 691.62 521.008 691.62Z" fill="white"/>
<path d="M454.573 731.412C468.212 731.412 479.268 720.356 479.268 706.717C479.268 693.078 468.212 682.022 454.573 682.022C440.935 682.022 429.878 693.078 429.878 706.717C429.878 720.356 440.935 731.412 454.573 731.412Z" fill="white"/>
<path d="M410.62 796.849C424.259 796.849 435.315 785.793 435.315 772.154C435.315 758.516 424.259 747.459 410.62 747.459C396.982 747.459 385.925 758.516 385.925 772.154C385.925 785.793 396.982 796.849 410.62 796.849Z" fill="white"/>
<path d="M600.005 779.558C613.643 779.558 624.7 768.502 624.7 754.863C624.7 741.225 613.643 730.169 600.005 730.169C586.366 730.169 575.31 741.225 575.31 754.863C575.31 768.502 586.366 779.558 600.005 779.558Z" fill="white"/>
<path d="M678.917 691.62C692.555 691.62 703.611 680.563 703.611 666.925C703.611 653.286 692.555 642.23 678.917 642.23C665.278 642.23 654.222 653.286 654.222 666.925C654.222 680.563 665.278 691.62 678.917 691.62Z" fill="white"/>
<path d="M745.358 731.412C758.996 731.412 770.052 720.356 770.052 706.717C770.052 693.078 758.996 682.022 745.358 682.022C731.719 682.022 720.663 693.078 720.663 706.717C720.663 720.356 731.719 731.412 745.358 731.412Z" fill="white"/>
<path d="M789.311 796.849C802.949 796.849 814.006 785.793 814.006 772.154C814.006 758.516 802.949 747.459 789.311 747.459C775.672 747.459 764.616 758.516 764.616 772.154C764.616 785.793 775.672 796.849 789.311 796.849Z" fill="white"/>
<path d="M600.005 779.558C613.643 779.558 624.7 768.502 624.7 754.863C624.7 741.225 613.643 730.169 600.005 730.169C586.366 730.169 575.31 741.225 575.31 754.863C575.31 768.502 586.366 779.558 600.005 779.558Z" fill="white"/>
<path d="M609.955 614.038C611.204 613.098 612.313 611.989 613.252 610.74L644.666 627.232V580.93L613.297 590.886C612.383 589.662 611.299 588.568 610.085 587.634L622.709 547.872H577.287L589.911 587.634C588.697 588.563 587.618 589.657 586.699 590.886L555.33 580.93V627.232L586.744 610.74C587.683 611.989 588.792 613.098 590.041 614.038L572.146 667.998C565.846 686.993 579.989 706.582 599.998 706.582C620.007 706.582 634.15 686.993 627.85 667.998L609.955 614.038Z" fill="white"/>
<path d="M635.903 804.042C635.903 804.042 612.967 829.566 607.961 845.139C622.973 844.664 636.462 841.742 651.305 826.244L646.274 883.902C632.611 864.733 616.589 856.47 607.706 858.123C608.605 878.786 610.768 903.746 646.949 907.033C672.193 909.226 692.462 896.827 694.57 881.484C697.073 863.858 681.191 852.198 669.216 870.753C659.853 840.048 685.717 829.841 702.328 848.851C689.539 818.55 689.879 797.023 718.325 775.256C738.734 802.389 735.841 824.815 710.542 850.065C727.013 840.952 752.592 850.539 737.525 881.319C729.656 862.175 712.76 866.451 709.218 882.923C706.855 894.558 713.914 908.247 729.261 911.055C741.856 913.363 761.25 904.76 776.797 871.272C768.055 871.497 760.381 875.914 750.459 882.743L766.766 828.382C770.872 843.64 776.128 853.657 781.693 859.072C785.43 848.091 784.896 840.128 781.554 823.017L815.261 835.017C797.356 859.442 780.01 893.719 765.787 953.58C715.638 946.421 659.499 942.399 600.012 942.399C540.531 942.399 484.387 946.426 434.238 953.58C420.015 893.714 402.669 859.437 384.763 835.017L418.471 823.017C415.124 840.128 414.594 848.091 418.331 859.072C423.896 853.657 429.152 843.64 433.259 828.382L449.565 882.743C439.643 875.909 431.97 871.497 423.227 871.272C438.774 904.76 458.168 913.358 470.763 911.055C486.11 908.247 493.165 894.558 490.807 882.923C487.265 866.451 470.373 862.175 462.5 881.319C447.432 850.539 473.011 840.947 489.483 850.065C464.183 824.815 461.286 802.384 481.699 775.256C510.146 797.018 510.486 818.546 497.696 848.851C514.307 829.846 540.171 840.048 530.809 870.753C518.834 852.198 502.952 863.858 505.455 881.484C507.563 896.832 527.831 909.231 553.076 907.033C589.256 903.746 591.419 878.786 592.319 858.123C583.436 856.47 567.414 864.728 553.75 883.902L548.719 826.244C563.562 841.742 577.056 844.659 592.064 845.139C587.058 829.566 564.122 804.042 564.122 804.042H635.923H635.903Z" fill="white"/>
</svg>
