<svg width="1200" height="1201" viewBox="0 0 1200 1201" fill="none" xmlns="http://www.w3.org/2000/svg">
<path d="M227.966 376.366C227.966 382.622 228.749 388.641 230.313 394.421C231.875 400.201 234.255 405.301 237.454 409.721C240.65 414.143 244.729 417.696 249.694 420.382C254.659 423.068 260.576 424.413 267.445 424.413C274.314 424.413 279.534 423.359 283.921 421.251C288.306 419.144 291.809 416.508 294.427 413.344C297.043 410.182 298.88 406.766 299.936 403.094C300.99 399.421 301.515 396.021 301.515 392.891V391.464H264.079V368.921H330.281V449.098H304.373V431.959C302.537 434.817 300.257 437.418 297.539 439.765C294.819 442.11 291.759 444.118 288.356 445.782C284.955 447.449 281.23 448.759 277.187 449.711C273.141 450.663 268.838 451.138 264.284 451.138C253.605 451.138 244.121 449.2 235.824 445.323C227.528 441.447 220.539 436.11 214.861 429.309C209.183 422.51 204.866 414.552 201.906 405.438C198.949 396.327 197.469 386.501 197.469 375.957C197.469 365.414 199.118 355.677 202.417 346.531C205.715 337.385 210.407 329.427 216.496 322.661C222.582 315.894 229.924 310.557 238.527 306.646C247.13 302.734 256.77 300.779 267.448 300.779C274.384 300.779 280.964 301.578 287.185 303.175C293.408 304.775 299.086 307.052 304.221 310.009C309.353 312.967 313.893 316.539 317.839 320.72C321.781 324.901 324.98 329.545 327.429 334.644L301.518 349.229C299.953 346.103 298.117 343.195 296.009 340.507C293.899 337.824 291.47 335.509 288.717 333.571C285.962 331.632 282.817 330.103 279.282 328.981C275.744 327.86 271.8 327.297 267.45 327.297C260.581 327.297 254.664 328.643 249.699 331.328C244.733 334.014 240.655 337.567 237.459 341.989C234.262 346.409 231.883 351.526 230.318 357.341C228.754 363.156 227.971 369.161 227.971 375.344V376.366H227.966Z" fill="white"/>
<path d="M424.494 300.774C435.374 300.774 445.133 302.73 453.771 306.641C462.406 310.553 469.736 315.89 475.755 322.656C481.772 329.423 486.364 337.381 489.525 346.527C492.687 355.673 494.267 365.484 494.267 375.953C494.267 386.422 492.687 396.323 489.525 405.434C486.364 414.547 481.772 422.505 475.755 429.304C469.739 436.103 462.409 441.442 453.771 445.319C445.136 449.196 435.374 451.134 424.494 451.134C413.614 451.134 403.768 449.196 395.168 445.319C386.565 441.442 379.255 436.106 373.238 429.304C367.219 422.505 362.63 414.547 359.468 405.434C356.307 396.323 354.725 386.496 354.725 375.953C354.725 365.409 356.307 355.673 359.468 346.527C362.63 337.381 367.219 329.423 373.238 322.656C379.255 315.89 386.565 310.553 395.168 306.641C403.771 302.73 413.545 300.774 424.494 300.774ZM424.494 424.408C430.887 424.408 436.515 423.203 441.376 420.786C446.237 418.374 450.338 415.023 453.666 410.741C457 406.455 459.516 401.39 461.215 395.54C462.915 389.693 463.767 383.3 463.767 376.364V375.547C463.767 368.678 462.915 362.302 461.215 356.42C459.516 350.538 457 345.453 453.666 341.17C450.335 336.887 446.237 333.539 441.376 331.122C436.515 328.71 430.887 327.502 424.494 327.502C418.101 327.502 412.458 328.71 407.56 331.122C402.665 333.539 398.569 336.887 395.27 341.17C391.971 345.453 389.472 350.54 387.773 356.42C386.074 362.302 385.222 368.678 385.222 375.547V376.364C385.222 383.3 386.074 389.693 387.773 395.54C389.472 401.39 391.971 406.453 395.27 410.741C398.569 415.023 402.665 418.374 407.56 420.786C412.458 423.203 418.101 424.408 424.494 424.408Z" fill="white"/>
<path d="M546.419 449.093L505.106 302.817H538.26L566.517 412.778H567.536L595.181 302.817H627.924L586.611 449.093H546.422H546.419Z" fill="white"/>
<path d="M795.471 424.409C799.753 424.409 803.75 423.781 807.454 422.523C811.162 421.264 814.358 419.361 817.044 416.81C819.727 414.259 821.855 411.032 823.419 407.118C824.981 403.209 825.764 398.603 825.764 393.298V302.61H854.836V397.681C854.836 405.843 853.359 413.222 850.404 419.817C847.449 426.414 843.338 432.025 838.071 436.649C832.805 441.276 826.536 444.843 819.269 447.36C811.999 449.874 804.049 451.134 795.421 451.134C786.793 451.134 778.84 449.874 771.573 447.36C764.3 444.843 758.017 441.273 752.715 436.649C747.414 432.025 743.288 426.417 740.33 419.817C737.376 413.222 735.898 405.84 735.898 397.681V302.61H765.175V393.296C765.175 398.6 765.957 403.207 767.519 407.116C769.084 411.03 771.209 414.256 773.895 416.807C776.581 419.359 779.777 421.262 783.484 422.52C787.192 423.778 791.188 424.406 795.471 424.406V424.409Z" fill="white"/>
<path d="M881.074 302.814H910.657V366.159L962.885 302.814H999.302L948.502 360.957L1002.57 449.091H968.192L929.53 383.499L910.657 404.614V449.091H881.074V302.814Z" fill="white"/>
</svg>
