<svg width="40" height="40" viewBox="0 0 40 40" fill="none" xmlns="http://www.w3.org/2000/svg">
<rect width="40" height="40" rx="20" fill="#263D54"/>
<path d="M12.4469 15.6566C12.3878 15.8866 12.4075 16.0607 12.506 16.1789C12.6046 16.2906 12.7754 16.3399 13.0185 16.3268C13.4981 16.3005 14.0467 16.2742 14.6642 16.2479C15.2818 16.2216 16.0209 16.1987 16.8815 16.1789C17.7422 16.1592 18.7802 16.1494 19.9957 16.1494C21.2176 16.1494 22.259 16.1592 23.1196 16.1789C23.9803 16.1987 24.7194 16.2216 25.3369 16.2479C25.9545 16.2742 26.5031 16.3005 26.9827 16.3268C27.2323 16.3399 27.4032 16.2906 27.4951 16.1789C27.5937 16.0607 27.6167 15.8866 27.5641 15.6566C27.4918 15.3544 27.3999 15.0292 27.2882 14.681C27.1831 14.3328 27.0747 14.0076 26.963 13.7054C26.8579 13.4032 26.7593 13.17 26.6673 13.0057C26.5097 12.7298 26.3323 12.5294 26.1352 12.4046C25.9447 12.2732 25.6851 12.1845 25.3566 12.1385C25.0282 12.0859 24.427 12.0498 23.5532 12.0301C22.6794 12.0038 21.4936 11.9907 19.9957 11.9907C18.4977 11.9907 17.3152 12.0038 16.4479 12.0301C15.5807 12.0564 14.9796 12.0925 14.6445 12.1385C14.316 12.1845 14.0532 12.2732 13.8561 12.4046C13.659 12.5294 13.4849 12.7298 13.3338 13.0057C13.2484 13.1765 13.1466 13.413 13.0283 13.7152C12.9166 14.0109 12.805 14.3328 12.6933 14.681C12.5882 15.0292 12.506 15.3544 12.4469 15.6566ZM12.713 23.3532C13.1926 23.3532 13.5933 23.1923 13.9153 22.8703C14.2438 22.5418 14.408 22.1411 14.408 21.668C14.408 21.1819 14.2438 20.7778 13.9153 20.4559C13.5933 20.1274 13.1926 19.9632 12.713 19.9632C12.2268 19.9632 11.8228 20.1274 11.5008 20.4559C11.1789 20.7778 11.018 21.1819 11.018 21.668C11.018 22.1411 11.1789 22.5418 11.5008 22.8703C11.8228 23.1923 12.2268 23.3532 12.713 23.3532ZM17.3053 22.9295H22.6959C23.0572 22.9295 23.3528 22.8145 23.5828 22.5845C23.8127 22.3546 23.9277 22.059 23.9277 21.6976C23.9277 21.3363 23.8127 21.0439 23.5828 20.8205C23.3528 20.5906 23.0572 20.4756 22.6959 20.4756H17.3053C16.944 20.4756 16.6483 20.5906 16.4184 20.8205C16.1884 21.0439 16.0735 21.3363 16.0735 21.6976C16.0735 22.059 16.1884 22.3546 16.4184 22.5845C16.6483 22.8145 16.944 22.9295 17.3053 22.9295ZM27.2882 23.3532C27.7678 23.3532 28.1685 23.1923 28.4905 22.8703C28.819 22.5418 28.9832 22.1411 28.9832 21.668C28.9832 21.1819 28.819 20.7778 28.4905 20.4559C28.1685 20.1274 27.7678 19.9632 27.2882 19.9632C26.8086 19.9632 26.4078 20.1274 26.0859 20.4559C25.764 20.7778 25.603 21.1819 25.603 21.668C25.603 22.1411 25.764 22.5418 26.0859 22.8703C26.4078 23.1923 26.8086 23.3532 27.2882 23.3532ZM19.9957 26.1618C19.1481 26.1618 18.2546 26.152 17.3152 26.1323C16.3822 26.1126 15.4657 26.0863 14.5657 26.0534C13.6722 26.014 12.8542 25.9713 12.1118 25.9253C11.3694 25.8793 10.765 25.83 10.2986 25.7775C9.55617 25.6921 8.97802 25.4424 8.56412 25.0285C8.15679 24.6081 7.95312 24.0431 7.95312 23.3335V21.7075C7.95312 21.1096 7.99254 20.5906 8.07138 20.1504C8.15022 19.7037 8.27833 19.2898 8.45572 18.9087C8.6331 18.5277 8.87947 18.1368 9.19483 17.736L10.0916 16.6224C10.2099 16.0311 10.3544 15.4464 10.5252 14.8683C10.696 14.2901 10.8636 13.7711 11.0278 13.3112C11.1986 12.8513 11.3432 12.4998 11.4614 12.2567C11.7374 11.6589 12.1381 11.1826 12.6637 10.8278C13.1893 10.4665 13.8036 10.2431 14.5065 10.1577C14.7496 10.1248 15.134 10.0985 15.6596 10.0788C16.1851 10.0526 16.8158 10.0328 17.5517 10.0197C18.2941 10.0066 19.1087 10 19.9957 10C20.8892 10 21.7038 10.0066 22.4396 10.0197C23.182 10.0263 23.8127 10.0427 24.3318 10.069C24.8573 10.0887 25.2482 10.1183 25.5045 10.1577C26.2009 10.2497 26.8119 10.473 27.3375 10.8278C27.863 11.1826 28.2671 11.6589 28.5496 12.2567C28.6613 12.4998 28.7992 12.8513 28.9635 13.3112C29.1343 13.7711 29.3051 14.2901 29.4759 14.8683C29.6468 15.4464 29.7913 16.0311 29.9096 16.6224L30.8063 17.736C31.1151 18.1368 31.3615 18.5277 31.5454 18.9087C31.7294 19.2898 31.8575 19.7037 31.9298 20.1504C32.0086 20.5906 32.048 21.1096 32.048 21.7075V23.3335C32.048 24.0431 31.8411 24.6048 31.4272 25.0187C31.0199 25.4326 30.445 25.6855 29.7026 25.7775C29.2361 25.83 28.6284 25.8793 27.8795 25.9253C27.1371 25.9713 26.3158 26.014 25.4158 26.0534C24.5223 26.0863 23.6091 26.1126 22.6762 26.1323C21.7432 26.152 20.8497 26.1618 19.9957 26.1618ZM9.30323 29C8.92218 29 8.60025 28.8686 8.33746 28.6058C8.08124 28.3496 7.95312 28.0309 7.95312 27.6499V23.1167L11.8655 25.1172V27.6499C11.8655 28.0309 11.7341 28.3496 11.4713 28.6058C11.2085 28.8686 10.8866 29 10.5055 29H9.30323ZM29.4957 29C29.1146 29 28.7927 28.8686 28.5299 28.6058C28.2737 28.3496 28.1455 28.0309 28.1455 27.6499V25.1172L32.048 23.1167V27.6499C32.048 28.0309 31.9166 28.3496 31.6538 28.6058C31.3976 28.8686 31.079 29 30.6979 29H29.4957Z" fill="white"/>
</svg>
