<svg width="40" height="40" viewBox="0 0 40 40" fill="none" xmlns="http://www.w3.org/2000/svg">
<rect width="40" height="40" rx="20" fill="#193E61"/>
<path d="M10.6934 27.752V13.1816C10.6934 12.2637 10.9342 11.5703 11.416 11.1016C11.9043 10.6328 12.5749 10.3691 13.4277 10.3105C14.5475 10.2389 15.6348 10.138 16.6895 10.0078C17.7507 9.87109 18.7695 9.71484 19.7461 9.53906C20.7292 9.36328 21.6667 9.17122 22.5586 8.96289C23.5612 8.72201 24.3457 8.83268 24.9121 9.29492C25.485 9.75716 25.7715 10.5124 25.7715 11.5605V25.8184C25.7715 26.6908 25.6185 27.3646 25.3125 27.8398C25.013 28.3216 24.4824 28.6732 23.7207 28.8945C22.5879 29.2135 21.4681 29.4772 20.3613 29.6855C19.2546 29.9004 18.1576 30.0697 17.0703 30.1934C15.9831 30.3171 14.8926 30.4082 13.7988 30.4668C12.8092 30.5254 12.0443 30.3138 11.5039 29.832C10.9635 29.3568 10.6934 28.6634 10.6934 27.752ZM14.6875 15.623C16.0547 15.5319 17.3079 15.3919 18.4473 15.2031C19.5866 15.0143 20.7064 14.7962 21.8066 14.5488C22.0605 14.4967 22.2266 14.4089 22.3047 14.2852C22.3828 14.1615 22.4219 14.0247 22.4219 13.875C22.4219 13.7057 22.3568 13.5625 22.2266 13.4453C22.1029 13.3216 21.9173 13.2826 21.6699 13.3281C20.6217 13.569 19.5345 13.7839 18.4082 13.9727C17.2884 14.1549 16.0417 14.2917 14.668 14.3828C14.4531 14.4023 14.2969 14.474 14.1992 14.5977C14.1016 14.7148 14.0527 14.8581 14.0527 15.0273C14.0527 15.1966 14.1113 15.3431 14.2285 15.4668C14.3457 15.584 14.4987 15.6361 14.6875 15.623ZM14.6875 18.748C16.0547 18.6439 17.3079 18.5007 18.4473 18.3184C19.5866 18.1296 20.7064 17.9115 21.8066 17.6641C22.0605 17.6055 22.2266 17.5176 22.3047 17.4004C22.3828 17.2767 22.4219 17.14 22.4219 16.9902C22.4219 16.821 22.3568 16.6745 22.2266 16.5508C22.1029 16.4271 21.9173 16.3913 21.6699 16.4434C20.6217 16.6842 19.5345 16.8958 18.4082 17.0781C17.2884 17.2604 16.0417 17.4004 14.668 17.498C14.4531 17.5111 14.2969 17.5794 14.1992 17.7031C14.1016 17.8268 14.0527 17.9701 14.0527 18.1328C14.0527 18.3086 14.1113 18.4583 14.2285 18.582C14.3457 18.6992 14.4987 18.7546 14.6875 18.748ZM14.6875 21.8535C16.0547 21.7559 17.3079 21.6126 18.4473 21.4238C19.5866 21.235 20.7064 21.0202 21.8066 20.7793C22.0605 20.7207 22.2266 20.6296 22.3047 20.5059C22.3828 20.3822 22.4219 20.2487 22.4219 20.1055C22.4219 19.9362 22.3568 19.7897 22.2266 19.666C22.1029 19.5423 21.9173 19.5033 21.6699 19.5488C20.6217 19.7897 19.5345 20.0013 18.4082 20.1836C17.2884 20.3659 16.0417 20.5091 14.668 20.6133C14.4531 20.6263 14.2969 20.6947 14.1992 20.8184C14.1016 20.9421 14.0527 21.0853 14.0527 21.248C14.0527 21.4238 14.1113 21.5703 14.2285 21.6875C14.3457 21.8047 14.4987 21.86 14.6875 21.8535ZM14.6875 24.959C15.4818 24.9069 16.1654 24.8451 16.7383 24.7734C17.3112 24.6953 17.8516 24.6139 18.3594 24.5293C18.5482 24.4967 18.6882 24.4186 18.7793 24.2949C18.8704 24.1712 18.916 24.0378 18.916 23.8945C18.916 23.7188 18.8509 23.569 18.7207 23.4453C18.5905 23.3216 18.4017 23.2826 18.1543 23.3281C17.7116 23.3997 17.2168 23.4714 16.6699 23.543C16.123 23.6081 15.4557 23.6634 14.668 23.709C14.4531 23.7285 14.2969 23.7969 14.1992 23.9141C14.1016 24.0312 14.0527 24.1745 14.0527 24.3438C14.0527 24.526 14.1113 24.6758 14.2285 24.793C14.3457 24.9102 14.4987 24.9655 14.6875 24.959ZM18.9551 31.375C19.7949 31.2383 20.6445 31.0788 21.5039 30.8965C22.3698 30.7142 23.2422 30.4993 24.1211 30.252C24.7852 30.0566 25.3483 29.7799 25.8105 29.4219C26.2728 29.0703 26.6243 28.6016 26.8652 28.0156C27.1061 27.4362 27.2266 26.7038 27.2266 25.8184V11.6582C27.2266 11.4824 27.2168 11.3099 27.1973 11.1406C27.1842 10.9648 27.1647 10.7663 27.1387 10.5449C27.8548 10.6947 28.3952 11.0332 28.7598 11.5605C29.1243 12.0879 29.3066 12.7845 29.3066 13.6504V28.084C29.3066 29.1777 29.0332 29.998 28.4863 30.5449C27.9395 31.0983 27.1289 31.375 26.0547 31.375H18.9551Z" fill="#259AFF"/>
</svg>
