<svg width="40" height="40" viewBox="0 0 40 40" fill="none" xmlns="http://www.w3.org/2000/svg">
<path d="M9.7627 28.8271V12.7998C9.7627 11.79 10.0277 11.0273 10.5576 10.5117C11.0947 9.99609 11.8324 9.70605 12.7705 9.6416C14.0023 9.56283 15.1982 9.45182 16.3584 9.30859C17.5257 9.1582 18.6465 8.98633 19.7207 8.79297C20.8021 8.59961 21.8333 8.38835 22.8145 8.15918C23.9173 7.89421 24.7803 8.01595 25.4033 8.52441C26.0335 9.03288 26.3486 9.86361 26.3486 11.0166V26.7002C26.3486 27.6598 26.1803 28.401 25.8438 28.9238C25.5143 29.4538 24.9307 29.8405 24.0928 30.084C22.8467 30.4349 21.6149 30.7249 20.3975 30.9541C19.18 31.1904 17.9733 31.3766 16.7773 31.5127C15.5814 31.6488 14.3818 31.749 13.1787 31.8135C12.0902 31.8779 11.2487 31.6452 10.6543 31.1152C10.0599 30.5924 9.7627 29.8298 9.7627 28.8271ZM14.1562 15.4854C15.6602 15.3851 17.0387 15.2311 18.292 15.0234C19.5452 14.8158 20.777 14.5758 21.9873 14.3037C22.2666 14.2464 22.4492 14.1497 22.5352 14.0137C22.6211 13.8776 22.6641 13.7272 22.6641 13.5625C22.6641 13.3763 22.5924 13.2188 22.4492 13.0898C22.3132 12.9538 22.109 12.9108 21.8369 12.9609C20.6839 13.2259 19.488 13.4622 18.249 13.6699C17.0173 13.8704 15.6458 14.0208 14.1348 14.1211C13.8984 14.1426 13.7266 14.2214 13.6191 14.3574C13.5117 14.4863 13.458 14.6439 13.458 14.8301C13.458 15.0163 13.5225 15.1774 13.6514 15.3135C13.7803 15.4424 13.9486 15.4997 14.1562 15.4854ZM14.1562 18.9229C15.6602 18.8083 17.0387 18.6507 18.292 18.4502C19.5452 18.2425 20.777 18.0026 21.9873 17.7305C22.2666 17.666 22.4492 17.5693 22.5352 17.4404C22.6211 17.3044 22.6641 17.154 22.6641 16.9893C22.6641 16.8031 22.5924 16.6419 22.4492 16.5059C22.3132 16.3698 22.109 16.3304 21.8369 16.3877C20.6839 16.6527 19.488 16.8854 18.249 17.0859C17.0173 17.2865 15.6458 17.4404 14.1348 17.5479C13.8984 17.5622 13.7266 17.6374 13.6191 17.7734C13.5117 17.9095 13.458 18.0671 13.458 18.2461C13.458 18.4395 13.5225 18.6042 13.6514 18.7402C13.7803 18.8691 13.9486 18.93 14.1562 18.9229ZM14.1562 22.3389C15.6602 22.2314 17.0387 22.0739 18.292 21.8662C19.5452 21.6585 20.777 21.4222 21.9873 21.1572C22.2666 21.0928 22.4492 20.9925 22.5352 20.8564C22.6211 20.7204 22.6641 20.5736 22.6641 20.416C22.6641 20.2298 22.5924 20.0687 22.4492 19.9326C22.3132 19.7965 22.109 19.7536 21.8369 19.8037C20.6839 20.0687 19.488 20.3014 18.249 20.502C17.0173 20.7025 15.6458 20.86 14.1348 20.9746C13.8984 20.9889 13.7266 21.0641 13.6191 21.2002C13.5117 21.3363 13.458 21.4938 13.458 21.6729C13.458 21.8662 13.5225 22.0273 13.6514 22.1562C13.7803 22.2852 13.9486 22.346 14.1562 22.3389ZM14.1562 25.7549C15.0299 25.6976 15.7819 25.6296 16.4121 25.5508C17.0423 25.4648 17.6367 25.3753 18.1953 25.2822C18.403 25.2464 18.557 25.1605 18.6572 25.0244C18.7575 24.8883 18.8076 24.7415 18.8076 24.584C18.8076 24.3906 18.736 24.2259 18.5928 24.0898C18.4495 23.9538 18.2419 23.9108 17.9697 23.9609C17.4827 24.0397 16.9385 24.1185 16.3369 24.1973C15.7354 24.2689 15.0013 24.3298 14.1348 24.3799C13.8984 24.4014 13.7266 24.4766 13.6191 24.6055C13.5117 24.7344 13.458 24.8919 13.458 25.0781C13.458 25.2786 13.5225 25.4434 13.6514 25.5723C13.7803 25.7012 13.9486 25.762 14.1562 25.7549ZM18.8506 32.8125C19.7744 32.6621 20.709 32.4867 21.6543 32.2861C22.6068 32.0856 23.5664 31.8493 24.5332 31.5771C25.2637 31.3623 25.8831 31.0579 26.3916 30.6641C26.9001 30.2773 27.2868 29.7617 27.5518 29.1172C27.8167 28.4798 27.9492 27.6742 27.9492 26.7002V11.124C27.9492 10.9307 27.9385 10.7409 27.917 10.5547C27.9027 10.3613 27.8812 10.1429 27.8525 9.89941C28.6403 10.0641 29.2347 10.4365 29.6357 11.0166C30.0368 11.5967 30.2373 12.363 30.2373 13.3154V29.1924C30.2373 30.3955 29.9365 31.2979 29.335 31.8994C28.7334 32.5081 27.8418 32.8125 26.6602 32.8125H18.8506Z" fill="#1D70B8"/>
</svg>
