<svg width="40" height="40" viewBox="0 0 40 40" fill="none" xmlns="http://www.w3.org/2000/svg">
<path d="M5.68927 25.6862C5.3075 26.0799 5.31405 26.7077 5.70396 27.0933L6.23612 27.6197C6.63301 28.0122 7.27444 28.0038 7.66092 27.601L15.1124 19.8345C15.2233 19.7156 15.3342 19.6561 15.4451 19.6561C15.5645 19.6561 15.6754 19.7156 15.7778 19.8345L20.2441 24.4595C20.5427 24.7822 20.8541 25.0201 21.1783 25.173C21.5025 25.3174 21.8309 25.3896 22.1637 25.3896C22.8206 25.3896 23.4605 25.0795 24.0833 24.4595L29.3686 19.172L31.301 21.1086C31.5057 21.3125 31.7233 21.4186 31.9536 21.4271C32.1925 21.4271 32.4101 21.3464 32.6063 21.1851C32.8025 21.0152 32.939 20.7858 33.0158 20.497L34.961 12.9799C35.0293 12.7166 35.0079 12.4788 34.897 12.2664C34.7861 12.0456 34.6155 11.8799 34.3851 11.7695C34.1633 11.6591 33.9244 11.6379 33.6685 11.7058L26.1308 13.6297C25.8408 13.7061 25.6104 13.842 25.4398 14.0374C25.2777 14.2243 25.1966 14.4366 25.1966 14.6745C25.2052 14.9123 25.3118 15.1331 25.5166 15.337L27.4234 17.2354L22.5092 22.2426C22.3983 22.353 22.2831 22.4082 22.1637 22.4082C22.0528 22.4082 21.9419 22.353 21.8309 22.2426L17.3647 17.6049C17.0576 17.2821 16.7419 17.0485 16.4177 16.9041C16.102 16.7597 15.7778 16.6875 15.4451 16.6875C15.1124 16.6875 14.7882 16.7597 14.4725 16.9041C14.1654 17.04 13.8497 17.2736 13.5255 17.6049L5.68927 25.6862Z" fill="#1D70B8"/>
</svg>
