<svg width="40" height="40" viewBox="0 0 40 40" fill="none" xmlns="http://www.w3.org/2000/svg">
<rect width="40" height="40" rx="20" fill="#193E61"/>
<path d="M9.43927 24.0867C9.0575 24.4804 9.06405 25.1082 9.45396 25.4938L9.49662 25.536C9.89351 25.9286 10.5349 25.9202 10.9214 25.5173L16.3343 19.8756C16.4175 19.7865 16.5006 19.7419 16.5838 19.7419C16.6734 19.7419 16.7566 19.7865 16.8334 19.8756L20.1831 23.3444C20.407 23.5864 20.6406 23.7648 20.8837 23.8795C21.1269 23.9878 21.3732 24.0419 21.6228 24.0419C22.1155 24.0419 22.5954 23.8094 23.0625 23.3444L27.0264 19.3788L28.4757 20.8312C28.6293 20.9841 28.7925 21.0637 28.9652 21.0701C29.1444 21.0701 29.3075 21.0096 29.4547 20.8885C29.6019 20.7611 29.7043 20.5891 29.7619 20.3725L31.2207 14.7347C31.2719 14.5372 31.2559 14.3588 31.1728 14.1996C31.0896 14.0339 30.9616 13.9097 30.7888 13.8269C30.6225 13.7441 30.4433 13.7282 30.2514 13.7791L24.5981 15.222C24.3806 15.2794 24.2078 15.3813 24.0798 15.5278C23.9583 15.668 23.8975 15.8272 23.8975 16.0056C23.9039 16.184 23.9839 16.3496 24.1374 16.5025L25.5675 17.9263L21.8819 21.6817C21.7987 21.7645 21.7123 21.8059 21.6228 21.8059C21.5396 21.8059 21.4564 21.7645 21.3732 21.6817L18.0235 18.2034C17.7932 17.9613 17.5564 17.7861 17.3133 17.6778C17.0765 17.5695 16.8334 17.5154 16.5838 17.5154C16.3343 17.5154 16.0911 17.5695 15.8544 17.6778C15.624 17.7798 15.3873 17.955 15.1441 18.2034L9.43927 24.0867Z" fill="#259AFF"/>
</svg>
