<svg width="150" height="28" viewBox="0 0 150 28" fill="none" xmlns="http://www.w3.org/2000/svg">
<path fill-rule="evenodd" clip-rule="evenodd" d="M6.35485 17.4379C6.06359 16.3615 5.91796 15.2408 5.91796 14.0757V13.8858C5.91796 12.7334 6.06359 11.619 6.35485 10.5425C6.64612 9.45346 7.08935 8.49735 7.68454 7.67421C8.27974 6.85107 9.03956 6.19255 9.96401 5.69867C10.8885 5.19212 11.9902 4.93885 13.2692 4.93885C14.0797 4.93885 14.8142 5.04649 15.4727 5.26177C16.1312 5.46439 16.7138 5.74932 17.2203 6.11657C17.7395 6.47116 18.1954 6.90172 18.588 7.40827C18.9806 7.90216 19.3225 8.44036 19.6138 9.02289L24.4386 6.30653C23.9827 5.35675 23.3875 4.49562 22.653 3.72313C21.9186 2.93798 21.0701 2.27314 20.1076 1.7286C19.1579 1.17139 18.1004 0.747159 16.9354 0.455894C15.783 0.151965 14.5609 0 13.2692 0C11.281 0 9.48279 0.367247 7.8745 1.10174C6.27887 1.82357 4.91119 2.81768 3.77146 4.08405C2.64439 5.33775 1.77059 6.81941 1.15007 8.52901C0.54221 10.2259 0.238281 12.0495 0.238281 13.9997C0.238281 15.9626 0.510551 17.7925 1.05509 19.4895C1.61229 21.1864 2.41644 22.668 3.46753 23.9344C4.53128 25.2008 5.83564 26.1949 7.38061 26.9167C8.92559 27.6386 10.6922 27.9995 12.6804 27.9995C13.5288 27.9995 14.3267 27.9108 15.0738 27.7335C15.8336 27.5562 16.5301 27.3156 17.1633 27.0117C17.7965 26.6951 18.3664 26.3215 18.8729 25.891C19.3795 25.4477 19.8037 24.9602 20.1456 24.4283V27.6196H24.9705V12.689H12.6424V16.8871H19.6138V17.153C19.6138 17.7355 19.5124 18.3687 19.3098 19.0526C19.1199 19.7364 18.778 20.3759 18.2841 20.9711C17.8028 21.5536 17.1507 22.0412 16.3275 22.4338C15.517 22.8263 14.4976 23.0226 13.2692 23.0226C11.9902 23.0226 10.8885 22.7757 9.96401 22.2818C9.03956 21.7752 8.27974 21.1104 7.68454 20.2873C7.08935 19.4641 6.64612 18.5143 6.35485 17.4379ZM41.0593 0C43.0855 0 44.9027 0.367247 46.511 1.10174C48.1193 1.82357 49.4806 2.81768 50.5951 4.08405C51.7221 5.33775 52.5769 6.81941 53.1595 8.52901C53.7546 10.2259 54.0522 12.0495 54.0522 13.9997C54.0522 15.9626 53.7546 17.7925 53.1595 19.4895C52.5769 21.1864 51.7221 22.668 50.5951 23.9344C49.4806 25.2008 48.1193 26.1949 46.511 26.9167C44.9027 27.6386 43.0855 27.9995 41.0593 27.9995C39.0204 27.9995 37.1968 27.6386 35.5886 26.9167C33.9929 26.1949 32.6316 25.2008 31.5045 23.9344C30.3901 22.668 29.5353 21.1864 28.9401 19.4895C28.3576 17.7925 28.0663 15.9626 28.0663 13.9997C28.0663 12.0495 28.3576 10.2259 28.9401 8.52901C29.5353 6.81941 30.3901 5.33775 31.5045 4.08405C32.6316 2.81768 33.9929 1.82357 35.5886 1.10174C37.1968 0.367247 39.0204 0 41.0593 0ZM41.0593 23.0226C42.2497 23.0226 43.2944 22.801 44.1935 22.3578C45.1053 21.9019 45.8715 21.275 46.492 20.4772C47.1125 19.6794 47.5811 18.736 47.8977 17.6469C48.2143 16.5578 48.3726 15.3674 48.3726 14.0757V13.9237C48.3726 12.6447 48.2143 11.4607 47.8977 10.3716C47.5811 9.26984 47.1125 8.32006 46.492 7.52224C45.8715 6.72443 45.1053 6.10391 44.1935 5.66068C43.2944 5.20479 42.2497 4.97684 41.0593 4.97684C39.8689 4.97684 38.8178 5.20479 37.906 5.66068C36.9942 6.10391 36.2281 6.72443 35.6075 7.52224C34.9997 8.32006 34.5375 9.26984 34.2209 10.3716C33.9043 11.4607 33.746 12.6447 33.746 13.9237V14.0757C33.746 15.3674 33.9043 16.5578 34.2209 17.6469C34.5375 18.736 34.9997 19.6794 35.6075 20.4772C36.2281 21.275 36.9942 21.9019 37.906 22.3578C38.8178 22.801 39.8689 23.0226 41.0593 23.0226ZM111.976 23.0234C112.774 23.0234 113.515 22.9094 114.199 22.6815C114.895 22.4409 115.491 22.0863 115.985 21.6177C116.491 21.1365 116.89 20.535 117.181 19.8131C117.472 19.0787 117.618 18.2175 117.618 17.2298V0.342693H123.051V18.0466C123.051 19.5662 122.772 20.9402 122.215 22.1686C121.671 23.397 120.904 24.4417 119.917 25.3029C118.941 26.164 117.776 26.8288 116.421 27.2974C115.066 27.766 113.585 28.0002 111.976 28.0002C110.368 28.0002 108.886 27.766 107.531 27.2974C106.176 26.8288 105.005 26.164 104.017 25.3029C103.03 24.4417 102.257 23.397 101.7 22.1686C101.155 20.9402 100.883 19.5662 100.883 18.0466V0.342693H106.335V17.2298C106.335 18.2175 106.48 19.0787 106.772 19.8131C107.063 20.535 107.455 21.1365 107.949 21.6177C108.456 22.0863 109.051 22.4409 109.735 22.6815C110.431 22.9094 111.179 23.0234 111.976 23.0234ZM132.648 0.38091H127.139V27.6205H132.648V19.3385L136.162 15.4064L143.361 27.6205H149.763L139.695 11.2084L149.155 0.38091H142.374L132.648 12.1772V0.38091ZM83.3364 12.6552C83.1124 13.1656 83.0004 13.7158 83.0004 14.3058C83.0004 14.9118 83.1124 15.478 83.3364 16.0043C83.5764 16.5306 83.8964 16.993 84.2964 17.3917C84.6964 17.7904 85.1605 18.1014 85.6885 18.3247C86.2325 18.548 86.8005 18.6596 87.3926 18.6596C87.9846 18.6596 88.5446 18.548 89.0726 18.3247C89.6007 18.1014 90.0647 17.7904 90.4647 17.3917C90.8647 16.993 91.1767 16.5306 91.4007 16.0043C91.6407 15.478 91.7607 14.9118 91.7607 14.3058C91.7607 13.7158 91.6407 13.1656 91.4007 12.6552C91.1767 12.1289 90.8647 11.6744 90.4647 11.2917C90.0647 10.893 89.6007 10.582 89.0726 10.3587C88.5446 10.1195 87.9846 9.9999 87.3926 9.9999C86.8005 9.9999 86.2325 10.1195 85.6885 10.3587C85.1605 10.582 84.6964 10.893 84.2964 11.2917C83.8964 11.6744 83.5764 12.1289 83.3364 12.6552ZM54.59 0.38091L62.2832 27.6205H69.7674L77.4606 0.38091H71.3631L66.2153 20.8581H66.0253L60.7635 0.38091H54.59Z" fill="black"/>
<path d="M83 14.3059C83 13.7159 83.112 13.1657 83.336 12.6553C83.576 12.129 83.896 11.6745 84.2961 11.2918C84.6961 10.8931 85.1601 10.5821 85.6881 10.3588C86.2321 10.1196 86.8002 10 87.3922 10C87.9842 10 88.5443 10.1196 89.0723 10.3588C89.6003 10.5821 90.0643 10.8931 90.4643 11.2918C90.8644 11.6745 91.1764 12.129 91.4004 12.6553C91.6404 13.1657 91.7604 13.7159 91.7604 14.3059C91.7604 14.9119 91.6404 15.4781 91.4004 16.0044C91.1764 16.5307 90.8644 16.9931 90.4643 17.3918C90.0643 17.7905 89.6003 18.1015 89.0723 18.3248C88.5443 18.5481 87.9842 18.6597 87.3922 18.6597C86.8002 18.6597 86.2321 18.5481 85.6881 18.3248C85.1601 18.1015 84.6961 17.7905 84.2961 17.3918C83.896 16.9931 83.576 16.5307 83.336 16.0044C83.112 15.4781 83 14.9119 83 14.3059Z" fill="#1D70B8"/>
</svg>
