<svg width="150" height="28" viewBox="0 0 150 28" fill="none" xmlns="http://www.w3.org/2000/svg">
<path fill-rule="evenodd" clip-rule="evenodd" d="M6.35388 17.4379C6.06261 16.3615 5.91698 15.2408 5.91698 14.0757V13.8858C5.91698 12.7334 6.06261 11.619 6.35388 10.5425C6.64514 9.45346 7.08837 8.49735 7.68357 7.67421C8.27876 6.85107 9.03858 6.19255 9.96303 5.69867C10.8875 5.19212 11.9892 4.93885 13.2683 4.93885C14.0787 4.93885 14.8132 5.04649 15.4717 5.26177C16.1303 5.46439 16.7128 5.74932 17.2193 6.11657C17.7386 6.47116 18.1944 6.90172 18.587 7.40827C18.9796 7.90216 19.3215 8.44036 19.6128 9.02289L24.4377 6.30653C23.9818 5.35675 23.3866 4.49562 22.6521 3.72313C21.9176 2.93798 21.0691 2.27314 20.1067 1.7286C19.1569 1.17139 18.0995 0.747159 16.9344 0.455894C15.782 0.151965 14.56 0 13.2683 0C11.2801 0 9.48181 0.367247 7.87352 1.10174C6.27789 1.82357 4.91021 2.81768 3.77048 4.08405C2.64341 5.33775 1.76961 6.81941 1.14909 8.52901C0.541234 10.2259 0.237305 12.0495 0.237305 13.9997C0.237305 15.9626 0.509574 17.7925 1.05411 19.4895C1.61132 21.1864 2.41546 22.668 3.46655 23.9344C4.5303 25.2008 5.83466 26.1949 7.37964 26.9167C8.92461 27.6386 10.6912 27.9995 12.6794 27.9995C13.5279 27.9995 14.3257 27.9108 15.0728 27.7335C15.8327 27.5562 16.5292 27.3156 17.1624 27.0117C17.7955 26.6951 18.3654 26.3215 18.872 25.891C19.3785 25.4477 19.8027 24.9602 20.1447 24.4283V27.6196H24.9695V12.689H12.6414V16.8871H19.6128V17.153C19.6128 17.7355 19.5115 18.3687 19.3089 19.0526C19.1189 19.7364 18.777 20.3759 18.2831 20.9711C17.8019 21.5536 17.1497 22.0412 16.3265 22.4338C15.5161 22.8263 14.4966 23.0226 13.2683 23.0226C11.9892 23.0226 10.8875 22.7757 9.96303 22.2818C9.03858 21.7752 8.27876 21.1104 7.68357 20.2873C7.08837 19.4641 6.64514 18.5143 6.35388 17.4379ZM41.0583 0C43.0845 0 44.9017 0.367247 46.51 1.10174C48.1183 1.82357 49.4797 2.81768 50.5941 4.08405C51.7211 5.33775 52.5759 6.81941 53.1585 8.52901C53.7537 10.2259 54.0513 12.0495 54.0513 13.9997C54.0513 15.9626 53.7537 17.7925 53.1585 19.4895C52.5759 21.1864 51.7211 22.668 50.5941 23.9344C49.4797 25.2008 48.1183 26.1949 46.51 26.9167C44.9017 27.6386 43.0845 27.9995 41.0583 27.9995C39.0194 27.9995 37.1959 27.6386 35.5876 26.9167C33.9919 26.1949 32.6306 25.2008 31.5035 23.9344C30.3891 22.668 29.5343 21.1864 28.9391 19.4895C28.3566 17.7925 28.0653 15.9626 28.0653 13.9997C28.0653 12.0495 28.3566 10.2259 28.9391 8.52901C29.5343 6.81941 30.3891 5.33775 31.5035 4.08405C32.6306 2.81768 33.9919 1.82357 35.5876 1.10174C37.1959 0.367247 39.0194 0 41.0583 0ZM41.0583 23.0226C42.2487 23.0226 43.2934 22.801 44.1926 22.3578C45.1044 21.9019 45.8705 21.275 46.491 20.4772C47.1116 19.6794 47.5801 18.736 47.8967 17.6469C48.2133 16.5578 48.3716 15.3674 48.3716 14.0757V13.9237C48.3716 12.6447 48.2133 11.4607 47.8967 10.3716C47.5801 9.26984 47.1116 8.32006 46.491 7.52224C45.8705 6.72443 45.1044 6.10391 44.1926 5.66068C43.2934 5.20479 42.2487 4.97684 41.0583 4.97684C39.8679 4.97684 38.8168 5.20479 37.905 5.66068C36.9932 6.10391 36.2271 6.72443 35.6066 7.52224C34.9987 8.32006 34.5365 9.26984 34.2199 10.3716C33.9033 11.4607 33.745 12.6447 33.745 13.9237V14.0757C33.745 15.3674 33.9033 16.5578 34.2199 17.6469C34.5365 18.736 34.9987 19.6794 35.6066 20.4772C36.2271 21.275 36.9932 21.9019 37.905 22.3578C38.8168 22.801 39.8679 23.0226 41.0583 23.0226ZM111.975 23.0234C112.773 23.0234 113.514 22.9094 114.198 22.6815C114.894 22.4409 115.49 22.0863 115.984 21.6177C116.49 21.1365 116.889 20.535 117.18 19.8131C117.472 19.0787 117.617 18.2175 117.617 17.2298V0.342693H123.05V18.0466C123.05 19.5662 122.771 20.9402 122.214 22.1686C121.67 23.397 120.903 24.4417 119.916 25.3029C118.941 26.164 117.775 26.8288 116.42 27.2974C115.065 27.766 113.584 28.0002 111.975 28.0002C110.367 28.0002 108.886 27.766 107.531 27.2974C106.175 26.8288 105.004 26.164 104.016 25.3029C103.029 24.4417 102.256 23.397 101.699 22.1686C101.154 20.9402 100.882 19.5662 100.882 18.0466V0.342693H106.334V17.2298C106.334 18.2175 106.479 19.0787 106.771 19.8131C107.062 20.535 107.455 21.1365 107.948 21.6177C108.455 22.0863 109.05 22.4409 109.734 22.6815C110.431 22.9094 111.178 23.0234 111.975 23.0234ZM132.647 0.38091H127.138V27.6205H132.647V19.3385L136.161 15.4064L143.36 27.6205H149.762L139.694 11.2084L149.154 0.38091H142.373L132.647 12.1772V0.38091ZM83.3354 12.6552C83.1114 13.1656 82.9994 13.7158 82.9994 14.3058C82.9994 14.9118 83.1114 15.478 83.3354 16.0043C83.5754 16.5306 83.8954 16.993 84.2954 17.3917C84.6955 17.7904 85.1595 18.1014 85.6875 18.3247C86.2315 18.548 86.7996 18.6596 87.3916 18.6596C87.9836 18.6596 88.5436 18.548 89.0717 18.3247C89.5997 18.1014 90.0637 17.7904 90.4637 17.3917C90.8637 16.993 91.1758 16.5306 91.3998 16.0043C91.6398 15.478 91.7598 14.9118 91.7598 14.3058C91.7598 13.7158 91.6398 13.1656 91.3998 12.6552C91.1758 12.1289 90.8637 11.6744 90.4637 11.2917C90.0637 10.893 89.5997 10.582 89.0717 10.3587C88.5436 10.1195 87.9836 9.9999 87.3916 9.9999C86.7996 9.9999 86.2315 10.1195 85.6875 10.3587C85.1595 10.582 84.6955 10.893 84.2954 11.2917C83.8954 11.6744 83.5754 12.1289 83.3354 12.6552ZM54.589 0.38091L62.2822 27.6205H69.7664L77.4596 0.38091H71.3621L66.2143 20.8581H66.0243L60.7626 0.38091H54.589Z" fill="white"/>
<path d="M83 14.3059C83 13.7159 83.112 13.1657 83.336 12.6553C83.576 12.129 83.896 11.6745 84.2961 11.2918C84.6961 10.8931 85.1601 10.5821 85.6881 10.3588C86.2321 10.1196 86.8002 10 87.3922 10C87.9842 10 88.5443 10.1196 89.0723 10.3588C89.6003 10.5821 90.0643 10.8931 90.4643 11.2918C90.8644 11.6745 91.1764 12.129 91.4004 12.6553C91.6404 13.1657 91.7604 13.7159 91.7604 14.3059C91.7604 14.9119 91.6404 15.4781 91.4004 16.0044C91.1764 16.5307 90.8644 16.9931 90.4643 17.3918C90.0643 17.7905 89.6003 18.1015 89.0723 18.3248C88.5443 18.5481 87.9842 18.6597 87.3922 18.6597C86.8002 18.6597 86.2321 18.5481 85.6881 18.3248C85.1601 18.1015 84.6961 17.7905 84.2961 17.3918C83.896 16.9931 83.576 16.5307 83.336 16.0044C83.112 15.4781 83 14.9119 83 14.3059Z" fill="#00FFE0"/>
</svg>
