<svg width="538" height="101" viewBox="0 0 538 101" fill="none" xmlns="http://www.w3.org/2000/svg">
<path d="M318.601 67.2779C327.702 67.2779 335.079 59.9006 335.079 50.8002C335.079 41.6998 327.702 34.3225 318.601 34.3225C309.501 34.3225 302.124 41.6998 302.124 50.8002C302.124 59.9006 309.501 67.2779 318.601 67.2779Z" fill="#00FFE0"/>
<path d="M20.7493 51.0728C20.7493 55.2471 21.2713 59.2634 22.3153 63.1202C23.3576 66.977 24.9452 70.3799 27.0797 73.329C29.2126 76.2797 31.9339 78.6503 35.2471 80.4424C38.5602 82.2345 42.5084 83.1322 47.0917 83.1322C51.6749 83.1322 55.1576 82.429 58.0851 81.0226C61.0109 79.6162 63.3483 77.8574 65.0954 75.7461C66.841 73.6365 68.0661 71.3574 68.771 68.907C69.4742 66.4566 69.825 64.1875 69.825 62.0995V61.1469H44.8458V46.1056H89.019V99.6032H71.7317V88.1676C70.5066 90.0743 68.9855 91.8099 67.1718 93.3759C65.3564 94.9402 63.315 96.2801 61.0442 97.3905C58.775 98.5027 56.2897 99.3771 53.5917 100.012C50.8919 100.647 48.021 100.965 44.9821 100.965C37.8571 100.965 31.5283 99.6713 25.9925 97.0847C20.4567 94.498 15.7937 90.9371 12.0051 86.3988C8.21651 81.8621 5.33557 76.5524 3.36064 70.4713C1.38738 64.3919 0.399902 57.8355 0.399902 50.8002C0.399902 43.7649 1.50041 37.2683 3.70142 31.1656C5.90244 25.0629 9.03273 19.7532 13.0956 15.2382C17.1569 10.7231 22.056 7.16224 27.7962 4.55227C33.5365 1.94231 39.9683 0.637329 47.0933 0.637329C51.7214 0.637329 56.1119 1.17096 60.2629 2.23655C64.4155 3.30381 68.2041 4.82325 71.6303 6.79651C75.0549 8.76978 78.0837 11.1537 80.717 13.9432C83.3469 16.7327 85.4814 19.8314 87.1156 23.2343L69.8266 32.966C68.7826 30.8797 67.5574 28.9397 66.1511 27.1459C64.743 25.3555 63.1222 23.8112 61.2852 22.5178C59.4466 21.2245 57.3487 20.2038 54.9897 19.4557C52.6291 18.7076 49.9975 18.3319 47.095 18.3319C42.5118 18.3319 38.5636 19.2296 35.2504 21.0216C31.9373 22.8137 29.2159 25.1843 27.083 28.135C24.9502 31.0841 23.3626 34.4987 22.3186 38.3787C21.2746 42.2588 20.7526 46.2652 20.7526 50.3912V51.0728H20.7493Z" fill="white"/>
<path d="M151.882 0.635742C159.142 0.635742 165.654 1.94072 171.417 4.55069C177.179 7.16065 182.07 10.7215 186.086 15.2366C190.101 19.7517 193.165 25.0614 195.274 31.164C197.384 37.2667 198.438 43.8132 198.438 50.7986C198.438 57.784 197.384 64.3904 195.274 70.4697C193.165 76.5508 190.101 81.8605 186.086 86.3972C182.072 90.9339 177.181 94.4964 171.417 97.0831C165.655 99.6698 159.142 100.963 151.882 100.963C144.623 100.963 138.053 99.6698 132.314 97.0831C126.574 94.4964 121.697 90.9355 117.682 86.3972C113.666 81.8605 110.603 76.5508 108.494 70.4697C106.384 64.3904 105.329 57.8339 105.329 50.7986C105.329 43.7633 106.384 37.2667 108.494 31.164C110.603 25.0614 113.666 19.7517 117.682 15.2366C121.697 10.7215 126.574 7.16065 132.314 4.55069C138.055 1.94072 144.576 0.635742 151.882 0.635742ZM151.882 83.1306C156.148 83.1306 159.903 82.326 163.147 80.7134C166.39 79.1042 169.126 76.8683 171.347 74.0107C173.572 71.1513 175.251 67.7717 176.384 63.8684C177.518 59.9667 178.087 55.701 178.087 51.0729V50.5276C178.087 45.9444 177.518 41.6903 176.384 37.7654C175.251 33.8405 173.572 30.4475 171.347 27.5899C169.125 24.7322 166.39 22.4979 163.147 20.8854C159.903 19.2762 156.148 18.4699 151.882 18.4699C147.617 18.4699 143.851 19.2762 140.583 20.8854C137.316 22.4979 134.583 24.7322 132.382 27.5899C130.181 30.4475 128.514 33.8421 127.38 37.7654C126.247 41.6903 125.678 45.9444 125.678 50.5276V51.0729C125.678 55.701 126.247 59.9667 127.38 63.8684C128.514 67.7717 130.181 71.1497 132.382 74.0107C134.583 76.8683 137.316 79.1042 140.583 80.7134C143.851 82.326 147.617 83.1306 151.882 83.1306Z" fill="white"/>
<path d="M233.237 99.6016L205.671 1.9989H227.792L246.647 75.3705H247.327L265.773 1.9989H287.62L260.055 99.6016H233.238H233.237Z" fill="white"/>
<path d="M399.415 83.1306C402.273 83.1306 404.939 82.7117 407.411 81.8722C409.885 81.0326 412.018 79.7626 413.81 78.0603C415.6 76.358 417.02 74.2052 418.064 71.5936C419.106 68.9853 419.628 65.9115 419.628 62.3722V1.86096H439.027V65.2964C439.027 70.7424 438.041 75.6664 436.069 80.0668C434.098 84.4688 431.355 88.2125 427.84 91.298C424.326 94.385 420.144 96.7656 415.294 98.4446C410.443 100.122 405.139 100.963 399.382 100.963C393.625 100.963 388.319 100.122 383.469 98.4446C378.617 96.7656 374.424 94.3834 370.887 91.298C367.349 88.2125 364.596 84.4705 362.623 80.0668C360.651 75.6664 359.666 70.7407 359.666 65.2964V1.86096H379.2V62.3706C379.2 65.9098 379.722 68.9836 380.765 71.5919C381.809 74.2035 383.227 76.3563 385.019 78.0586C386.811 79.7609 388.944 81.031 391.417 81.8705C393.891 82.71 396.557 83.1289 399.415 83.1289V83.1306Z" fill="white"/>
<path d="M456.535 1.99719H476.274V44.2637L511.123 1.99719H535.423L501.526 40.7926L537.6 99.5999H514.664L488.867 55.8339L476.274 69.9228V99.5999H456.535V1.99719Z" fill="white"/>
</svg>
