<svg width="150" height="28" viewBox="0 0 150 28" fill="none" xmlns="http://www.w3.org/2000/svg">
<path d="M88.8408 18.5985C91.3805 18.5985 93.4393 16.5397 93.4393 13.9999C93.4393 11.4602 91.3805 9.40137 88.8408 9.40137C86.301 9.40137 84.2422 11.4602 84.2422 13.9999C84.2422 16.5397 86.301 18.5985 88.8408 18.5985Z" fill="#00FFE0"/>
<path d="M5.71816 14.076C5.71816 15.2409 5.86384 16.3618 6.15519 17.4382C6.44609 18.5145 6.88914 19.4642 7.48484 20.2872C8.08008 21.1107 8.83955 21.7723 9.76418 22.2724C10.6888 22.7726 11.7907 23.0231 13.0698 23.0231C14.3488 23.0231 15.3208 22.8268 16.1378 22.4343C16.9543 22.0418 17.6066 21.551 18.0942 20.9618C18.5814 20.3731 18.9233 19.737 19.12 19.0531C19.3163 18.3693 19.4141 17.736 19.4141 17.1533V16.8875H12.443V12.6897H24.7708V27.6198H19.9463V24.4284C19.6044 24.9605 19.1799 25.4448 18.6737 25.8819C18.1671 26.3184 17.5974 26.6924 16.9636 27.0023C16.3303 27.3127 15.6367 27.5567 14.8838 27.7339C14.1303 27.9112 13.3291 27.9998 12.481 27.9998C10.4926 27.9998 8.72635 27.6388 7.18143 26.9169C5.63651 26.195 4.33516 25.2013 3.27783 23.9347C2.22051 22.6686 1.4165 21.1868 0.865343 19.4897C0.314646 17.7931 0.0390625 15.9633 0.0390625 13.9999C0.0390625 12.0365 0.34619 10.2234 0.960448 8.52029C1.57471 6.81717 2.44831 5.33534 3.58218 4.07528C4.71558 2.81522 6.08282 1.82145 7.68481 1.09307C9.28679 0.364681 11.0818 0.000488281 13.0702 0.000488281C14.3618 0.000488281 15.5871 0.149413 16.7456 0.446799C17.9045 0.744649 18.9618 1.16869 19.918 1.71939C20.8737 2.27009 21.719 2.93538 22.4539 3.71387C23.1878 4.49236 23.7835 5.35715 24.2396 6.30683L19.4146 9.02274C19.1233 8.4405 18.7813 7.89908 18.3888 7.39849C17.9959 6.89882 17.5435 6.46782 17.0309 6.10687C16.5178 5.74593 15.9323 5.46107 15.2739 5.2523C14.6151 5.04352 13.8807 4.93867 13.0707 4.93867C11.7916 4.93867 10.6897 5.1892 9.76511 5.68933C8.84048 6.18946 8.08101 6.85104 7.48577 7.67453C6.89054 8.49756 6.44748 9.45049 6.15612 10.5333C5.86477 11.6162 5.71909 12.7343 5.71909 13.8858V14.076H5.71816Z" fill="white"/>
<path d="M42.3164 0C44.3424 0 46.1597 0.364194 47.7682 1.09258C49.3762 1.82097 50.7411 2.81473 51.862 4.07479C52.9824 5.33485 53.8375 6.81668 54.4262 8.51981C55.0149 10.2229 55.3091 12.0499 55.3091 13.9994C55.3091 15.9489 55.0149 17.7926 54.4262 19.4892C53.8375 21.1863 52.9824 22.6681 51.862 23.9342C50.7416 25.2003 49.3767 26.1946 47.7682 26.9164C46.1602 27.6383 44.3424 27.9993 42.3164 27.9993C40.2904 27.9993 38.4569 27.6383 36.8554 26.9164C35.2534 26.1946 33.8922 25.2008 32.7718 23.9342C31.6509 22.6681 30.7963 21.1863 30.2076 19.4892C29.6188 17.7926 29.3242 15.9628 29.3242 13.9994C29.3242 12.036 29.6188 10.2229 30.2076 8.51981C30.7963 6.81668 31.6509 5.33485 32.7718 4.07479C33.8922 2.81473 35.2534 1.82097 36.8554 1.09258C38.4574 0.364194 40.2774 0 42.3164 0ZM42.3164 23.0226C43.5069 23.0226 44.5549 22.798 45.4601 22.348C46.3652 21.8989 47.1289 21.2749 47.7487 20.4774C48.3694 19.6794 48.838 18.7362 49.1544 17.6469C49.4708 16.558 49.6295 15.3676 49.6295 14.076V13.9238C49.6295 12.6447 49.4708 11.4575 49.1544 10.3621C48.838 9.26675 48.3694 8.31985 47.7487 7.52233C47.1284 6.72482 46.3652 6.10128 45.4601 5.65126C44.5549 5.20217 43.5069 4.97716 42.3164 4.97716C41.1259 4.97716 40.0751 5.20217 39.163 5.65126C38.2514 6.10128 37.4886 6.72482 36.8744 7.52233C36.2601 8.31985 35.7948 9.26721 35.4784 10.3621C35.162 11.4575 35.0033 12.6447 35.0033 13.9238V14.076C35.0033 15.3676 35.162 16.558 35.4784 17.6469C35.7948 18.7362 36.2601 19.679 36.8744 20.4774C37.4886 21.2749 38.2514 21.8989 39.163 22.348C40.0751 22.798 41.1259 23.0226 42.3164 23.0226Z" fill="white"/>
<path d="M65.0173 27.6197L57.3242 0.380859H63.4979L68.7599 20.8573H68.9496L74.0975 0.380859H80.1946L72.5016 27.6197H65.0177H65.0173Z" fill="white"/>
<path d="M111.394 23.0234C112.192 23.0234 112.936 22.9065 113.626 22.6722C114.316 22.4379 114.911 22.0835 115.411 21.6084C115.911 21.1333 116.307 20.5325 116.599 19.8037C116.889 19.0758 117.035 18.2179 117.035 17.2302V0.342773H122.449V18.0463C122.449 19.5662 122.174 20.9403 121.623 22.1684C121.073 23.3969 120.308 24.4417 119.327 25.3028C118.346 26.1643 117.179 26.8287 115.826 27.2973C114.472 27.7654 112.991 28.0001 111.385 28.0001C109.778 28.0001 108.297 27.7654 106.944 27.2973C105.59 26.8287 104.42 26.1639 103.432 25.3028C102.445 24.4417 101.677 23.3974 101.126 22.1684C100.576 20.9403 100.301 19.5657 100.301 18.0463V0.342773H105.753V17.2297C105.753 18.2175 105.898 19.0753 106.189 19.8032C106.48 20.5321 106.876 21.1329 107.376 21.608C107.876 22.083 108.472 22.4375 109.162 22.6718C109.852 22.9061 110.597 23.023 111.394 23.023V23.0234Z" fill="white"/>
<path d="M127.336 0.380371H132.845V12.1761L142.57 0.380371H149.352L139.892 11.2074L149.96 27.6193H143.559L136.359 15.4051L132.845 19.337V27.6193H127.336V0.380371Z" fill="white"/>
</svg>
